<!-- Source: https://www.flaticon.com/free-icon/location_2934709?related_id=2954534&origin=search -->
<svg id="svg" version="1.1" xmlns="http://www.w3.org/2000/svg" xmlns:xlink="http://www.w3.org/1999/xlink" width="48" height="48" viewBox="0, 0, 400,400"><g id="svgg"><path id="path0" d="M187.800 28.020 C 173.549 29.935,163.706 32.586,153.000 37.391 C 151.680 37.984,150.240 38.666,149.800 38.907 C 149.360 39.149,147.740 40.004,146.200 40.808 C 132.740 47.836,118.774 59.409,110.006 70.800 C 109.244 71.790,108.513 72.690,108.380 72.800 C 108.248 72.910,107.356 74.170,106.398 75.600 C 105.439 77.030,104.508 78.260,104.328 78.333 C 104.147 78.407,104.000 78.642,104.000 78.855 C 104.000 79.069,103.258 80.336,102.352 81.671 C 99.070 86.504,93.414 98.384,91.342 104.796 C 91.022 105.788,90.609 106.960,90.425 107.400 C 90.242 107.840,89.870 109.010,89.599 110.000 C 89.329 110.990,88.970 112.250,88.803 112.800 C 88.636 113.350,88.288 114.790,88.030 116.000 C 87.772 117.210,87.403 118.920,87.211 119.800 C 86.844 121.479,86.344 124.716,85.575 130.400 C 85.049 134.293,85.306 152.879,85.949 157.400 C 86.475 161.094,87.100 164.626,87.577 166.600 C 87.790 167.480,88.071 168.740,88.201 169.400 C 88.513 170.980,89.215 173.598,89.595 174.600 C 89.761 175.040,90.473 177.176,91.177 179.347 C 99.525 205.113,118.000 227.534,143.000 242.240 C 144.825 243.313,151.464 246.614,154.935 248.172 C 160.486 250.665,172.615 254.354,178.200 255.248 C 179.520 255.459,181.590 255.802,182.800 256.011 C 204.453 259.740,231.110 255.537,251.361 245.202 C 255.366 243.158,256.511 242.539,259.618 240.738 C 283.950 226.631,303.541 200.287,311.254 171.300 C 311.444 170.585,311.760 169.415,311.956 168.700 C 312.151 167.985,312.519 166.230,312.774 164.800 C 313.028 163.370,313.399 161.300,313.598 160.200 C 314.620 154.549,314.878 149.720,314.667 140.200 C 314.429 129.399,313.900 124.289,312.372 118.000 C 312.132 117.010,311.840 115.524,311.725 114.697 C 311.610 113.871,311.355 113.095,311.158 112.974 C 310.961 112.852,310.800 112.394,310.800 111.955 C 310.800 109.585,306.010 97.227,302.212 89.800 C 299.719 84.924,292.862 74.011,291.321 72.465 C 291.028 72.171,290.296 71.271,289.694 70.465 C 280.539 58.201,262.715 44.353,247.193 37.444 C 229.415 29.531,205.178 25.685,187.800 28.020 M171.662 69.293 C 178.026 72.438,183.916 80.174,185.601 87.600 C 185.875 88.810,186.257 90.322,186.450 90.960 C 186.944 92.597,186.886 101.780,186.368 103.754 C 185.295 107.845,184.975 108.760,183.741 111.262 C 176.119 126.714,157.343 124.847,148.921 107.800 C 145.937 101.762,144.352 92.051,145.565 87.246 C 145.766 86.451,146.147 84.810,146.412 83.600 C 149.159 71.038,161.288 64.166,171.662 69.293 M239.554 68.024 C 246.638 69.657,251.795 75.521,254.237 84.720 C 254.881 87.142,255.018 97.412,254.434 99.372 C 250.532 112.450,246.333 117.697,236.681 121.553 C 233.847 122.685,228.224 121.951,224.264 119.931 C 216.974 116.211,211.678 102.870,213.626 93.131 C 213.860 91.959,214.253 90.010,214.499 88.800 C 217.168 75.646,229.231 65.644,239.554 68.024 M132.200 129.312 C 148.529 134.113,151.998 160.558,137.236 167.695 C 123.162 174.498,106.962 156.024,112.775 139.800 C 115.910 131.051,123.739 126.824,132.200 129.312 M277.081 129.251 C 285.958 132.825,290.271 142.202,287.822 152.600 C 286.481 158.297,281.479 165.022,277.000 167.151 C 275.900 167.674,274.567 168.304,274.039 168.551 C 271.781 169.606,265.214 169.090,262.526 167.645 C 250.077 160.957,250.468 140.144,263.200 131.761 C 264.893 130.646,265.546 130.308,268.000 129.275 C 269.350 128.707,275.689 128.690,277.081 129.251 M208.005 136.575 C 213.038 138.278,219.109 143.055,222.524 148.000 C 223.207 148.990,224.061 150.118,224.419 150.507 C 224.778 150.895,225.319 151.705,225.622 152.307 C 225.924 152.908,226.472 153.850,226.839 154.400 C 227.564 155.487,228.398 156.928,231.077 161.725 C 232.036 163.444,233.537 166.027,234.411 167.466 C 235.285 168.905,236.000 170.161,236.000 170.257 C 236.000 170.449,237.667 172.879,238.019 173.200 C 238.140 173.310,238.671 174.030,239.200 174.800 C 239.729 175.570,240.274 176.290,240.411 176.400 C 245.282 180.308,249.016 195.387,247.047 203.200 C 243.649 216.682,231.822 220.610,214.555 213.992 C 209.916 212.213,208.886 211.896,204.800 210.982 C 200.589 210.039,197.385 210.266,191.200 211.943 C 190.430 212.152,187.855 213.068,185.477 213.980 C 166.950 221.082,154.595 216.005,152.462 200.413 C 151.458 193.066,155.408 179.754,159.589 176.400 C 159.726 176.290,160.271 175.570,160.800 174.800 C 161.329 174.030,161.860 173.310,161.981 173.200 C 162.333 172.879,164.000 170.449,164.000 170.257 C 164.000 170.161,164.715 168.905,165.589 167.466 C 166.463 166.027,167.964 163.444,168.923 161.725 C 171.700 156.753,172.464 155.427,172.800 155.000 C 172.973 154.780,173.514 153.880,174.002 153.000 C 181.811 138.924,195.460 132.331,208.005 136.575 " stroke="none" fill="#ebf3f3" fill-rule="evenodd"></path><path id="path1" d="M159.770 68.749 C 150.954 71.758,146.199 80.044,146.201 92.400 C 146.201 97.571,146.429 99.124,147.819 103.400 C 154.213 123.078,175.402 127.455,183.327 110.736 C 192.831 90.684,177.189 62.804,159.770 68.749 M233.191 68.567 C 215.016 72.559,207.395 102.874,221.117 116.596 C 231.310 126.788,247.219 120.106,252.535 103.400 C 257.756 86.991,251.368 71.115,238.469 68.442 C 236.008 67.931,236.095 67.929,233.191 68.567 M122.761 129.977 C 108.248 135.508,109.241 159.789,124.270 166.907 C 126.781 168.096,127.321 168.200,131.000 168.200 C 136.472 168.200,138.976 166.919,142.810 162.157 C 146.043 158.142,147.018 148.237,144.716 142.800 C 143.619 140.209,143.346 139.683,142.227 138.000 C 137.446 130.812,129.338 127.470,122.761 129.977 M268.170 129.949 C 264.326 131.261,260.877 133.783,258.802 136.800 C 258.272 137.570,257.737 138.290,257.614 138.400 C 256.924 139.014,255.397 142.778,254.563 145.920 C 253.620 149.469,254.080 157.013,255.314 158.247 C 255.471 158.405,255.600 158.783,255.600 159.089 C 255.600 159.394,256.331 160.720,257.224 162.036 C 265.910 174.826,284.404 167.755,287.480 150.466 C 289.847 137.165,279.437 126.104,268.170 129.949 M194.800 136.383 C 194.250 136.559,192.990 136.941,192.000 137.233 C 187.768 138.479,184.729 140.746,178.981 146.948 C 178.751 147.197,177.951 148.300,177.204 149.400 C 176.458 150.500,175.701 151.460,175.523 151.533 C 175.345 151.607,175.200 151.844,175.200 152.061 C 175.200 152.278,174.689 153.208,174.063 154.128 C 173.438 155.048,172.385 156.790,171.722 158.000 C 167.071 166.488,164.383 170.997,162.181 174.000 C 161.133 175.430,160.156 176.690,160.011 176.800 C 158.986 177.577,154.800 185.273,154.800 186.380 C 154.800 186.617,154.639 187.123,154.443 187.505 C 152.301 191.668,152.614 202.309,155.028 207.406 C 159.730 217.333,174.939 219.382,188.895 211.969 C 189.277 211.766,189.941 211.600,190.371 211.600 C 190.801 211.600,191.252 211.440,191.373 211.244 C 191.773 210.597,194.531 210.293,200.000 210.293 C 205.469 210.293,208.227 210.597,208.627 211.244 C 208.748 211.440,209.199 211.600,209.629 211.600 C 210.059 211.600,210.723 211.766,211.105 211.969 C 225.865 219.809,242.039 216.916,245.599 205.800 C 245.881 204.920,246.290 203.701,246.508 203.091 C 246.726 202.481,246.893 199.781,246.880 197.091 C 246.857 192.536,246.616 190.972,245.250 186.493 C 244.384 183.653,241.320 178.102,239.718 176.471 C 238.031 174.752,232.284 165.606,229.997 161.000 C 229.669 160.340,229.311 159.710,229.201 159.600 C 229.006 159.406,228.819 159.087,227.116 156.045 C 226.670 155.250,225.967 154.122,225.553 153.538 C 225.139 152.954,224.800 152.294,224.800 152.072 C 224.800 151.849,224.655 151.607,224.477 151.533 C 224.299 151.460,223.542 150.500,222.796 149.400 C 222.049 148.300,221.249 147.197,221.019 146.948 C 215.269 140.745,212.227 138.475,208.000 137.235 C 207.010 136.944,205.678 136.548,205.040 136.353 C 203.620 135.921,196.178 135.942,194.800 136.383 M143.600 385.994 C 143.600 386.217,143.240 386.400,142.800 386.400 C 142.360 386.400,142.000 386.580,142.000 386.800 C 142.000 387.020,141.640 387.200,141.200 387.200 C 140.742 387.200,140.400 387.467,140.400 387.824 C 140.400 388.167,140.220 388.336,140.000 388.200 C 139.780 388.064,139.600 388.323,139.600 388.776 C 139.600 389.229,139.420 389.600,139.200 389.600 C 138.980 389.600,138.800 390.052,138.800 390.605 C 138.800 391.158,138.577 391.968,138.304 392.405 C 137.909 393.038,137.909 393.362,138.304 393.995 C 138.577 394.432,138.800 395.256,138.800 395.826 C 138.800 396.516,139.346 397.387,140.433 398.431 L 142.065 400.000 200.000 400.000 L 257.935 400.000 259.567 398.431 C 260.654 397.387,261.200 396.516,261.200 395.826 C 261.200 395.256,261.423 394.432,261.696 393.995 C 262.091 393.362,262.091 393.038,261.696 392.405 C 261.423 391.968,261.200 391.158,261.200 390.605 C 261.200 390.052,261.064 389.600,260.898 389.600 C 260.731 389.600,260.356 389.060,260.064 388.400 C 259.741 387.669,259.233 387.200,258.766 387.200 C 258.345 387.200,258.000 387.064,258.000 386.898 C 258.000 385.692,255.588 385.588,232.361 385.792 C 203.298 386.047,196.817 386.047,167.300 385.792 C 151.389 385.655,143.600 385.721,143.600 385.994 " stroke="none" fill="#3a5e6f" fill-rule="evenodd"></path><path id="path2" d="M182.200 0.274 C 180.660 0.366,179.229 0.612,179.020 0.820 C 178.811 1.029,177.596 1.200,176.320 1.200 C 175.040 1.200,174.000 1.379,174.000 1.600 C 174.000 1.820,173.100 2.000,172.000 2.000 C 170.900 2.000,170.000 2.162,170.000 2.360 C 170.000 2.558,169.145 2.831,168.100 2.968 C 163.358 3.587,162.816 3.702,163.025 4.040 C 163.147 4.238,162.707 4.400,162.047 4.400 C 161.387 4.400,160.736 4.580,160.600 4.800 C 160.464 5.020,159.733 5.200,158.976 5.200 C 158.219 5.200,157.600 5.380,157.600 5.600 C 157.600 5.820,157.060 6.000,156.400 6.000 C 155.740 6.000,155.200 6.180,155.200 6.400 C 155.200 6.620,154.761 6.800,154.224 6.800 C 153.687 6.800,153.136 6.980,153.000 7.200 C 152.864 7.420,152.324 7.600,151.800 7.600 C 151.276 7.600,150.750 7.757,150.632 7.948 C 150.514 8.140,149.828 8.435,149.108 8.604 C 147.514 8.979,147.729 8.905,145.851 9.724 C 144.999 10.096,143.964 10.400,143.551 10.400 C 143.138 10.400,142.800 10.580,142.800 10.800 C 142.800 11.020,142.440 11.200,142.000 11.200 C 141.560 11.200,141.200 11.380,141.200 11.600 C 141.200 11.820,140.840 12.000,140.400 12.000 C 139.960 12.000,139.600 12.158,139.600 12.350 C 139.600 12.542,139.082 12.804,138.448 12.930 C 137.815 13.057,137.018 13.440,136.677 13.780 C 136.336 14.121,135.774 14.400,135.429 14.400 C 135.083 14.400,134.800 14.580,134.800 14.800 C 134.800 15.020,134.440 15.200,134.000 15.200 C 133.560 15.200,133.200 15.380,133.200 15.600 C 133.200 15.820,132.840 16.000,132.400 16.000 C 131.960 16.000,131.600 16.180,131.600 16.400 C 131.600 16.620,131.240 16.800,130.800 16.800 C 130.360 16.800,130.000 16.980,130.000 17.200 C 130.000 17.420,129.722 17.600,129.383 17.600 C 129.044 17.600,128.380 17.960,127.908 18.400 C 127.436 18.840,126.802 19.200,126.501 19.200 C 126.199 19.200,126.064 19.380,126.200 19.600 C 126.336 19.820,126.116 20.000,125.712 20.000 C 125.307 20.000,124.717 20.360,124.400 20.800 C 124.083 21.240,123.503 21.600,123.112 21.600 C 122.720 21.600,122.400 21.780,122.400 22.000 C 122.400 22.220,122.164 22.400,121.875 22.400 C 121.587 22.400,120.964 22.760,120.492 23.200 C 120.020 23.640,119.436 24.000,119.195 24.000 C 118.954 24.000,118.181 24.539,117.478 25.198 C 116.775 25.857,116.008 26.397,115.773 26.398 C 115.538 26.399,114.638 27.030,113.773 27.800 C 112.908 28.570,112.071 29.200,111.914 29.200 C 111.608 29.200,109.542 31.011,106.321 34.104 C 105.193 35.187,104.135 35.893,103.869 35.740 C 103.611 35.593,103.519 35.605,103.666 35.768 C 103.812 35.931,103.192 36.725,102.288 37.532 C 99.283 40.217,93.493 46.000,93.810 46.000 C 93.982 46.000,93.707 46.360,93.200 46.800 C 92.693 47.240,92.410 47.600,92.571 47.600 C 92.733 47.600,92.131 48.306,91.233 49.169 C 90.335 50.031,89.600 50.942,89.600 51.192 C 89.600 51.442,89.392 51.519,89.138 51.362 C 88.860 51.190,88.785 51.252,88.949 51.517 C 89.099 51.760,88.408 52.771,87.411 53.768 C 86.415 54.764,85.600 55.814,85.600 56.101 C 85.600 56.388,85.240 56.883,84.800 57.200 C 84.360 57.517,84.000 58.127,84.000 58.555 C 84.000 58.983,83.889 59.222,83.752 59.086 C 83.392 58.725,82.400 59.832,82.400 60.595 C 82.400 60.954,82.220 61.136,82.000 61.000 C 81.780 60.864,81.600 60.951,81.600 61.193 C 81.600 61.435,81.240 62.020,80.800 62.492 C 80.360 62.964,80.000 63.587,80.000 63.875 C 80.000 64.164,79.842 64.400,79.649 64.400 C 79.455 64.400,79.073 64.940,78.800 65.600 C 78.527 66.260,78.145 66.800,77.951 66.800 C 77.758 66.800,77.600 67.149,77.600 67.576 C 77.600 68.003,77.439 68.453,77.241 68.574 C 76.676 68.924,75.228 71.895,75.494 72.160 C 75.626 72.292,75.523 72.400,75.267 72.400 C 75.010 72.400,74.800 72.694,74.800 73.053 C 74.800 73.412,74.485 73.997,74.100 74.353 C 73.715 74.709,73.341 75.342,73.269 75.760 C 73.197 76.178,72.893 76.764,72.595 77.062 C 72.297 77.361,71.938 77.964,71.799 78.402 C 71.660 78.841,71.417 79.200,71.258 79.200 C 71.100 79.200,70.940 79.602,70.903 80.094 C 70.866 80.586,70.648 81.051,70.418 81.127 C 70.188 81.204,70.000 81.702,70.000 82.233 C 70.000 82.765,69.820 83.200,69.600 83.200 C 69.380 83.200,69.200 83.560,69.200 84.000 C 69.200 84.440,69.020 84.800,68.800 84.800 C 68.580 84.800,68.400 85.149,68.400 85.576 C 68.400 86.003,68.220 86.464,68.000 86.600 C 67.780 86.736,67.600 87.287,67.600 87.824 C 67.600 88.361,67.420 88.800,67.200 88.800 C 66.980 88.800,66.800 89.160,66.800 89.600 C 66.800 90.040,66.620 90.400,66.400 90.400 C 66.180 90.400,66.000 90.839,66.000 91.376 C 66.000 91.913,65.820 92.464,65.600 92.600 C 65.380 92.736,65.200 93.276,65.200 93.800 C 65.200 94.324,65.020 94.864,64.800 95.000 C 64.580 95.136,64.400 95.676,64.400 96.200 C 64.400 96.724,64.220 97.264,64.000 97.400 C 63.780 97.536,63.600 98.076,63.600 98.600 C 63.600 99.124,63.420 99.664,63.200 99.800 C 62.980 99.936,62.800 100.487,62.800 101.024 C 62.800 101.561,62.657 102.000,62.482 102.000 C 62.307 102.000,62.119 102.666,62.064 103.481 C 62.009 104.295,61.822 105.150,61.649 105.381 C 61.476 105.611,61.105 106.880,60.825 108.200 C 60.545 109.520,60.165 110.960,59.981 111.400 C 59.796 111.840,59.547 113.010,59.427 114.000 C 59.307 114.990,59.117 116.340,59.004 117.000 C 58.891 117.660,58.686 119.820,58.547 121.800 C 58.409 123.780,58.139 125.460,57.948 125.533 C 57.756 125.607,57.600 127.822,57.600 130.457 C 57.600 133.654,57.462 135.162,57.186 134.992 C 56.906 134.818,56.787 137.390,56.816 142.968 C 56.841 147.715,57.016 151.200,57.230 151.200 C 57.440 151.200,57.600 153.712,57.600 157.000 C 57.600 160.190,57.754 162.800,57.942 162.800 C 58.237 162.800,58.892 170.951,58.849 174.087 C 58.841 174.685,59.007 175.280,59.217 175.411 C 59.428 175.541,59.600 176.681,59.600 177.944 C 59.600 179.207,59.770 180.411,59.978 180.620 C 60.185 180.829,60.399 181.866,60.454 182.923 C 60.508 183.981,60.698 184.937,60.876 185.047 C 61.054 185.157,61.200 186.011,61.200 186.944 C 61.200 187.877,61.371 188.811,61.581 189.021 C 61.790 189.230,62.007 190.076,62.063 190.901 C 62.118 191.725,62.307 192.400,62.482 192.400 C 62.657 192.400,62.800 193.120,62.800 194.000 C 62.800 194.880,62.980 195.600,63.200 195.600 C 63.420 195.600,63.600 196.219,63.600 196.976 C 63.600 197.733,63.780 198.464,64.000 198.600 C 64.220 198.736,64.400 199.557,64.400 200.424 C 64.400 201.291,64.580 202.000,64.800 202.000 C 65.020 202.000,65.200 202.392,65.200 202.872 C 65.200 203.738,65.793 205.871,66.459 207.400 C 66.651 207.840,66.846 208.695,66.891 209.300 C 66.937 209.905,67.115 210.400,67.287 210.400 C 67.459 210.400,67.600 210.839,67.600 211.376 C 67.600 211.913,67.780 212.464,68.000 212.600 C 68.220 212.736,68.400 213.276,68.400 213.800 C 68.400 214.324,68.580 214.864,68.800 215.000 C 69.020 215.136,69.200 215.787,69.200 216.447 C 69.200 217.145,69.367 217.544,69.600 217.400 C 69.838 217.253,70.000 217.729,70.000 218.576 C 70.000 219.359,70.180 220.000,70.400 220.000 C 70.620 220.000,70.800 220.339,70.800 220.754 C 70.800 221.169,71.061 222.011,71.380 222.626 C 71.698 223.240,71.850 223.918,71.718 224.133 C 71.584 224.350,71.682 224.396,71.938 224.238 C 72.241 224.051,72.400 224.305,72.400 224.976 C 72.400 225.539,72.580 226.000,72.800 226.000 C 73.020 226.000,73.200 226.439,73.200 226.976 C 73.200 227.513,73.380 228.064,73.600 228.200 C 73.820 228.336,74.000 228.876,74.000 229.400 C 74.000 229.924,74.180 230.464,74.400 230.600 C 74.620 230.736,74.800 231.197,74.800 231.624 C 74.800 232.051,74.991 232.400,75.224 232.400 C 75.457 232.400,75.531 232.588,75.389 232.818 C 75.247 233.047,75.421 233.677,75.775 234.218 C 76.129 234.758,76.327 235.200,76.216 235.200 C 76.105 235.200,76.371 235.835,76.807 236.612 C 77.243 237.389,77.600 238.233,77.600 238.488 C 77.600 238.743,78.164 240.133,78.853 241.576 C 79.542 243.019,80.284 244.650,80.502 245.200 C 80.719 245.750,81.156 246.695,81.471 247.300 C 81.787 247.905,81.938 248.400,81.807 248.400 C 81.676 248.400,81.936 248.794,82.384 249.275 C 82.833 249.757,83.200 250.567,83.200 251.075 C 83.200 251.584,83.335 252.001,83.500 252.003 C 83.865 252.007,84.800 253.949,84.800 254.703 C 84.800 255.002,84.980 255.136,85.200 255.000 C 85.420 254.864,85.600 254.998,85.600 255.297 C 85.600 256.051,86.535 257.993,86.900 257.997 C 87.065 257.999,87.200 258.360,87.200 258.800 C 87.200 259.240,87.380 259.600,87.600 259.600 C 87.820 259.600,88.000 259.960,88.000 260.400 C 88.000 260.840,88.135 261.201,88.300 261.203 C 88.665 261.207,89.600 263.149,89.600 263.903 C 89.600 264.202,89.780 264.336,90.000 264.200 C 90.220 264.064,90.400 264.289,90.400 264.701 C 90.400 265.112,90.760 265.836,91.200 266.308 C 91.640 266.780,92.000 267.444,92.000 267.783 C 92.000 268.122,92.210 268.400,92.467 268.400 C 92.723 268.400,92.826 268.508,92.694 268.640 C 92.399 268.934,93.776 271.658,95.282 273.760 C 95.897 274.618,96.400 275.529,96.400 275.785 C 96.400 276.040,96.715 276.607,97.100 277.045 C 98.100 278.182,98.800 279.488,98.800 280.218 C 98.800 280.564,98.980 280.736,99.200 280.600 C 99.420 280.464,99.600 280.633,99.600 280.976 C 99.600 281.319,99.780 281.600,100.000 281.600 C 100.220 281.600,100.400 281.793,100.400 282.028 C 100.400 282.263,100.940 283.241,101.600 284.200 C 102.260 285.159,102.800 286.109,102.800 286.310 C 102.800 286.511,103.160 287.002,103.600 287.400 C 104.040 287.798,104.400 288.338,104.400 288.600 C 104.400 288.862,104.760 289.402,105.200 289.800 C 105.640 290.198,106.000 290.726,106.000 290.974 C 106.000 291.221,106.360 291.683,106.800 292.000 C 107.240 292.317,107.600 292.857,107.600 293.200 C 107.600 293.543,107.960 294.083,108.400 294.400 C 108.840 294.717,109.200 295.286,109.200 295.665 C 109.200 296.043,109.375 296.461,109.589 296.593 C 109.803 296.726,110.274 297.456,110.635 298.217 C 110.996 298.978,111.451 299.600,111.646 299.600 C 111.841 299.600,112.000 299.778,112.000 299.995 C 112.000 300.367,112.760 301.415,113.900 302.616 C 114.175 302.906,114.400 303.436,114.400 303.795 C 114.400 304.154,114.580 304.336,114.800 304.200 C 115.020 304.064,115.200 304.218,115.200 304.543 C 115.200 304.868,115.335 305.193,115.500 305.267 C 115.665 305.340,116.426 306.300,117.190 307.400 C 117.955 308.500,118.993 309.817,119.498 310.326 C 120.002 310.835,120.294 311.448,120.146 311.688 C 119.985 311.949,120.062 312.009,120.338 311.838 C 120.592 311.681,120.800 311.767,120.800 312.029 C 120.800 312.292,121.149 312.809,121.575 313.178 C 122.001 313.548,122.406 314.108,122.475 314.422 C 122.544 314.735,123.051 315.444,123.603 315.996 C 124.154 316.548,125.120 317.792,125.748 318.761 C 126.377 319.729,127.234 320.899,127.652 321.361 C 128.071 321.822,129.019 322.956,129.759 323.881 C 130.499 324.805,131.216 325.450,131.352 325.314 C 131.489 325.178,131.600 325.340,131.600 325.674 C 131.600 326.008,132.140 326.846,132.800 327.537 C 133.460 328.228,134.000 328.896,134.000 329.022 C 134.000 329.262,135.003 330.386,138.000 333.506 C 138.990 334.536,139.755 335.429,139.700 335.489 C 139.407 335.813,139.659 336.411,140.000 336.200 C 140.220 336.064,140.400 336.128,140.400 336.342 C 140.400 336.556,140.985 337.351,141.700 338.109 C 143.373 339.883,145.166 342.000,144.994 342.000 C 144.921 342.000,146.202 343.395,147.841 345.100 C 152.012 349.438,152.800 350.313,152.800 350.603 C 152.800 350.743,153.070 351.127,153.400 351.457 C 153.730 351.787,154.000 351.940,154.000 351.798 C 154.000 351.655,154.495 352.135,155.100 352.865 C 156.295 354.306,174.400 372.421,174.400 372.176 C 174.400 372.094,174.946 372.561,175.614 373.213 C 176.281 373.866,177.012 374.400,177.237 374.400 C 177.463 374.400,177.536 374.580,177.400 374.800 C 177.264 375.020,177.331 375.200,177.549 375.200 C 177.767 375.200,179.358 376.600,181.085 378.311 C 182.812 380.021,184.850 381.859,185.613 382.395 C 186.376 382.931,187.450 383.827,188.000 384.386 C 189.734 386.149,191.227 386.400,200.000 386.400 C 209.014 386.400,210.161 386.186,212.400 384.088 C 213.170 383.367,214.085 382.512,214.434 382.188 C 214.782 381.865,215.173 381.600,215.303 381.600 C 215.432 381.600,216.878 380.295,218.516 378.700 C 220.153 377.105,222.272 375.170,223.223 374.400 C 225.667 372.423,245.600 352.420,245.600 351.945 C 245.600 351.729,245.735 351.635,245.900 351.734 C 246.205 351.919,247.063 351.186,247.022 350.776 C 246.998 350.532,247.671 349.784,252.132 345.100 C 253.756 343.395,255.029 342.000,254.961 342.000 C 254.892 342.000,255.233 341.581,255.718 341.070 C 256.203 340.558,256.870 339.791,257.200 339.365 C 258.836 337.250,259.928 336.062,260.088 336.222 C 260.186 336.319,260.521 335.905,260.833 335.302 C 261.145 334.699,261.940 333.626,262.600 332.918 C 265.587 329.711,266.000 329.237,266.000 329.012 C 266.000 328.881,266.585 328.172,267.300 327.436 C 268.015 326.701,269.230 325.248,270.000 324.207 C 270.770 323.166,271.813 321.867,272.319 321.320 C 272.824 320.773,273.722 319.578,274.313 318.663 C 274.905 317.748,275.706 316.709,276.094 316.353 C 276.482 315.997,276.800 315.492,276.800 315.229 C 276.800 314.967,276.980 314.864,277.200 315.000 C 277.420 315.136,277.600 314.916,277.600 314.512 C 277.600 314.107,277.960 313.517,278.400 313.200 C 278.840 312.883,279.200 312.383,279.200 312.088 C 279.200 311.785,279.401 311.677,279.662 311.838 C 279.932 312.005,280.016 311.949,279.863 311.702 C 279.720 311.471,280.142 310.705,280.800 310.000 C 281.458 309.295,281.880 308.529,281.737 308.298 C 281.594 308.066,281.653 307.986,281.870 308.119 C 282.086 308.253,282.699 307.656,283.231 306.792 C 283.764 305.928,284.335 305.217,284.500 305.211 C 284.665 305.205,284.800 304.919,284.800 304.576 C 284.800 304.233,284.942 304.040,285.115 304.148 C 285.288 304.255,285.649 303.849,285.915 303.246 C 286.182 302.643,286.760 301.764,287.200 301.292 C 287.640 300.820,288.000 300.328,288.000 300.200 C 288.000 300.072,288.360 299.580,288.800 299.108 C 289.240 298.636,289.600 298.013,289.600 297.725 C 289.600 297.436,289.791 297.200,290.024 297.200 C 290.257 297.200,290.336 297.020,290.200 296.800 C 290.064 296.580,290.143 296.400,290.376 296.400 C 290.609 296.400,290.800 296.080,290.800 295.688 C 290.800 295.297,291.160 294.717,291.600 294.400 C 292.040 294.083,292.400 293.543,292.400 293.200 C 292.400 292.857,292.760 292.317,293.200 292.000 C 293.640 291.683,294.000 291.221,294.000 290.974 C 294.000 290.726,294.360 290.198,294.800 289.800 C 295.240 289.402,295.600 288.862,295.600 288.600 C 295.600 288.338,295.960 287.798,296.400 287.400 C 296.840 287.002,297.200 286.511,297.200 286.310 C 297.200 286.109,297.740 285.159,298.400 284.200 C 299.060 283.241,299.600 282.263,299.600 282.028 C 299.600 281.793,299.780 281.600,300.000 281.600 C 300.220 281.600,300.400 281.319,300.400 280.976 C 300.400 280.633,300.580 280.464,300.800 280.600 C 301.020 280.736,301.200 280.477,301.200 280.024 C 301.200 279.571,301.380 279.200,301.600 279.200 C 301.820 279.200,302.000 278.840,302.000 278.400 C 302.000 277.960,302.159 277.600,302.354 277.600 C 302.549 277.600,303.022 276.925,303.404 276.100 C 303.787 275.275,304.493 274.060,304.974 273.400 C 306.242 271.659,307.585 268.918,307.306 268.640 C 307.174 268.508,307.277 268.400,307.533 268.400 C 307.790 268.400,308.000 268.122,308.000 267.783 C 308.000 267.444,308.360 266.780,308.800 266.308 C 309.240 265.836,309.604 265.168,309.609 264.825 C 309.614 264.481,309.970 263.750,310.400 263.200 C 310.830 262.650,311.186 261.975,311.191 261.700 C 311.196 261.425,311.380 261.200,311.600 261.200 C 311.820 261.200,312.000 260.840,312.000 260.400 C 312.000 259.960,312.180 259.600,312.400 259.600 C 312.620 259.600,312.800 259.240,312.800 258.800 C 312.800 258.360,312.935 257.999,313.100 257.997 C 313.465 257.993,314.400 256.051,314.400 255.297 C 314.400 254.998,314.580 254.864,314.800 255.000 C 315.020 255.136,315.200 254.972,315.200 254.636 C 315.200 254.299,315.560 253.383,316.000 252.600 C 316.440 251.817,316.800 250.901,316.800 250.564 C 316.800 250.204,316.990 250.070,317.262 250.238 C 317.521 250.399,317.616 250.349,317.478 250.126 C 317.343 249.907,317.585 249.069,318.017 248.264 C 318.448 247.459,318.666 246.797,318.501 246.794 C 318.335 246.791,318.380 246.656,318.601 246.494 C 318.821 246.332,319.202 245.750,319.448 245.200 C 319.693 244.650,320.458 243.019,321.147 241.576 C 321.836 240.133,322.400 238.743,322.400 238.488 C 322.400 238.233,322.757 237.389,323.193 236.612 C 323.629 235.835,323.895 235.200,323.784 235.200 C 323.673 235.200,323.871 234.758,324.225 234.218 C 324.579 233.677,324.753 233.047,324.611 232.818 C 324.469 232.588,324.543 232.400,324.776 232.400 C 325.009 232.400,325.200 232.051,325.200 231.624 C 325.200 231.197,325.380 230.736,325.600 230.600 C 325.820 230.464,326.000 229.924,326.000 229.400 C 326.000 228.876,326.180 228.336,326.400 228.200 C 326.620 228.064,326.800 227.513,326.800 226.976 C 326.800 226.439,326.980 226.000,327.200 226.000 C 327.420 226.000,327.600 225.539,327.600 224.976 C 327.600 224.305,327.759 224.051,328.062 224.238 C 328.318 224.396,328.416 224.350,328.282 224.133 C 328.150 223.918,328.302 223.240,328.620 222.626 C 328.939 222.011,329.200 221.069,329.200 220.531 C 329.200 219.981,329.375 219.661,329.600 219.800 C 329.833 219.944,330.000 219.537,330.000 218.824 C 330.000 218.151,330.180 217.600,330.400 217.600 C 330.620 217.600,330.800 217.060,330.800 216.400 C 330.800 215.740,330.980 215.200,331.200 215.200 C 331.420 215.200,331.600 214.671,331.600 214.024 C 331.600 213.377,331.780 212.736,332.000 212.600 C 332.220 212.464,332.400 211.913,332.400 211.376 C 332.400 210.839,332.542 210.400,332.715 210.400 C 332.888 210.400,333.074 209.818,333.128 209.107 C 333.183 208.395,333.401 207.639,333.613 207.427 C 333.826 207.214,334.000 206.637,334.000 206.144 C 334.000 205.651,334.180 205.136,334.400 205.000 C 334.620 204.864,334.800 204.133,334.800 203.376 C 334.800 202.619,334.980 202.000,335.200 202.000 C 335.420 202.000,335.600 201.291,335.600 200.424 C 335.600 199.557,335.780 198.736,336.000 198.600 C 336.220 198.464,336.400 197.744,336.400 197.000 C 336.400 196.256,336.580 195.536,336.800 195.400 C 337.020 195.264,337.200 194.433,337.200 193.553 C 337.200 192.673,337.344 192.042,337.520 192.151 C 337.696 192.259,337.885 191.685,337.939 190.875 C 337.994 190.065,338.210 189.230,338.419 189.021 C 338.629 188.811,338.800 187.877,338.800 186.944 C 338.800 186.011,338.947 185.156,339.128 185.045 C 339.308 184.933,339.498 183.892,339.551 182.730 C 339.604 181.568,339.787 180.524,339.956 180.409 C 340.126 180.294,340.305 179.221,340.355 178.024 C 340.405 176.828,340.571 175.658,340.723 175.424 C 340.875 175.191,341.025 174.460,341.055 173.800 C 341.335 167.742,341.784 162.734,342.062 162.562 C 342.248 162.447,342.400 159.753,342.400 156.576 C 342.400 152.992,342.552 150.800,342.800 150.800 C 343.053 150.800,343.200 148.000,343.200 143.200 C 343.200 138.400,343.053 135.600,342.800 135.600 C 342.555 135.600,342.400 133.667,342.400 130.600 C 342.400 127.850,342.241 125.600,342.048 125.600 C 341.854 125.600,341.590 123.935,341.462 121.900 C 341.333 119.865,341.127 117.660,341.004 117.000 C 340.882 116.340,340.678 114.900,340.552 113.800 C 340.426 112.700,340.160 111.629,339.961 111.420 C 339.763 111.211,339.600 110.446,339.600 109.720 C 339.600 108.994,339.420 108.400,339.200 108.400 C 338.980 108.400,338.800 107.806,338.800 107.080 C 338.800 106.354,338.629 105.589,338.419 105.379 C 338.210 105.170,337.993 104.324,337.937 103.499 C 337.882 102.675,337.693 102.000,337.518 102.000 C 337.343 102.000,337.200 101.561,337.200 101.024 C 337.200 100.487,337.020 99.936,336.800 99.800 C 336.580 99.664,336.400 99.124,336.400 98.600 C 336.400 98.076,336.220 97.536,336.000 97.400 C 335.780 97.264,335.600 96.724,335.600 96.200 C 335.600 95.676,335.420 95.136,335.200 95.000 C 334.980 94.864,334.800 94.324,334.800 93.800 C 334.800 93.276,334.620 92.736,334.400 92.600 C 334.180 92.464,334.000 91.913,334.000 91.376 C 334.000 90.839,333.820 90.400,333.600 90.400 C 333.380 90.400,333.200 90.040,333.200 89.600 C 333.200 89.160,333.020 88.800,332.800 88.800 C 332.580 88.800,332.400 88.361,332.400 87.824 C 332.400 87.287,332.220 86.736,332.000 86.600 C 331.780 86.464,331.600 86.003,331.600 85.576 C 331.600 85.149,331.420 84.800,331.200 84.800 C 330.980 84.800,330.800 84.440,330.800 84.000 C 330.800 83.560,330.620 83.200,330.400 83.200 C 330.180 83.200,329.994 82.795,329.987 82.300 C 329.980 81.805,329.716 81.058,329.400 80.641 C 329.084 80.224,328.920 79.729,329.036 79.541 C 329.152 79.353,329.078 79.200,328.872 79.200 C 328.666 79.200,328.258 78.615,327.965 77.900 C 327.673 77.185,327.200 76.360,326.913 76.068 C 326.627 75.775,326.475 75.403,326.575 75.241 C 326.675 75.078,326.407 74.693,325.979 74.385 C 325.550 74.076,325.200 73.503,325.200 73.112 C 325.200 72.720,324.990 72.400,324.733 72.400 C 324.477 72.400,324.374 72.292,324.506 72.160 C 324.772 71.895,323.324 68.924,322.759 68.574 C 322.561 68.453,322.400 68.003,322.400 67.576 C 322.400 67.149,322.242 66.800,322.049 66.800 C 321.855 66.800,321.473 66.260,321.200 65.600 C 320.927 64.940,320.545 64.400,320.351 64.400 C 320.158 64.400,320.000 64.164,320.000 63.875 C 320.000 63.587,319.640 62.964,319.200 62.492 C 318.760 62.020,318.400 61.446,318.400 61.217 C 318.400 60.988,318.220 60.800,318.000 60.800 C 317.780 60.800,317.600 60.607,317.600 60.371 C 317.600 59.779,316.551 58.782,316.248 59.086 C 316.111 59.222,316.000 58.983,316.000 58.555 C 316.000 58.127,315.640 57.517,315.200 57.200 C 314.760 56.883,314.400 56.422,314.400 56.175 C 314.400 55.929,313.591 54.870,312.601 53.823 C 311.612 52.776,310.920 51.729,311.063 51.498 C 311.216 51.251,311.132 51.195,310.862 51.362 C 310.608 51.519,310.400 51.442,310.400 51.192 C 310.400 50.942,309.665 50.031,308.767 49.169 C 307.869 48.306,307.267 47.600,307.429 47.600 C 307.590 47.600,307.335 47.264,306.861 46.853 C 306.388 46.442,306.000 45.965,306.000 45.792 C 306.000 45.360,295.978 35.600,295.535 35.600 C 295.339 35.600,294.399 34.835,293.445 33.900 C 290.611 31.123,288.396 29.200,288.029 29.200 C 287.839 29.200,287.107 28.660,286.400 28.000 C 285.693 27.340,284.954 26.800,284.758 26.800 C 284.561 26.800,284.400 26.620,284.400 26.400 C 284.400 26.180,284.265 26.044,284.100 26.099 C 283.935 26.153,283.153 25.703,282.362 25.099 C 281.571 24.494,280.756 24.000,280.551 24.000 C 280.345 24.000,279.917 23.640,279.600 23.200 C 279.283 22.760,278.703 22.400,278.312 22.400 C 277.920 22.400,277.600 22.220,277.600 22.000 C 277.600 21.780,277.280 21.600,276.888 21.600 C 276.497 21.600,275.917 21.240,275.600 20.800 C 275.283 20.360,274.693 20.000,274.288 20.000 C 273.884 20.000,273.664 19.820,273.800 19.600 C 273.936 19.380,273.801 19.200,273.499 19.200 C 273.198 19.200,272.564 18.840,272.092 18.400 C 271.620 17.960,271.082 17.600,270.896 17.600 C 270.303 17.600,268.406 16.611,268.403 16.300 C 268.401 16.135,268.040 16.000,267.600 16.000 C 267.160 16.000,266.800 15.820,266.800 15.600 C 266.800 15.380,266.440 15.200,266.000 15.200 C 265.560 15.200,265.200 15.020,265.200 14.800 C 265.200 14.580,264.840 14.400,264.400 14.400 C 263.960 14.400,263.600 14.220,263.600 14.000 C 263.600 13.780,263.240 13.600,262.800 13.600 C 262.360 13.600,262.000 13.420,262.000 13.200 C 262.000 12.980,261.640 12.800,261.200 12.800 C 260.760 12.800,260.400 12.620,260.400 12.400 C 260.400 12.180,260.166 12.000,259.880 12.000 C 259.144 12.000,257.207 11.059,257.203 10.700 C 257.201 10.535,256.870 10.400,256.467 10.400 C 256.063 10.400,255.608 10.275,255.455 10.122 C 255.302 9.969,254.898 9.803,254.557 9.753 C 254.216 9.703,253.637 9.528,253.269 9.365 C 252.286 8.930,252.309 8.937,250.892 8.604 C 250.172 8.435,249.486 8.140,249.368 7.948 C 249.250 7.757,248.713 7.600,248.176 7.600 C 247.639 7.600,247.200 7.420,247.200 7.200 C 247.200 6.980,246.660 6.800,246.000 6.800 C 245.340 6.800,244.800 6.620,244.800 6.400 C 244.800 6.180,244.260 6.000,243.600 6.000 C 242.940 6.000,242.400 5.820,242.400 5.600 C 242.400 5.380,241.781 5.200,241.024 5.200 C 240.267 5.200,239.536 5.020,239.400 4.800 C 239.264 4.580,238.613 4.400,237.953 4.400 C 237.255 4.400,236.856 4.233,237.000 4.000 C 237.149 3.758,236.604 3.600,235.624 3.600 C 234.731 3.600,234.000 3.454,234.000 3.275 C 234.000 3.096,233.145 2.906,232.100 2.853 C 231.055 2.800,230.140 2.587,230.067 2.379 C 229.993 2.170,229.048 2.000,227.967 2.000 C 226.885 2.000,226.000 1.820,226.000 1.600 C 226.000 1.380,225.025 1.200,223.833 1.200 C 222.498 1.200,221.605 1.015,221.506 0.718 C 221.346 0.237,188.979 -0.128,182.200 0.274 M209.000 27.227 C 218.156 27.916,222.924 28.758,232.500 31.374 C 235.305 32.140,242.479 34.656,244.764 35.675 C 249.379 37.733,257.462 41.845,258.000 42.410 C 258.110 42.525,259.055 43.065,260.100 43.609 C 261.145 44.153,262.000 44.734,262.000 44.899 C 262.000 45.065,262.225 45.204,262.500 45.208 C 263.065 45.218,270.391 50.468,273.651 53.200 C 278.899 57.598,284.611 63.331,288.792 68.400 C 291.877 72.139,291.995 72.290,293.186 74.000 C 293.723 74.770,294.272 75.490,294.407 75.600 C 295.382 76.393,301.367 86.435,303.467 90.800 C 305.991 96.047,307.200 98.760,307.200 99.180 C 307.200 99.417,307.359 99.923,307.553 100.305 C 307.748 100.687,308.129 101.540,308.400 102.200 C 308.671 102.860,309.052 103.713,309.247 104.095 C 309.441 104.477,309.600 105.064,309.600 105.400 C 309.600 105.736,309.758 106.323,309.951 106.705 C 310.297 107.391,310.688 108.667,311.513 111.800 C 313.223 118.296,313.444 119.377,314.879 128.200 C 315.216 130.273,315.400 135.276,315.400 142.400 C 315.400 149.524,315.216 154.527,314.879 156.600 C 313.935 162.408,313.551 164.579,313.148 166.400 C 312.261 170.405,310.570 176.736,309.995 178.200 C 309.822 178.640,309.464 179.630,309.200 180.400 C 308.936 181.170,308.557 182.205,308.360 182.700 C 308.162 183.195,307.844 184.005,307.654 184.500 C 306.371 187.830,305.159 190.544,303.320 194.200 C 301.195 198.425,297.163 205.342,296.713 205.533 C 296.541 205.607,296.400 205.888,296.400 206.158 C 296.400 206.428,296.078 206.998,295.683 207.425 C 295.289 207.851,294.353 209.100,293.602 210.200 C 292.852 211.300,292.049 212.396,291.819 212.637 C 291.589 212.877,290.950 213.679,290.400 214.419 C 283.701 223.433,267.134 237.806,258.600 242.008 C 257.940 242.333,257.310 242.689,257.200 242.799 C 256.606 243.395,250.813 246.354,246.200 248.417 C 242.710 249.978,236.323 252.294,232.900 253.241 C 232.185 253.438,230.925 253.794,230.100 254.030 C 229.275 254.267,227.835 254.627,226.900 254.830 C 225.965 255.034,224.345 255.391,223.300 255.624 C 211.795 258.190,193.280 258.539,181.200 256.418 C 176.600 255.610,172.074 254.654,169.900 254.030 C 169.075 253.794,167.815 253.435,167.100 253.233 C 163.803 252.303,156.688 249.710,153.358 248.225 C 149.637 246.566,143.297 243.305,142.800 242.795 C 142.690 242.682,141.745 242.158,140.700 241.632 C 139.655 241.105,138.800 240.523,138.800 240.337 C 138.800 240.152,138.612 240.000,138.382 240.000 C 137.804 240.000,132.918 236.659,128.600 233.312 C 122.672 228.716,113.267 219.365,109.600 214.421 C 109.050 213.680,108.411 212.877,108.181 212.637 C 107.951 212.396,107.148 211.300,106.398 210.200 C 105.647 209.100,104.711 207.851,104.317 207.425 C 103.922 206.998,103.600 206.428,103.600 206.158 C 103.600 205.888,103.459 205.607,103.287 205.533 C 103.115 205.460,101.960 203.690,100.722 201.600 C 97.728 196.547,94.978 191.058,93.159 186.500 C 91.409 182.115,91.137 181.459,90.753 180.705 C 90.559 180.323,90.400 179.736,90.400 179.400 C 90.400 179.064,90.242 178.477,90.049 178.095 C 89.704 177.412,89.358 176.283,88.454 172.900 C 86.896 167.067,86.540 165.325,85.121 156.600 C 84.439 152.412,84.424 132.083,85.100 128.298 C 85.365 126.812,85.778 124.292,86.019 122.698 C 86.259 121.104,86.616 119.170,86.812 118.400 C 87.008 117.630,87.459 115.830,87.816 114.400 C 88.172 112.970,88.644 111.170,88.865 110.400 C 89.085 109.630,89.362 108.503,89.479 107.895 C 89.596 107.287,89.851 106.692,90.046 106.571 C 90.241 106.451,90.400 106.001,90.400 105.571 C 90.400 105.141,90.559 104.477,90.753 104.095 C 90.948 103.713,91.329 102.860,91.600 102.200 C 91.871 101.540,92.252 100.687,92.447 100.305 C 92.641 99.923,92.800 99.426,92.800 99.201 C 92.800 97.163,103.635 77.168,105.589 75.600 C 105.726 75.490,106.277 74.770,106.814 74.000 C 108.000 72.297,108.113 72.153,111.204 68.400 C 115.050 63.730,121.752 56.994,126.082 53.446 C 129.144 50.937,135.721 46.071,136.800 45.516 C 137.350 45.233,137.890 44.898,138.000 44.771 C 138.110 44.644,139.010 44.104,140.000 43.570 C 140.990 43.037,141.890 42.510,142.000 42.400 C 143.009 41.391,156.652 34.800,157.732 34.800 C 158.011 34.800,158.411 34.642,158.620 34.450 C 158.995 34.104,166.197 31.720,169.500 30.849 C 175.784 29.190,177.348 28.869,183.600 27.950 C 190.597 26.923,201.020 26.626,209.000 27.227 " stroke="none" fill="#3499d5" fill-rule="evenodd"></path><path id="path3" d="M163.107 67.890 C 163.826 67.979,164.906 67.977,165.507 67.886 C 166.108 67.795,165.520 67.722,164.200 67.724 C 162.880 67.726,162.388 67.801,163.107 67.890 M157.371 69.199 C 148.126 73.684,142.721 89.032,146.385 100.400 C 146.562 100.950,146.949 102.210,147.244 103.200 C 148.547 107.570,152.061 113.316,155.121 116.081 C 156.874 117.665,160.985 120.400,161.613 120.400 C 161.832 120.400,162.323 120.564,162.705 120.766 C 164.411 121.663,167.988 122.059,170.299 121.606 C 189.167 117.906,192.926 87.534,176.360 72.640 C 174.088 70.598,169.074 67.977,167.558 68.040 C 166.852 68.069,167.037 68.217,168.264 68.604 C 183.290 73.341,190.927 94.702,183.327 110.736 C 175.402 127.455,154.213 123.078,147.819 103.400 C 146.429 99.124,146.201 97.571,146.201 92.400 C 146.199 80.044,150.954 71.758,159.770 68.749 C 161.184 68.266,161.497 68.051,160.800 68.038 C 160.250 68.028,158.707 68.551,157.371 69.199 M230.223 68.996 C 222.397 72.213,217.753 78.238,214.341 89.600 C 213.602 92.058,213.607 102.764,214.347 105.200 C 219.498 122.155,233.429 127.165,245.091 116.255 C 254.987 106.998,257.809 90.791,251.680 78.411 C 248.946 72.888,243.456 68.489,238.894 68.166 L 237.000 68.032 238.800 68.451 C 251.486 71.397,257.693 87.190,252.535 103.400 C 247.219 120.106,231.310 126.788,221.117 116.596 C 207.395 102.874,215.016 72.559,233.191 68.567 C 235.093 68.149,235.206 68.078,234.000 68.050 C 233.230 68.033,231.530 68.459,230.223 68.996 M123.200 129.276 C 118.599 131.216,115.742 133.794,113.803 137.758 C 105.621 154.482,122.993 175.388,138.200 167.118 C 143.693 164.130,147.624 155.302,146.446 148.600 C 146.126 146.782,146.089 146.965,146.043 150.600 C 145.980 155.464,144.801 159.677,142.808 162.157 C 138.987 166.912,136.471 168.200,131.000 168.200 C 111.528 168.200,104.862 136.557,122.942 129.948 C 130.486 127.191,140.048 132.219,143.959 141.000 C 144.253 141.660,144.652 142.513,144.847 142.895 C 145.041 143.277,145.203 143.997,145.206 144.495 C 145.209 144.993,145.403 145.670,145.636 146.000 C 146.659 147.448,145.445 143.192,143.982 140.200 C 142.286 136.731,140.477 134.522,137.484 132.266 C 135.707 130.927,134.850 130.467,131.881 129.256 C 130.495 128.691,124.555 128.704,123.200 129.276 M268.400 129.282 C 262.198 131.934,258.698 135.027,256.274 140.000 C 246.297 160.468,265.969 178.778,281.424 163.409 C 292.551 152.344,290.095 134.652,276.681 129.251 C 275.283 128.688,269.741 128.708,268.400 129.282 M276.940 129.947 C 287.006 133.268,290.839 146.041,285.201 157.475 C 280.151 167.717,268.660 171.627,260.724 165.804 C 258.867 164.441,255.600 160.160,255.600 159.089 C 255.600 158.783,255.471 158.405,255.314 158.247 C 254.080 157.013,253.620 149.469,254.563 145.920 C 255.397 142.778,256.924 139.014,257.614 138.400 C 257.737 138.290,258.272 137.570,258.802 136.800 C 262.906 130.834,270.701 127.889,276.940 129.947 M197.900 135.895 C 199.055 135.976,200.945 135.976,202.100 135.895 C 203.255 135.814,202.310 135.748,200.000 135.748 C 197.690 135.748,196.745 135.814,197.900 135.895 M191.678 136.812 C 183.693 139.649,178.041 145.836,169.400 161.200 C 165.765 167.664,161.331 174.714,160.160 175.894 C 157.820 178.251,152.720 188.438,154.400 187.400 C 154.620 187.264,154.800 186.882,154.800 186.551 C 154.800 185.303,158.891 177.649,160.011 176.800 C 160.156 176.690,161.133 175.430,162.181 174.000 C 164.383 170.997,167.071 166.488,171.722 158.000 C 172.385 156.790,173.438 155.048,174.063 154.128 C 174.689 153.208,175.200 152.278,175.200 152.061 C 175.200 151.844,175.345 151.607,175.523 151.533 C 175.701 151.460,176.458 150.500,177.204 149.400 C 177.951 148.300,178.751 147.197,178.981 146.948 C 184.729 140.746,187.768 138.479,192.000 137.233 C 192.990 136.941,194.250 136.559,194.800 136.383 L 195.800 136.063 194.800 136.061 C 194.250 136.060,192.845 136.398,191.678 136.812 M205.200 136.383 C 205.750 136.559,207.010 136.941,208.000 137.233 C 212.232 138.479,215.271 140.746,221.019 146.948 C 221.249 147.197,222.049 148.300,222.796 149.400 C 223.542 150.500,224.299 151.460,224.477 151.533 C 224.655 151.607,224.800 151.849,224.800 152.072 C 224.800 152.294,225.139 152.954,225.553 153.538 C 225.967 154.122,226.670 155.250,227.116 156.045 C 228.819 159.087,229.006 159.406,229.201 159.600 C 229.311 159.710,229.669 160.340,229.997 161.000 C 232.284 165.606,238.031 174.752,239.718 176.471 C 241.320 178.102,244.384 183.653,245.250 186.493 C 246.612 190.959,246.857 192.540,246.880 197.028 C 246.902 201.545,246.756 202.499,245.472 206.200 C 244.422 209.227,240.886 213.149,238.000 214.488 C 237.010 214.947,236.415 215.397,236.678 215.487 C 238.263 216.033,243.868 210.859,245.461 207.379 C 249.565 198.415,246.795 182.899,239.840 175.894 C 238.669 174.714,234.235 167.664,230.600 161.200 C 221.192 144.474,212.368 135.771,205.082 136.032 C 204.258 136.061,204.266 136.084,205.200 136.383 M153.221 190.000 C 148.607 210.302,162.494 222.038,182.600 214.829 C 194.777 210.463,194.113 210.623,200.000 210.623 C 205.887 210.623,205.223 210.463,217.400 214.829 C 224.695 217.445,233.986 217.915,235.940 215.768 C 236.083 215.611,235.750 215.621,235.200 215.790 C 229.749 217.472,217.939 215.599,211.105 211.969 C 210.723 211.766,210.059 211.600,209.629 211.600 C 209.199 211.600,208.748 211.440,208.627 211.244 C 207.809 209.919,192.191 209.919,191.373 211.244 C 191.252 211.440,190.801 211.600,190.371 211.600 C 189.941 211.600,189.277 211.766,188.895 211.969 C 180.158 216.610,168.733 217.730,162.200 214.586 C 154.770 211.010,151.096 200.657,153.664 190.530 C 153.896 189.612,154.005 188.622,153.904 188.330 C 153.803 188.039,153.496 188.790,153.221 190.000 " stroke="none" fill="#7f9cad" fill-rule="evenodd"></path><path id="path4" d="M190.600 27.227 C 187.069 27.477,183.938 27.858,179.200 28.615 C 177.144 28.943,173.813 29.710,169.500 30.849 C 166.197 31.720,158.995 34.104,158.620 34.450 C 158.411 34.642,158.011 34.800,157.732 34.800 C 156.652 34.800,143.009 41.391,142.000 42.400 C 141.890 42.510,140.990 43.037,140.000 43.570 C 139.010 44.104,138.110 44.644,138.000 44.771 C 137.890 44.898,137.350 45.233,136.800 45.516 C 135.721 46.071,129.144 50.937,126.082 53.446 C 121.752 56.994,115.050 63.730,111.204 68.400 C 108.113 72.153,108.000 72.297,106.814 74.000 C 106.277 74.770,105.726 75.490,105.589 75.600 C 103.635 77.168,92.800 97.163,92.800 99.201 C 92.800 99.426,92.641 99.923,92.447 100.305 C 92.252 100.687,91.871 101.540,91.600 102.200 C 91.329 102.860,90.948 103.713,90.753 104.095 C 90.559 104.477,90.400 105.141,90.400 105.571 C 90.400 106.001,90.241 106.451,90.046 106.571 C 89.851 106.692,89.596 107.287,89.479 107.895 C 89.362 108.503,89.085 109.630,88.865 110.400 C 88.644 111.170,88.172 112.970,87.816 114.400 C 87.459 115.830,87.008 117.630,86.812 118.400 C 86.616 119.170,86.259 121.104,86.019 122.698 C 85.778 124.292,85.365 126.812,85.100 128.298 C 84.424 132.083,84.439 152.412,85.121 156.600 C 86.540 165.325,86.896 167.067,88.454 172.900 C 89.358 176.283,89.704 177.412,90.049 178.095 C 90.242 178.477,90.400 179.064,90.400 179.400 C 90.400 179.736,90.559 180.323,90.753 180.705 C 91.137 181.459,91.409 182.115,93.159 186.500 C 94.978 191.058,97.728 196.547,100.722 201.600 C 101.960 203.690,103.115 205.460,103.287 205.533 C 103.459 205.607,103.600 205.888,103.600 206.158 C 103.600 206.428,103.922 206.998,104.317 207.425 C 104.711 207.851,105.647 209.100,106.398 210.200 C 107.148 211.300,107.951 212.396,108.181 212.637 C 108.411 212.877,109.050 213.680,109.600 214.421 C 113.267 219.365,122.672 228.716,128.600 233.312 C 132.918 236.659,137.804 240.000,138.382 240.000 C 138.612 240.000,138.800 240.152,138.800 240.337 C 138.800 240.523,139.655 241.105,140.700 241.632 C 141.745 242.158,142.690 242.682,142.800 242.795 C 143.297 243.305,149.637 246.566,153.358 248.225 C 156.688 249.710,163.803 252.303,167.100 253.233 C 167.815 253.435,169.075 253.794,169.900 254.030 C 172.074 254.654,176.600 255.610,181.200 256.418 C 193.280 258.539,211.795 258.190,223.300 255.624 C 224.345 255.391,225.965 255.034,226.900 254.830 C 227.835 254.627,229.275 254.267,230.100 254.030 C 230.925 253.794,232.185 253.438,232.900 253.241 C 236.323 252.294,242.710 249.978,246.200 248.417 C 250.813 246.354,256.606 243.395,257.200 242.799 C 257.310 242.689,257.940 242.333,258.600 242.008 C 267.134 237.806,283.701 223.433,290.400 214.419 C 290.950 213.679,291.589 212.877,291.819 212.637 C 292.049 212.396,292.852 211.300,293.602 210.200 C 294.353 209.100,295.289 207.851,295.683 207.425 C 296.078 206.998,296.400 206.428,296.400 206.158 C 296.400 205.888,296.541 205.607,296.713 205.533 C 297.163 205.342,301.195 198.425,303.320 194.200 C 305.159 190.544,306.371 187.830,307.654 184.500 C 307.844 184.005,308.162 183.195,308.360 182.700 C 308.557 182.205,308.936 181.170,309.200 180.400 C 309.464 179.630,309.822 178.640,309.995 178.200 C 310.570 176.736,312.261 170.405,313.148 166.400 C 313.551 164.579,313.935 162.408,314.879 156.600 C 315.216 154.527,315.400 149.524,315.400 142.400 C 315.400 135.276,315.216 130.273,314.879 128.200 C 313.444 119.377,313.223 118.296,311.513 111.800 C 310.688 108.667,310.297 107.391,309.951 106.705 C 309.758 106.323,309.600 105.736,309.600 105.400 C 309.600 105.064,309.441 104.477,309.247 104.095 C 309.052 103.713,308.671 102.860,308.400 102.200 C 308.129 101.540,307.748 100.687,307.553 100.305 C 307.359 99.923,307.200 99.417,307.200 99.180 C 307.200 98.760,305.991 96.047,303.467 90.800 C 301.367 86.435,295.382 76.393,294.407 75.600 C 294.272 75.490,293.723 74.770,293.186 74.000 C 291.995 72.290,291.877 72.139,288.792 68.400 C 284.611 63.331,278.899 57.598,273.651 53.200 C 270.391 50.468,263.065 45.218,262.500 45.208 C 262.225 45.204,262.000 45.065,262.000 44.899 C 262.000 44.734,261.145 44.153,260.100 43.609 C 259.055 43.065,258.110 42.525,258.000 42.410 C 257.462 41.845,249.379 37.733,244.764 35.675 C 237.531 32.449,223.982 28.792,215.600 27.801 C 207.948 26.897,198.385 26.677,190.600 27.227 M213.200 28.188 C 235.838 31.048,254.352 38.736,271.702 52.483 C 277.117 56.773,286.395 66.047,289.694 70.465 C 290.296 71.271,291.028 72.171,291.321 72.465 C 292.862 74.011,299.719 84.924,302.212 89.800 C 306.010 97.227,310.800 109.585,310.800 111.955 C 310.800 112.394,310.961 112.852,311.158 112.974 C 311.355 113.095,311.610 113.871,311.725 114.697 C 311.840 115.524,312.132 117.010,312.372 118.000 C 313.900 124.289,314.429 129.399,314.667 140.200 C 314.878 149.720,314.620 154.549,313.598 160.200 C 313.399 161.300,313.028 163.370,312.774 164.800 C 312.519 166.230,312.151 167.985,311.956 168.700 C 311.760 169.415,311.444 170.585,311.254 171.300 C 303.541 200.287,283.950 226.631,259.618 240.738 C 256.511 242.539,255.366 243.158,251.361 245.202 C 231.110 255.537,204.453 259.740,182.800 256.011 C 181.590 255.802,179.520 255.459,178.200 255.248 C 139.961 249.130,103.476 217.308,91.177 179.347 C 90.473 177.176,89.761 175.040,89.595 174.600 C 89.215 173.598,88.513 170.980,88.201 169.400 C 88.071 168.740,87.790 167.480,87.577 166.600 C 87.100 164.626,86.475 161.094,85.949 157.400 C 85.306 152.879,85.049 134.293,85.575 130.400 C 86.344 124.716,86.844 121.479,87.211 119.800 C 87.403 118.920,87.772 117.210,88.030 116.000 C 88.288 114.790,88.636 113.350,88.803 112.800 C 88.970 112.250,89.329 110.990,89.599 110.000 C 89.870 109.010,90.242 107.840,90.425 107.400 C 90.609 106.960,91.022 105.788,91.342 104.796 C 93.414 98.384,99.070 86.504,102.352 81.671 C 103.258 80.336,104.000 79.069,104.000 78.855 C 104.000 78.642,104.147 78.407,104.328 78.333 C 104.508 78.260,105.439 77.030,106.398 75.600 C 107.356 74.170,108.248 72.910,108.380 72.800 C 108.513 72.690,109.244 71.790,110.006 70.800 C 118.774 59.409,132.740 47.836,146.200 40.808 C 147.740 40.004,149.360 39.149,149.800 38.907 C 150.240 38.666,151.680 37.984,153.000 37.391 C 163.706 32.586,173.549 29.935,187.800 28.020 C 192.030 27.452,208.220 27.558,213.200 28.188 M235.107 67.890 C 235.826 67.979,236.906 67.977,237.507 67.886 C 238.108 67.795,237.520 67.722,236.200 67.724 C 234.880 67.726,234.388 67.801,235.107 67.890 M213.337 97.400 C 213.339 99.160,213.409 99.830,213.493 98.889 C 213.578 97.949,213.577 96.509,213.491 95.689 C 213.405 94.870,213.336 95.640,213.337 97.400 M245.781 115.700 L 244.200 117.400 245.900 115.819 C 247.481 114.348,247.784 114.000,247.481 114.000 C 247.416 114.000,246.651 114.765,245.781 115.700 M220.400 117.000 C 221.146 117.770,221.847 118.400,221.957 118.400 C 222.067 118.400,221.546 117.770,220.800 117.000 C 220.054 116.230,219.353 115.600,219.243 115.600 C 219.133 115.600,219.654 116.230,220.400 117.000 M282.600 132.800 C 283.459 133.680,284.252 134.400,284.362 134.400 C 284.472 134.400,283.859 133.680,283.000 132.800 C 282.141 131.920,281.348 131.200,281.238 131.200 C 281.128 131.200,281.741 131.920,282.600 132.800 M116.778 133.100 L 115.400 134.600 116.900 133.222 C 117.725 132.463,118.400 131.788,118.400 131.722 C 118.400 131.416,118.062 131.704,116.778 133.100 M198.700 135.489 C 199.415 135.578,200.585 135.578,201.300 135.489 C 202.015 135.401,201.430 135.328,200.000 135.328 C 198.570 135.328,197.985 135.401,198.700 135.489 M253.301 151.000 C 253.305 151.880,253.387 152.193,253.483 151.695 C 253.579 151.198,253.575 150.478,253.475 150.095 C 253.375 149.713,253.296 150.120,253.301 151.000 M281.178 163.900 L 279.800 165.400 281.300 164.022 C 282.696 162.738,282.984 162.400,282.678 162.400 C 282.612 162.400,281.937 163.075,281.178 163.900 M130.105 169.087 C 130.714 169.179,131.614 169.177,132.105 169.082 C 132.597 168.987,132.100 168.911,131.000 168.914 C 129.900 168.917,129.497 168.995,130.105 169.087 " stroke="none" fill="#89c6ec" fill-rule="evenodd"></path></g></svg>