<!-- Source: https://www.flaticon.com/free-icon/location_2934709?related_id=2954534&origin=search -->
<svg id="svg" version="1.1" xmlns="http://www.w3.org/2000/svg" xmlns:xlink="http://www.w3.org/1999/xlink" width="48" height="48" viewBox="0, 0, 400,400"><g id="svgg"><path id="path0" d="M189.600 27.626 C 183.208 28.222,175.220 29.660,169.900 31.173 C 169.075 31.408,167.815 31.762,167.100 31.959 C 126.519 43.179,93.666 80.269,86.461 123.000 C 85.204 130.455,85.030 132.807,85.030 142.400 C 85.030 151.993,85.204 154.345,86.461 161.800 C 93.552 203.854,126.602 241.564,165.900 252.440 C 166.615 252.638,167.785 252.969,168.500 253.176 C 183.912 257.632,203.943 258.732,219.200 255.960 C 227.932 254.374,237.351 251.733,242.600 249.399 C 243.260 249.106,244.610 248.552,245.600 248.168 C 246.590 247.784,249.754 246.265,252.631 244.792 C 283.434 229.024,305.997 199.385,312.764 165.800 C 314.642 156.482,314.962 153.071,314.962 142.400 C 314.962 132.824,314.783 130.373,313.539 123.000 C 308.831 95.081,292.235 67.392,270.579 51.325 C 265.206 47.339,263.267 46.012,259.600 43.811 C 252.244 39.395,244.178 35.665,236.168 32.976 C 222.016 28.226,204.612 26.226,189.600 27.626 M168.616 68.217 C 176.990 70.384,183.411 78.601,186.345 90.906 C 186.921 93.319,186.936 101.185,186.370 103.354 C 183.980 112.501,180.389 117.681,174.600 120.331 C 156.845 128.461,138.442 100.990,147.652 80.104 C 148.064 79.172,148.400 78.307,148.400 78.182 C 148.400 77.664,151.621 73.305,152.860 72.147 C 157.185 68.105,162.785 66.708,168.616 68.217 M239.010 68.036 C 253.217 70.662,259.495 91.431,251.137 108.149 C 237.280 135.864,206.155 118.045,214.893 87.400 C 218.571 74.503,228.943 66.175,239.010 68.036 M132.337 129.417 C 148.943 135.200,151.921 160.865,136.800 167.887 C 125.716 173.034,111.600 161.256,111.600 146.859 C 111.600 143.688,112.143 141.330,113.733 137.600 C 116.605 130.863,125.392 126.998,132.337 129.417 M277.172 129.289 C 285.007 131.970,290.543 143.247,288.047 151.440 C 287.852 152.078,287.456 153.410,287.165 154.400 C 283.943 165.381,271.771 172.127,263.025 167.780 C 248.071 160.348,251.169 136.372,268.000 129.276 C 269.391 128.689,275.445 128.698,277.172 129.289 M203.723 135.637 C 214.340 137.252,220.763 143.526,231.767 163.031 C 234.134 167.228,237.559 172.659,239.377 175.099 C 245.724 183.618,247.983 190.235,247.505 198.898 C 246.614 215.011,233.711 221.170,215.400 214.224 C 202.001 209.141,198.436 209.109,185.348 213.953 C 179.163 216.243,175.131 217.189,171.600 217.180 C 151.502 217.125,145.748 195.066,160.623 175.099 C 162.441 172.659,165.866 167.228,168.233 163.031 C 181.106 140.212,189.780 133.517,203.723 135.637 " stroke="none" fill="#ebf3f3" fill-rule="evenodd"></path><path id="path1" d="M159.428 68.859 C 141.991 74.752,141.452 106.858,158.600 118.217 C 161.009 119.812,163.429 120.696,166.267 121.016 C 182.664 122.865,191.948 100.212,182.504 81.401 C 177.360 71.156,167.879 66.002,159.428 68.859 M232.885 68.604 C 214.626 73.060,207.421 103.310,221.387 116.884 C 235.916 131.005,258.319 109.884,253.810 86.316 C 251.442 73.940,242.396 66.284,232.885 68.604 M122.761 129.977 C 108.264 135.502,109.257 159.796,124.270 166.907 C 126.781 168.096,127.321 168.200,131.000 168.200 C 136.472 168.200,138.976 166.919,142.810 162.157 C 146.280 157.847,147.039 148.050,144.363 142.104 C 143.943 141.172,143.600 140.304,143.600 140.176 C 143.600 139.571,140.870 135.990,139.042 134.198 C 134.558 129.801,127.812 128.052,122.761 129.977 M268.170 129.949 C 264.326 131.261,260.877 133.783,258.802 136.800 C 258.272 137.570,257.737 138.290,257.614 138.400 C 256.924 139.014,255.397 142.778,254.563 145.920 C 253.620 149.469,254.080 157.013,255.314 158.247 C 255.471 158.405,255.600 158.783,255.600 159.089 C 255.600 160.184,258.806 164.336,260.759 165.770 C 270.858 173.183,284.866 165.161,287.480 150.466 C 289.845 137.180,279.424 126.108,268.170 129.949 M194.800 136.383 C 194.250 136.559,192.990 136.941,192.000 137.233 C 187.342 138.604,182.201 142.709,177.946 148.453 C 177.071 149.634,176.096 150.917,175.778 151.305 C 175.460 151.692,175.200 152.110,175.200 152.233 C 175.200 152.355,174.689 153.208,174.063 154.128 C 173.438 155.048,172.385 156.790,171.722 158.000 C 167.071 166.488,164.383 170.997,162.181 174.000 C 161.133 175.430,160.156 176.690,160.011 176.800 C 157.264 178.882,153.499 188.702,153.034 195.000 C 151.608 214.310,168.997 222.538,188.895 211.969 C 189.277 211.766,189.941 211.600,190.371 211.600 C 190.801 211.600,191.252 211.440,191.373 211.244 C 191.773 210.597,194.531 210.293,200.000 210.293 C 205.469 210.293,208.227 210.597,208.627 211.244 C 208.748 211.440,209.199 211.600,209.629 211.600 C 210.059 211.600,210.723 211.766,211.105 211.969 C 217.715 215.480,228.762 217.397,234.200 215.978 C 239.449 214.608,244.111 210.445,245.599 205.800 C 245.881 204.920,246.288 203.706,246.503 203.103 C 246.719 202.499,246.884 199.799,246.870 197.103 C 246.847 192.546,246.597 190.909,245.250 186.493 C 244.384 183.653,241.320 178.102,239.718 176.471 C 238.031 174.752,232.284 165.606,229.997 161.000 C 229.669 160.340,229.311 159.710,229.201 159.600 C 229.006 159.406,228.819 159.087,227.116 156.045 C 226.670 155.250,225.967 154.122,225.553 153.538 C 225.139 152.954,224.800 152.294,224.800 152.072 C 224.800 151.849,224.655 151.607,224.477 151.533 C 224.299 151.460,223.542 150.500,222.796 149.400 C 222.049 148.300,221.249 147.197,221.019 146.948 C 215.269 140.745,212.227 138.475,208.000 137.235 C 207.010 136.944,205.678 136.548,205.040 136.353 C 203.620 135.921,196.178 135.942,194.800 136.383 " stroke="none" fill="#3c5c6c" fill-rule="evenodd"></path><path id="path2" d="M181.900 0.273 C 180.195 0.361,178.800 0.606,178.800 0.817 C 178.800 1.028,177.720 1.200,176.400 1.200 C 175.067 1.200,174.000 1.378,174.000 1.600 C 174.000 1.820,173.100 2.000,172.000 2.000 C 170.900 2.000,170.000 2.162,170.000 2.360 C 170.000 2.558,169.145 2.831,168.100 2.968 C 163.381 3.584,162.800 3.702,162.800 4.040 C 162.800 4.238,162.361 4.400,161.824 4.400 C 161.287 4.400,160.736 4.580,160.600 4.800 C 160.464 5.020,159.733 5.200,158.976 5.200 C 158.219 5.200,157.600 5.380,157.600 5.600 C 157.600 5.820,157.060 6.000,156.400 6.000 C 155.740 6.000,155.200 6.180,155.200 6.400 C 155.200 6.620,154.660 6.800,154.000 6.800 C 153.340 6.800,152.800 6.980,152.800 7.200 C 152.800 7.420,152.260 7.600,151.600 7.600 C 150.940 7.600,150.400 7.760,150.400 7.955 C 150.400 8.151,149.728 8.437,148.907 8.591 C 148.086 8.745,146.702 9.215,145.832 9.636 C 144.962 10.056,143.924 10.400,143.525 10.400 C 143.126 10.400,142.800 10.580,142.800 10.800 C 142.800 11.020,142.440 11.200,142.000 11.200 C 141.560 11.200,141.200 11.380,141.200 11.600 C 141.200 11.820,140.840 12.000,140.400 12.000 C 139.960 12.000,139.600 12.158,139.600 12.350 C 139.600 12.542,139.082 12.804,138.448 12.930 C 137.815 13.057,137.018 13.440,136.677 13.780 C 136.336 14.121,135.774 14.400,135.429 14.400 C 135.083 14.400,134.800 14.580,134.800 14.800 C 134.800 15.020,134.440 15.200,134.000 15.200 C 133.560 15.200,133.200 15.380,133.200 15.600 C 133.200 15.820,132.840 16.000,132.400 16.000 C 131.960 16.000,131.600 16.180,131.600 16.400 C 131.600 16.620,131.240 16.800,130.800 16.800 C 130.360 16.800,130.000 16.980,130.000 17.200 C 130.000 17.420,129.722 17.600,129.383 17.600 C 129.044 17.600,128.380 17.960,127.908 18.400 C 127.436 18.840,126.813 19.200,126.525 19.200 C 126.236 19.200,126.000 19.380,126.000 19.600 C 126.000 19.820,125.770 20.000,125.488 20.000 C 125.207 20.000,124.717 20.360,124.400 20.800 C 124.083 21.240,123.503 21.600,123.112 21.600 C 122.720 21.600,122.400 21.780,122.400 22.000 C 122.400 22.220,122.164 22.400,121.875 22.400 C 121.587 22.400,120.964 22.760,120.492 23.200 C 120.020 23.640,119.438 24.000,119.200 24.000 C 118.962 24.000,118.369 24.375,117.883 24.834 C 117.397 25.293,116.472 25.944,115.827 26.282 C 115.182 26.620,114.102 27.414,113.427 28.046 C 112.752 28.679,112.068 29.197,111.907 29.198 C 111.558 29.200,109.920 30.628,106.977 33.496 C 105.794 34.648,104.619 35.638,104.367 35.696 C 103.762 35.833,93.575 45.936,92.800 47.166 C 92.470 47.691,91.435 48.898,90.500 49.849 C 89.565 50.801,88.800 51.778,88.800 52.021 C 88.800 52.264,88.080 53.154,87.200 54.000 C 86.320 54.846,85.600 55.782,85.600 56.080 C 85.600 56.379,85.240 56.883,84.800 57.200 C 84.360 57.517,84.000 57.967,84.000 58.200 C 84.000 58.433,83.640 58.883,83.200 59.200 C 82.760 59.517,82.400 60.007,82.400 60.288 C 82.400 60.570,82.220 60.800,82.000 60.800 C 81.780 60.800,81.600 60.988,81.600 61.217 C 81.600 61.446,81.240 62.020,80.800 62.492 C 80.360 62.964,80.000 63.587,80.000 63.875 C 80.000 64.164,79.842 64.400,79.649 64.400 C 79.455 64.400,79.073 64.940,78.800 65.600 C 78.527 66.260,78.145 66.800,77.951 66.800 C 77.758 66.800,77.600 67.145,77.600 67.567 C 77.600 67.988,77.443 68.393,77.251 68.467 C 76.809 68.635,74.800 72.596,74.800 73.298 C 74.800 73.587,74.440 74.083,74.000 74.400 C 73.560 74.717,73.196 75.252,73.191 75.588 C 73.186 75.925,72.830 76.650,72.400 77.200 C 71.970 77.750,71.614 78.425,71.609 78.700 C 71.604 78.975,71.420 79.200,71.200 79.200 C 70.980 79.200,70.800 79.650,70.800 80.200 C 70.800 80.750,70.620 81.200,70.400 81.200 C 70.180 81.200,70.000 81.650,70.000 82.200 C 70.000 82.750,69.820 83.200,69.600 83.200 C 69.380 83.200,69.200 83.560,69.200 84.000 C 69.200 84.440,69.020 84.800,68.800 84.800 C 68.580 84.800,68.400 85.160,68.400 85.600 C 68.400 86.040,68.220 86.400,68.000 86.400 C 67.780 86.400,67.600 86.940,67.600 87.600 C 67.600 88.260,67.420 88.800,67.200 88.800 C 66.980 88.800,66.800 89.160,66.800 89.600 C 66.800 90.040,66.620 90.400,66.400 90.400 C 66.180 90.400,66.000 90.839,66.000 91.376 C 66.000 91.913,65.820 92.464,65.600 92.600 C 65.380 92.736,65.200 93.276,65.200 93.800 C 65.200 94.324,65.020 94.864,64.800 95.000 C 64.580 95.136,64.400 95.687,64.400 96.224 C 64.400 96.761,64.220 97.200,64.000 97.200 C 63.780 97.200,63.600 97.740,63.600 98.400 C 63.600 99.060,63.420 99.600,63.200 99.600 C 62.980 99.600,62.800 100.140,62.800 100.800 C 62.800 101.460,62.620 102.000,62.400 102.000 C 62.180 102.000,62.000 102.720,62.000 103.600 C 62.000 104.480,61.840 105.200,61.644 105.200 C 61.448 105.200,61.186 105.785,61.063 106.500 C 60.939 107.215,60.727 108.430,60.592 109.200 C 60.456 109.970,60.188 110.960,59.995 111.400 C 59.803 111.840,59.554 112.920,59.443 113.800 C 59.332 114.680,59.065 116.390,58.850 117.600 C 58.634 118.810,58.445 121.105,58.429 122.700 C 58.413 124.347,58.227 125.600,58.000 125.600 C 57.757 125.600,57.600 127.400,57.600 130.200 C 57.600 133.000,57.443 134.800,57.200 134.800 C 56.946 134.800,56.800 137.800,56.800 143.000 C 56.800 148.200,56.946 151.200,57.200 151.200 C 57.448 151.200,57.600 153.400,57.600 157.000 C 57.600 160.190,57.752 162.800,57.938 162.800 C 58.125 162.800,58.400 165.521,58.550 168.848 C 58.700 172.174,58.998 175.222,59.211 175.621 C 59.425 176.021,59.600 177.249,59.600 178.350 C 59.600 179.452,59.780 180.464,60.000 180.600 C 60.220 180.736,60.400 181.726,60.400 182.800 C 60.400 183.874,60.580 184.864,60.800 185.000 C 61.020 185.136,61.200 186.011,61.200 186.944 C 61.200 187.877,61.371 188.811,61.581 189.021 C 61.790 189.230,62.007 190.076,62.063 190.901 C 62.118 191.725,62.307 192.400,62.482 192.400 C 62.657 192.400,62.800 193.120,62.800 194.000 C 62.800 194.880,62.980 195.600,63.200 195.600 C 63.420 195.600,63.600 196.219,63.600 196.976 C 63.600 197.733,63.780 198.464,64.000 198.600 C 64.220 198.736,64.400 199.557,64.400 200.424 C 64.400 201.291,64.580 202.000,64.800 202.000 C 65.020 202.000,65.200 202.540,65.200 203.200 C 65.200 203.860,65.341 204.400,65.513 204.400 C 65.685 204.400,65.864 204.860,65.910 205.421 C 65.957 205.983,66.171 206.773,66.388 207.177 C 66.604 207.581,66.823 208.471,66.875 209.155 C 66.927 209.840,67.112 210.400,67.285 210.400 C 67.458 210.400,67.600 210.839,67.600 211.376 C 67.600 211.913,67.780 212.464,68.000 212.600 C 68.220 212.736,68.400 213.276,68.400 213.800 C 68.400 214.324,68.580 214.864,68.800 215.000 C 69.020 215.136,69.200 215.777,69.200 216.424 C 69.200 217.071,69.380 217.600,69.600 217.600 C 69.820 217.600,70.000 218.140,70.000 218.800 C 70.000 219.460,70.180 220.000,70.400 220.000 C 70.620 220.000,70.800 220.439,70.800 220.976 C 70.800 221.513,70.980 222.064,71.200 222.200 C 71.420 222.336,71.600 222.897,71.600 223.447 C 71.600 224.012,71.774 224.340,72.000 224.200 C 72.227 224.060,72.400 224.396,72.400 224.976 C 72.400 225.539,72.580 226.000,72.800 226.000 C 73.020 226.000,73.200 226.540,73.200 227.200 C 73.200 227.860,73.380 228.400,73.600 228.400 C 73.820 228.400,74.000 228.839,74.000 229.376 C 74.000 229.913,74.180 230.464,74.400 230.600 C 74.620 230.736,74.800 231.197,74.800 231.624 C 74.800 232.051,74.974 232.400,75.187 232.400 C 75.401 232.400,75.480 232.647,75.364 232.948 C 75.249 233.250,75.426 233.769,75.758 234.101 C 76.090 234.433,76.255 234.812,76.124 234.943 C 75.993 235.074,76.061 235.410,76.276 235.690 C 76.490 235.971,76.899 236.830,77.184 237.600 C 78.217 240.393,78.601 241.200,78.898 241.200 C 79.064 241.200,79.200 241.650,79.200 242.200 C 79.200 242.750,79.380 243.200,79.600 243.200 C 79.820 243.200,80.000 243.472,80.000 243.805 C 80.000 244.413,80.134 244.739,81.332 247.044 C 81.688 247.728,81.864 248.403,81.723 248.544 C 81.582 248.685,81.677 248.800,81.933 248.800 C 82.190 248.800,82.400 249.160,82.400 249.600 C 82.400 250.040,82.580 250.400,82.800 250.400 C 83.020 250.400,83.200 250.760,83.200 251.200 C 83.200 251.640,83.335 252.001,83.500 252.003 C 83.859 252.007,84.800 253.944,84.800 254.680 C 84.800 254.966,84.968 255.200,85.174 255.200 C 85.380 255.200,85.776 255.830,86.054 256.600 C 86.333 257.370,86.705 258.000,86.880 258.000 C 87.056 258.000,87.200 258.360,87.200 258.800 C 87.200 259.240,87.380 259.600,87.600 259.600 C 87.820 259.600,88.000 259.960,88.000 260.400 C 88.000 260.840,88.180 261.200,88.400 261.200 C 88.620 261.200,88.800 261.560,88.800 262.000 C 88.800 262.440,88.980 262.800,89.200 262.800 C 89.420 262.800,89.600 263.160,89.600 263.600 C 89.600 264.040,89.780 264.400,90.000 264.400 C 90.220 264.400,90.400 264.636,90.400 264.925 C 90.400 265.213,90.760 265.836,91.200 266.308 C 91.640 266.780,92.000 267.357,92.000 267.591 C 92.000 268.137,93.848 271.740,95.186 273.800 C 95.757 274.680,96.474 275.895,96.780 276.500 C 97.085 277.105,97.485 277.600,97.668 277.600 C 97.850 277.600,98.000 277.960,98.000 278.400 C 98.000 278.840,98.180 279.200,98.400 279.200 C 98.620 279.200,98.800 279.541,98.800 279.957 C 98.800 280.374,99.050 280.810,99.356 280.928 C 99.662 281.045,100.169 281.649,100.482 282.271 C 101.237 283.764,102.151 285.351,102.401 285.600 C 102.511 285.710,102.856 286.295,103.168 286.900 C 103.480 287.505,103.885 288.000,104.068 288.000 C 104.250 288.000,104.400 288.191,104.400 288.423 C 104.400 288.786,106.549 291.807,107.229 292.400 C 107.355 292.510,107.576 292.870,107.721 293.200 C 107.865 293.530,108.435 294.520,108.987 295.400 C 109.540 296.280,110.169 297.405,110.386 297.900 C 110.603 298.395,110.975 298.800,111.214 298.800 C 111.452 298.800,111.548 298.961,111.426 299.158 C 111.304 299.355,111.474 299.619,111.803 299.746 C 112.132 299.872,112.704 300.611,113.075 301.388 C 113.445 302.164,113.895 302.800,114.074 302.800 C 114.253 302.800,114.400 303.120,114.400 303.512 C 114.400 303.903,114.760 304.483,115.200 304.800 C 115.640 305.117,116.000 305.527,116.000 305.712 C 116.000 306.089,118.128 308.879,119.508 310.310 C 120.007 310.828,120.294 311.448,120.146 311.688 C 119.985 311.949,120.062 312.009,120.338 311.838 C 120.592 311.681,120.800 311.767,120.800 312.029 C 120.800 312.292,121.149 312.809,121.575 313.178 C 122.001 313.548,122.406 314.099,122.475 314.403 C 122.544 314.707,123.161 315.575,123.847 316.331 C 125.813 318.501,126.402 319.193,126.374 319.300 C 126.248 319.787,127.015 320.800,127.509 320.800 C 127.853 320.800,128.019 320.914,127.880 321.054 C 127.740 321.193,127.935 321.699,128.313 322.179 C 130.130 324.483,132.288 326.983,133.100 327.724 C 133.595 328.175,134.000 328.761,134.000 329.026 C 134.000 329.290,135.170 330.712,136.600 332.185 C 138.030 333.658,139.200 335.017,139.200 335.205 C 139.200 335.393,140.055 336.438,141.100 337.527 C 142.145 338.615,143.720 340.353,144.600 341.388 C 145.480 342.422,147.110 344.198,148.221 345.334 C 149.333 346.470,150.708 348.088,151.278 348.929 C 151.947 349.917,152.389 350.271,152.525 349.929 C 152.667 349.576,152.747 349.630,152.768 350.094 C 152.802 350.834,156.249 354.418,156.595 354.072 C 156.708 353.959,156.800 354.071,156.800 354.321 C 156.800 354.570,160.400 358.377,164.800 362.780 C 169.200 367.183,172.801 370.654,172.803 370.493 C 172.804 370.332,173.163 370.740,173.600 371.400 C 174.037 372.060,174.396 372.493,174.397 372.362 C 174.400 372.095,177.348 374.717,180.622 377.900 C 181.810 379.055,182.997 380.000,183.258 380.000 C 183.519 380.000,183.622 380.111,183.486 380.248 C 183.187 380.546,183.737 381.105,185.600 382.398 C 186.370 382.932,187.450 383.840,188.000 384.415 C 189.513 385.996,191.952 386.400,200.000 386.400 C 208.369 386.400,210.362 386.033,212.381 384.120 C 214.856 381.776,215.062 381.600,215.322 381.600 C 215.463 381.600,216.921 380.295,218.562 378.700 C 221.570 375.778,225.255 372.400,225.434 372.400 C 225.783 372.400,228.400 369.524,228.400 369.140 C 228.400 368.880,228.504 368.771,228.631 368.898 C 228.900 369.167,241.025 357.136,240.900 356.724 C 240.854 356.573,241.173 356.336,241.608 356.197 C 242.044 356.059,242.400 355.658,242.400 355.306 C 242.400 354.955,242.499 354.766,242.620 354.887 C 242.831 355.098,247.200 350.959,247.200 350.548 C 247.200 350.313,248.143 349.277,252.159 345.100 C 253.798 343.395,255.083 342.000,255.016 342.000 C 254.836 342.000,256.737 339.827,258.711 337.777 C 259.651 336.800,260.281 335.995,260.111 335.988 C 259.940 335.981,260.115 335.792,260.500 335.568 C 260.885 335.344,261.200 334.990,261.200 334.783 C 261.200 334.575,262.280 333.308,263.600 331.968 C 264.920 330.627,266.000 329.360,266.000 329.152 C 266.000 328.944,266.585 328.173,267.300 327.440 C 268.015 326.707,269.320 325.160,270.200 324.003 C 271.080 322.846,272.285 321.352,272.878 320.684 C 273.471 320.016,273.921 319.360,273.878 319.227 C 273.797 318.973,274.380 318.199,275.900 316.544 C 276.395 316.005,276.800 315.381,276.800 315.158 C 276.800 314.935,276.980 314.864,277.200 315.000 C 277.420 315.136,277.600 314.877,277.600 314.424 C 277.600 313.971,277.750 313.600,277.932 313.600 C 278.115 313.600,278.502 313.156,278.793 312.614 C 279.083 312.071,279.501 311.739,279.722 311.875 C 279.943 312.012,280.002 311.927,279.854 311.688 C 279.706 311.448,279.993 310.828,280.492 310.310 C 281.775 308.980,284.000 306.100,284.000 305.770 C 284.000 305.618,284.315 305.203,284.700 304.847 C 285.085 304.491,285.739 303.570,286.153 302.800 C 286.567 302.030,287.187 301.175,287.530 300.900 C 287.872 300.625,288.004 300.400,287.822 300.400 C 287.640 300.400,287.965 299.925,288.545 299.345 C 289.125 298.765,289.600 298.045,289.600 297.745 C 289.600 297.445,289.762 297.200,289.961 297.200 C 290.159 297.200,290.511 296.705,290.742 296.100 C 291.322 294.579,292.465 292.727,293.300 291.954 C 293.685 291.598,294.000 291.130,294.000 290.915 C 294.000 290.700,294.360 290.198,294.800 289.800 C 295.240 289.402,295.600 288.834,295.600 288.538 C 295.600 288.242,295.750 288.000,295.932 288.000 C 296.115 288.000,296.520 287.505,296.832 286.900 C 297.144 286.295,297.491 285.710,297.605 285.600 C 297.718 285.490,298.254 284.521,298.795 283.447 C 299.337 282.373,300.100 281.295,300.490 281.051 C 300.881 280.807,301.200 280.291,301.200 279.904 C 301.200 279.517,301.391 279.200,301.624 279.200 C 301.857 279.200,301.950 279.043,301.832 278.852 C 301.714 278.661,302.063 277.986,302.608 277.352 C 303.153 276.718,303.599 276.058,303.600 275.884 C 303.600 275.711,304.230 274.633,305.000 273.490 C 305.770 272.346,306.400 271.170,306.400 270.877 C 306.400 270.583,306.679 270.064,307.020 269.723 C 307.360 269.382,307.741 268.594,307.866 267.972 C 307.990 267.350,308.431 266.534,308.846 266.158 C 309.261 265.783,309.600 265.234,309.600 264.938 C 309.600 264.642,309.780 264.400,310.000 264.400 C 310.220 264.400,310.400 264.040,310.400 263.600 C 310.400 263.160,310.580 262.800,310.800 262.800 C 311.020 262.800,311.200 262.440,311.200 262.000 C 311.200 261.560,311.391 261.200,311.624 261.200 C 311.857 261.200,311.945 261.035,311.820 260.832 C 311.695 260.630,311.864 260.193,312.196 259.861 C 312.528 259.529,312.800 258.974,312.800 258.629 C 312.800 258.283,312.944 258.000,313.120 258.000 C 313.295 258.000,313.667 257.370,313.946 256.600 C 314.224 255.830,314.620 255.200,314.826 255.200 C 315.032 255.200,315.200 254.851,315.200 254.424 C 315.200 253.997,315.380 253.536,315.600 253.400 C 315.820 253.264,316.000 252.803,316.000 252.376 C 316.000 251.949,316.180 251.600,316.400 251.600 C 316.620 251.600,316.800 251.330,316.800 251.000 C 316.800 250.670,316.980 250.400,317.200 250.400 C 317.420 250.400,317.600 250.080,317.600 249.689 C 317.600 249.298,318.140 247.937,318.800 246.665 C 319.460 245.393,320.000 244.093,320.000 243.776 C 320.000 243.459,320.180 243.200,320.400 243.200 C 320.620 243.200,320.800 242.750,320.800 242.200 C 320.800 241.650,320.936 241.200,321.102 241.200 C 321.399 241.200,321.783 240.393,322.816 237.600 C 323.101 236.830,323.510 235.971,323.724 235.690 C 323.939 235.410,324.007 235.074,323.876 234.943 C 323.745 234.812,323.910 234.433,324.242 234.101 C 324.574 233.769,324.751 233.250,324.636 232.948 C 324.520 232.647,324.599 232.400,324.813 232.400 C 325.026 232.400,325.200 232.051,325.200 231.624 C 325.200 231.197,325.380 230.736,325.600 230.600 C 325.820 230.464,326.000 229.913,326.000 229.376 C 326.000 228.839,326.180 228.400,326.400 228.400 C 326.620 228.400,326.800 227.860,326.800 227.200 C 326.800 226.540,326.980 226.000,327.200 226.000 C 327.420 226.000,327.603 225.415,327.606 224.700 C 327.611 223.714,327.706 223.545,328.000 224.000 C 328.303 224.469,328.389 224.366,328.394 223.524 C 328.397 222.932,328.580 222.336,328.800 222.200 C 329.020 222.064,329.200 221.513,329.200 220.976 C 329.200 220.439,329.380 220.000,329.600 220.000 C 329.820 220.000,330.000 219.460,330.000 218.800 C 330.000 218.140,330.180 217.600,330.400 217.600 C 330.620 217.600,330.800 216.959,330.800 216.176 C 330.800 215.329,330.962 214.853,331.200 215.000 C 331.433 215.144,331.600 214.745,331.600 214.047 C 331.600 213.387,331.780 212.736,332.000 212.600 C 332.220 212.464,332.400 211.913,332.400 211.376 C 332.400 210.839,332.542 210.400,332.715 210.400 C 332.888 210.400,333.074 209.818,333.128 209.107 C 333.183 208.395,333.401 207.639,333.613 207.427 C 333.826 207.214,334.000 206.637,334.000 206.144 C 334.000 205.651,334.180 205.136,334.400 205.000 C 334.620 204.864,334.800 204.133,334.800 203.376 C 334.800 202.619,334.980 202.000,335.200 202.000 C 335.420 202.000,335.600 201.291,335.600 200.424 C 335.600 199.557,335.761 198.748,335.958 198.626 C 336.155 198.505,336.425 197.684,336.558 196.803 C 336.691 195.921,336.909 194.481,337.042 193.602 C 337.175 192.723,337.409 192.082,337.562 192.176 C 337.715 192.271,337.885 191.685,337.939 190.875 C 337.994 190.065,338.210 189.230,338.419 189.021 C 338.629 188.811,338.800 187.877,338.800 186.944 C 338.800 186.011,338.980 185.136,339.200 185.000 C 339.420 184.864,339.600 183.874,339.600 182.800 C 339.600 181.726,339.780 180.736,340.000 180.600 C 340.220 180.464,340.400 179.452,340.400 178.350 C 340.400 177.249,340.570 176.031,340.777 175.644 C 340.984 175.256,341.281 172.208,341.436 168.870 C 341.591 165.531,341.872 162.800,342.059 162.800 C 342.247 162.800,342.400 160.100,342.400 156.800 C 342.400 153.067,342.551 150.800,342.800 150.800 C 343.053 150.800,343.200 147.859,343.200 142.776 C 343.200 137.529,343.062 134.838,342.800 135.000 C 342.542 135.160,342.400 133.537,342.400 130.424 C 342.400 127.475,342.245 125.600,342.000 125.600 C 341.773 125.600,341.587 124.347,341.571 122.700 C 341.555 121.105,341.364 118.810,341.147 117.600 C 340.930 116.390,340.656 114.590,340.538 113.600 C 340.419 112.610,340.160 111.629,339.961 111.420 C 339.763 111.211,339.600 110.446,339.600 109.720 C 339.600 108.994,339.420 108.400,339.200 108.400 C 338.980 108.400,338.800 107.680,338.800 106.800 C 338.800 105.920,338.620 105.200,338.400 105.200 C 338.180 105.200,338.000 104.480,338.000 103.600 C 338.000 102.720,337.820 102.000,337.600 102.000 C 337.380 102.000,337.200 101.460,337.200 100.800 C 337.200 100.140,337.020 99.600,336.800 99.600 C 336.580 99.600,336.400 99.060,336.400 98.400 C 336.400 97.740,336.220 97.200,336.000 97.200 C 335.780 97.200,335.600 96.761,335.600 96.224 C 335.600 95.687,335.420 95.136,335.200 95.000 C 334.980 94.864,334.800 94.324,334.800 93.800 C 334.800 93.276,334.620 92.736,334.400 92.600 C 334.180 92.464,334.000 91.913,334.000 91.376 C 334.000 90.839,333.820 90.400,333.600 90.400 C 333.380 90.400,333.200 90.040,333.200 89.600 C 333.200 89.160,333.020 88.800,332.800 88.800 C 332.580 88.800,332.400 88.260,332.400 87.600 C 332.400 86.940,332.220 86.400,332.000 86.400 C 331.780 86.400,331.600 86.040,331.600 85.600 C 331.600 85.160,331.420 84.800,331.200 84.800 C 330.980 84.800,330.800 84.440,330.800 84.000 C 330.800 83.560,330.620 83.200,330.400 83.200 C 330.180 83.200,330.000 82.761,330.000 82.224 C 330.000 81.687,329.820 81.136,329.600 81.000 C 329.380 80.864,329.200 80.403,329.200 79.976 C 329.200 79.549,329.054 79.200,328.875 79.200 C 328.696 79.200,328.302 78.570,328.000 77.800 C 327.698 77.030,327.304 76.400,327.125 76.400 C 326.946 76.400,326.800 76.080,326.800 75.688 C 326.800 75.297,326.440 74.717,326.000 74.400 C 325.560 74.083,325.200 73.587,325.200 73.298 C 325.200 72.596,323.191 68.635,322.749 68.467 C 322.557 68.393,322.400 67.988,322.400 67.567 C 322.400 67.145,322.242 66.800,322.049 66.800 C 321.855 66.800,321.473 66.260,321.200 65.600 C 320.927 64.940,320.545 64.400,320.351 64.400 C 320.158 64.400,320.000 64.164,320.000 63.875 C 320.000 63.587,319.640 62.964,319.200 62.492 C 318.760 62.020,318.400 61.446,318.400 61.217 C 318.400 60.988,318.220 60.800,318.000 60.800 C 317.780 60.800,317.600 60.570,317.600 60.288 C 317.600 60.007,317.240 59.517,316.800 59.200 C 316.360 58.883,316.000 58.433,316.000 58.200 C 316.000 57.967,315.640 57.517,315.200 57.200 C 314.760 56.883,314.400 56.415,314.400 56.160 C 314.400 55.905,313.680 54.955,312.800 54.048 C 311.920 53.141,311.200 52.215,311.200 51.989 C 311.200 51.763,310.435 50.798,309.500 49.844 C 308.565 48.890,307.446 47.590,307.012 46.955 C 305.953 45.401,296.086 35.600,295.582 35.600 C 295.362 35.600,294.213 34.655,293.027 33.500 C 290.039 30.588,288.440 29.200,288.077 29.200 C 287.907 29.200,286.972 28.480,286.000 27.600 C 285.028 26.720,284.078 26.000,283.889 26.000 C 283.701 26.000,282.957 25.550,282.236 25.000 C 281.514 24.450,280.756 24.000,280.551 24.000 C 280.345 24.000,279.917 23.640,279.600 23.200 C 279.283 22.760,278.703 22.400,278.312 22.400 C 277.920 22.400,277.600 22.220,277.600 22.000 C 277.600 21.780,277.280 21.600,276.888 21.600 C 276.497 21.600,275.917 21.240,275.600 20.800 C 275.283 20.360,274.793 20.000,274.512 20.000 C 274.230 20.000,274.000 19.820,274.000 19.600 C 274.000 19.380,273.764 19.200,273.475 19.200 C 273.187 19.200,272.564 18.840,272.092 18.400 C 271.620 17.960,270.956 17.600,270.617 17.600 C 270.278 17.600,270.000 17.420,270.000 17.200 C 270.000 16.980,269.640 16.800,269.200 16.800 C 268.760 16.800,268.400 16.620,268.400 16.400 C 268.400 16.180,268.040 16.000,267.600 16.000 C 267.160 16.000,266.800 15.820,266.800 15.600 C 266.800 15.380,266.440 15.200,266.000 15.200 C 265.560 15.200,265.200 15.020,265.200 14.800 C 265.200 14.580,264.840 14.400,264.400 14.400 C 263.960 14.400,263.600 14.220,263.600 14.000 C 263.600 13.780,263.240 13.600,262.800 13.600 C 262.360 13.600,262.000 13.420,262.000 13.200 C 262.000 12.980,261.640 12.800,261.200 12.800 C 260.760 12.800,260.400 12.620,260.400 12.400 C 260.400 12.180,260.040 12.000,259.600 12.000 C 259.160 12.000,258.800 11.820,258.800 11.600 C 258.800 11.380,258.440 11.200,258.000 11.200 C 257.560 11.200,257.200 11.020,257.200 10.800 C 257.200 10.580,256.928 10.400,256.595 10.400 C 256.262 10.400,255.677 10.226,255.295 10.013 C 254.351 9.486,250.910 8.400,250.186 8.400 C 249.864 8.400,249.600 8.220,249.600 8.000 C 249.600 7.780,249.060 7.600,248.400 7.600 C 247.740 7.600,247.200 7.420,247.200 7.200 C 247.200 6.980,246.660 6.800,246.000 6.800 C 245.340 6.800,244.800 6.620,244.800 6.400 C 244.800 6.180,244.260 6.000,243.600 6.000 C 242.940 6.000,242.400 5.820,242.400 5.600 C 242.400 5.380,241.770 5.200,241.000 5.200 C 240.230 5.200,239.600 5.020,239.600 4.800 C 239.600 4.580,239.060 4.400,238.400 4.400 C 237.740 4.400,237.200 4.220,237.200 4.000 C 237.200 3.780,236.480 3.600,235.600 3.600 C 234.720 3.600,234.000 3.420,234.000 3.200 C 234.000 2.980,233.100 2.800,232.000 2.800 C 230.900 2.800,230.000 2.620,230.000 2.400 C 230.000 2.180,229.100 2.000,228.000 2.000 C 226.900 2.000,226.000 1.820,226.000 1.600 C 226.000 1.380,225.025 1.200,223.833 1.200 C 222.498 1.200,221.605 1.015,221.506 0.718 C 221.346 0.238,189.481 -0.120,181.900 0.273 M213.000 27.799 C 233.806 30.324,255.754 39.095,269.824 50.507 C 270.251 50.853,271.770 52.075,273.200 53.223 C 310.993 83.552,325.133 136.961,307.718 183.600 C 296.017 214.938,267.720 242.017,236.408 251.839 C 235.414 252.151,234.060 252.576,233.400 252.783 C 222.653 256.161,213.486 257.406,199.600 257.376 C 185.905 257.346,179.935 256.522,167.000 252.877 C 139.758 245.198,114.446 224.990,99.517 199.000 C 92.552 186.875,87.726 172.307,85.537 156.800 C 84.847 151.915,84.823 131.731,85.503 127.898 C 85.766 126.412,86.190 123.892,86.445 122.298 C 89.135 105.449,96.923 87.669,108.279 72.454 C 112.079 67.363,123.281 55.849,127.600 52.596 C 129.030 51.519,130.290 50.521,130.400 50.378 C 130.510 50.235,132.760 48.675,135.400 46.909 C 151.867 35.899,167.226 30.270,188.000 27.629 C 192.464 27.062,207.786 27.166,213.000 27.799 " stroke="none" fill="#d54434" fill-rule="evenodd"></path><path id="path3" d="M143.600 385.988 C 143.600 386.215,143.240 386.400,142.800 386.400 C 142.360 386.400,142.000 386.580,142.000 386.800 C 142.000 387.020,141.640 387.200,141.200 387.200 C 140.742 387.200,140.400 387.467,140.400 387.824 C 140.400 388.167,140.220 388.336,140.000 388.200 C 139.780 388.064,139.600 388.323,139.600 388.776 C 139.600 389.229,139.420 389.600,139.200 389.600 C 138.980 389.600,138.800 390.129,138.800 390.776 C 138.800 391.423,138.620 392.064,138.400 392.200 C 138.180 392.336,138.000 392.797,138.000 393.224 C 138.000 393.651,138.180 394.000,138.400 394.000 C 138.620 394.000,138.800 394.644,138.800 395.431 C 138.800 396.583,139.119 397.169,140.433 398.431 L 142.065 400.000 200.000 400.000 L 257.935 400.000 259.567 398.431 C 260.846 397.203,261.200 396.570,261.200 395.511 C 261.200 394.768,261.420 393.940,261.690 393.670 C 262.077 393.283,262.077 393.015,261.690 392.395 C 261.420 391.964,261.200 391.158,261.200 390.605 C 261.200 390.052,261.064 389.600,260.898 389.600 C 260.731 389.600,260.356 389.060,260.064 388.400 C 259.741 387.669,259.233 387.200,258.766 387.200 C 258.345 387.200,258.000 387.020,258.000 386.800 C 258.000 386.580,257.640 386.400,257.200 386.400 C 256.760 386.400,256.400 386.215,256.400 385.988 C 256.400 385.707,248.710 385.645,232.300 385.792 C 219.045 385.910,204.510 386.007,200.000 386.007 C 195.490 386.007,180.955 385.910,167.700 385.792 C 151.290 385.645,143.600 385.707,143.600 385.988 " stroke="none" fill="#842c34" fill-rule="evenodd"></path><path id="path4" d="M190.900 27.476 C 191.285 27.576,191.915 27.576,192.300 27.476 C 192.685 27.375,192.370 27.293,191.600 27.293 C 190.830 27.293,190.515 27.375,190.900 27.476 M207.700 27.476 C 208.085 27.576,208.715 27.576,209.100 27.476 C 209.485 27.375,209.170 27.293,208.400 27.293 C 207.630 27.293,207.315 27.375,207.700 27.476 M159.450 68.255 C 155.329 69.520,148.400 75.745,148.400 78.182 C 148.400 78.307,148.064 79.172,147.652 80.104 C 138.442 100.990,156.845 128.461,174.600 120.331 C 180.389 117.681,183.980 112.501,186.370 103.354 C 186.936 101.185,186.921 93.319,186.345 90.906 C 182.356 74.179,171.081 64.683,159.450 68.255 M233.038 68.023 C 217.827 70.571,208.297 95.093,216.381 110.887 C 222.980 123.781,236.151 125.727,246.157 115.286 C 260.633 100.181,256.254 71.223,239.010 68.036 C 236.388 67.551,235.861 67.550,233.038 68.023 M168.660 68.785 C 176.074 71.219,181.940 77.710,184.578 86.401 C 192.263 111.722,172.317 131.461,155.263 115.411 C 137.290 98.495,147.794 61.935,168.660 68.785 M238.480 68.422 C 253.886 71.485,259.574 94.590,248.930 110.863 C 235.843 130.869,212.563 120.349,214.154 95.149 C 215.151 79.376,227.168 66.172,238.480 68.422 M122.584 129.348 C 120.223 130.226,117.247 132.466,115.712 134.521 C 114.254 136.473,113.905 137.106,112.907 139.600 C 109.888 147.146,112.260 157.085,118.589 163.409 C 122.685 167.502,126.075 168.989,131.192 168.941 C 150.999 168.753,151.941 136.244,132.337 129.417 C 130.302 128.708,124.417 128.666,122.584 129.348 M268.000 129.276 C 251.169 136.372,248.071 160.348,263.025 167.780 C 271.771 172.127,283.943 165.381,287.165 154.400 C 287.456 153.410,287.852 152.078,288.047 151.440 C 289.413 146.956,287.715 138.933,284.466 134.526 C 281.109 129.971,272.706 127.291,268.000 129.276 M131.240 129.632 C 136.123 131.184,143.600 137.563,143.600 140.176 C 143.600 140.304,143.943 141.172,144.363 142.104 C 147.039 148.050,146.280 157.847,142.810 162.157 C 138.976 166.919,136.472 168.200,131.000 168.200 C 111.659 168.200,104.888 136.789,122.761 129.977 C 124.868 129.174,129.239 128.996,131.240 129.632 M276.600 129.815 C 286.877 132.929,290.894 145.930,285.168 157.542 C 279.033 169.981,264.214 172.329,257.184 161.976 C 256.313 160.693,255.600 159.394,255.600 159.089 C 255.600 158.783,255.471 158.405,255.314 158.247 C 254.080 157.013,253.620 149.469,254.563 145.920 C 255.397 142.778,256.924 139.014,257.614 138.400 C 257.737 138.290,258.272 137.570,258.802 136.800 C 262.801 130.986,270.497 127.965,276.600 129.815 M314.893 136.000 C 314.893 136.770,314.975 137.085,315.076 136.700 C 315.176 136.315,315.176 135.685,315.076 135.300 C 314.975 134.915,314.893 135.230,314.893 136.000 M195.217 135.812 C 185.399 137.588,178.873 144.171,168.233 163.031 C 165.866 167.228,162.441 172.659,160.623 175.099 C 145.748 195.066,151.502 217.125,171.600 217.180 C 175.131 217.189,179.163 216.243,185.348 213.953 C 198.436 209.109,202.001 209.141,215.400 214.224 C 233.711 221.170,246.614 215.011,247.505 198.898 C 247.983 190.235,245.724 183.618,239.377 175.099 C 237.559 172.659,234.134 167.228,231.767 163.031 C 218.603 139.698,209.834 133.167,195.217 135.812 M205.040 136.353 C 205.678 136.548,207.010 136.944,208.000 137.235 C 212.227 138.475,215.269 140.745,221.019 146.948 C 221.249 147.197,222.049 148.300,222.796 149.400 C 223.542 150.500,224.299 151.460,224.477 151.533 C 224.655 151.607,224.800 151.849,224.800 152.072 C 224.800 152.294,225.139 152.954,225.553 153.538 C 225.967 154.122,226.670 155.250,227.116 156.045 C 228.819 159.087,229.006 159.406,229.201 159.600 C 229.311 159.710,229.669 160.340,229.997 161.000 C 232.284 165.606,238.031 174.752,239.718 176.471 C 241.320 178.102,244.384 183.653,245.250 186.493 C 246.597 190.909,246.847 192.546,246.870 197.103 C 246.884 199.799,246.719 202.499,246.503 203.103 C 246.288 203.706,245.881 204.920,245.599 205.800 C 244.111 210.445,239.449 214.608,234.200 215.978 C 228.762 217.397,217.715 215.480,211.105 211.969 C 210.723 211.766,210.059 211.600,209.629 211.600 C 209.199 211.600,208.748 211.440,208.627 211.244 C 208.227 210.597,205.469 210.293,200.000 210.293 C 194.531 210.293,191.773 210.597,191.373 211.244 C 191.252 211.440,190.801 211.600,190.371 211.600 C 189.941 211.600,189.277 211.766,188.895 211.969 C 177.908 217.805,164.550 217.850,158.600 212.071 C 154.286 207.881,152.489 202.372,153.034 195.000 C 153.499 188.702,157.264 178.882,160.011 176.800 C 160.156 176.690,161.133 175.430,162.181 174.000 C 164.383 170.997,167.071 166.488,171.722 158.000 C 172.385 156.790,173.438 155.048,174.063 154.128 C 174.689 153.208,175.200 152.355,175.200 152.233 C 175.200 152.110,175.460 151.692,175.778 151.305 C 176.096 150.917,177.071 149.634,177.946 148.453 C 182.201 142.709,187.342 138.604,192.000 137.233 C 192.990 136.941,194.250 136.559,194.800 136.383 C 196.178 135.942,203.620 135.921,205.040 136.353 M314.893 148.800 C 314.893 149.570,314.975 149.885,315.076 149.500 C 315.176 149.115,315.176 148.485,315.076 148.100 C 314.975 147.715,314.893 148.030,314.893 148.800 M114.000 219.325 C 114.000 219.394,114.585 219.979,115.300 220.625 L 116.600 221.800 115.425 220.500 C 114.330 219.288,114.000 219.016,114.000 219.325 M284.575 220.500 L 283.400 221.800 284.700 220.625 C 285.415 219.979,286.000 219.394,286.000 219.325 C 286.000 219.016,285.670 219.288,284.575 220.500 M121.200 226.600 C 121.946 227.370,122.647 228.000,122.757 228.000 C 122.867 228.000,122.346 227.370,121.600 226.600 C 120.854 225.830,120.153 225.200,120.043 225.200 C 119.933 225.200,120.454 225.830,121.200 226.600 M278.378 226.700 L 277.000 228.200 278.500 226.822 C 279.325 226.063,280.000 225.388,280.000 225.322 C 280.000 225.016,279.662 225.304,278.378 226.700 " stroke="none" fill="#9099a1" fill-rule="evenodd"></path></g></svg>