<!-- Source: https://www.flaticon.com/free-icon/location_2934709?related_id=2954534&origin=search -->
<svg id="svg" version="1.1" xmlns="http://www.w3.org/2000/svg" xmlns:xlink="http://www.w3.org/1999/xlink" width="48" height="48" viewBox="0, 0, 400,400"><g id="svgg"><path id="path0" d="M185.190 0.134 C 185.075 0.254,183.595 0.390,181.902 0.435 C 180.210 0.479,178.920 0.670,179.036 0.858 C 179.152 1.046,178.167 1.200,176.847 1.200 C 175.527 1.200,174.348 1.361,174.226 1.558 C 174.105 1.755,173.329 2.018,172.503 2.142 C 171.676 2.267,170.280 2.479,169.400 2.612 C 168.520 2.745,167.530 2.962,167.200 3.093 C 166.244 3.472,166.088 3.497,164.376 3.550 C 163.406 3.580,162.852 3.761,163.000 4.000 C 163.144 4.233,162.737 4.400,162.024 4.400 C 161.351 4.400,160.800 4.580,160.800 4.800 C 160.800 5.020,160.386 5.200,159.880 5.200 C 159.374 5.200,158.718 5.425,158.421 5.700 C 157.988 6.102,157.941 6.096,158.183 5.670 C 158.414 5.264,158.311 5.229,157.742 5.518 C 155.490 6.664,153.175 7.565,153.394 7.209 C 153.533 6.984,153.457 6.800,153.224 6.800 C 152.991 6.800,152.800 6.980,152.800 7.200 C 152.800 7.420,152.350 7.600,151.800 7.600 C 151.250 7.600,150.800 7.780,150.800 8.000 C 150.800 8.220,150.434 8.400,149.986 8.400 C 149.538 8.400,148.690 8.715,148.101 9.100 C 147.513 9.485,147.157 9.595,147.311 9.345 C 147.465 9.095,146.925 9.230,146.111 9.645 C 145.297 10.060,144.354 10.406,144.015 10.413 C 143.677 10.420,143.058 10.684,142.641 11.000 C 142.224 11.316,141.729 11.480,141.541 11.364 C 141.353 11.248,141.200 11.343,141.200 11.576 C 141.200 11.809,140.829 12.000,140.376 12.000 C 139.923 12.000,139.664 12.180,139.800 12.400 C 139.939 12.624,139.625 12.800,139.086 12.800 C 138.557 12.800,137.813 13.144,137.432 13.565 C 137.051 13.985,135.955 14.561,134.996 14.844 C 134.036 15.128,133.340 15.504,133.449 15.680 C 133.558 15.856,133.322 16.006,132.924 16.013 C 132.526 16.020,131.858 16.284,131.441 16.600 C 131.024 16.916,130.501 17.062,130.279 16.925 C 130.051 16.784,130.000 16.876,130.162 17.138 C 130.331 17.412,130.193 17.600,129.824 17.600 C 129.481 17.600,129.200 17.791,129.200 18.024 C 129.200 18.257,129.043 18.350,128.852 18.232 C 128.660 18.113,128.097 18.369,127.600 18.800 C 127.103 19.231,126.512 19.469,126.287 19.330 C 126.061 19.190,125.995 19.269,126.140 19.504 C 126.288 19.743,125.875 20.165,125.202 20.463 C 124.541 20.756,124.000 21.110,124.000 21.251 C 124.000 21.392,123.685 21.613,123.300 21.742 C 121.768 22.258,119.971 23.524,120.481 23.729 C 120.766 23.843,120.515 23.951,119.923 23.968 C 119.328 23.986,118.595 24.357,118.287 24.797 C 117.980 25.236,117.614 25.480,117.474 25.340 C 117.333 25.200,117.105 25.381,116.967 25.743 C 116.828 26.104,116.374 26.400,115.957 26.400 C 115.541 26.400,115.200 26.610,115.200 26.867 C 115.200 27.123,115.102 27.235,114.982 27.116 C 114.863 26.996,114.060 27.596,113.198 28.449 C 112.336 29.302,111.344 30.000,110.992 30.000 C 110.640 30.000,110.464 30.180,110.600 30.400 C 110.736 30.620,110.567 30.800,110.224 30.800 C 109.881 30.800,109.600 30.980,109.600 31.200 C 109.600 31.420,109.330 31.600,109.000 31.600 C 108.670 31.600,108.400 31.870,108.400 32.200 C 108.400 32.530,108.222 32.800,108.005 32.800 C 107.788 32.800,106.429 33.970,104.985 35.400 C 103.541 36.830,102.201 38.000,102.007 38.000 C 101.813 38.000,101.540 38.360,101.400 38.800 C 101.260 39.240,100.888 39.600,100.573 39.600 C 100.258 39.600,100.000 39.780,100.000 40.000 C 100.000 40.220,99.799 40.400,99.553 40.400 C 98.962 40.400,96.805 42.884,97.050 43.282 C 97.156 43.452,96.980 43.490,96.660 43.368 C 96.317 43.236,95.776 43.566,95.340 44.173 C 94.933 44.738,94.015 45.876,93.300 46.701 C 92.585 47.525,92.000 48.455,92.000 48.767 C 92.000 49.078,91.889 49.222,91.752 49.086 C 91.397 48.731,90.400 49.826,90.400 50.571 C 90.400 51.137,89.935 51.379,89.100 51.247 C 88.935 51.221,88.800 51.488,88.800 51.840 C 88.800 52.191,88.241 53.001,87.558 53.640 C 86.847 54.304,86.547 54.811,86.858 54.825 C 87.156 54.839,86.995 55.013,86.500 55.212 C 85.981 55.421,85.600 55.918,85.600 56.387 C 85.600 56.834,85.420 57.200,85.200 57.200 C 84.980 57.200,84.800 57.401,84.800 57.647 C 84.800 57.893,84.215 58.631,83.500 59.287 C 82.785 59.943,82.453 60.344,82.762 60.178 C 83.134 59.978,83.227 60.033,83.038 60.338 C 82.881 60.592,82.493 60.800,82.176 60.800 C 81.859 60.800,81.600 60.988,81.600 61.217 C 81.600 61.446,81.240 62.020,80.800 62.492 C 80.360 62.964,80.000 63.688,80.000 64.099 C 80.000 64.511,79.850 64.755,79.668 64.642 C 79.485 64.529,79.094 65.050,78.800 65.800 C 78.506 66.550,78.111 67.069,77.923 66.952 C 77.734 66.836,77.620 66.889,77.669 67.070 C 77.827 67.654,77.159 69.200,76.749 69.200 C 76.531 69.200,76.450 69.357,76.568 69.548 C 76.687 69.740,76.431 70.303,76.000 70.800 C 75.569 71.297,75.313 71.860,75.432 72.052 C 75.550 72.243,75.457 72.400,75.224 72.400 C 74.991 72.400,74.800 72.683,74.800 73.029 C 74.800 73.374,74.528 73.929,74.196 74.261 C 73.864 74.593,73.695 75.030,73.820 75.232 C 73.945 75.435,73.892 75.600,73.702 75.600 C 73.512 75.600,72.871 76.500,72.277 77.600 C 71.683 78.700,71.300 79.600,71.426 79.600 C 71.552 79.600,71.282 80.123,70.827 80.762 C 70.372 81.401,70.000 82.211,70.000 82.562 C 70.000 82.913,69.858 83.200,69.685 83.200 C 69.512 83.200,69.341 83.589,69.305 84.064 C 69.269 84.539,69.042 85.050,68.800 85.200 C 68.558 85.350,68.331 85.861,68.295 86.336 C 68.259 86.811,68.088 87.200,67.915 87.200 C 67.742 87.200,67.600 87.560,67.600 88.000 C 67.600 88.440,67.420 88.800,67.200 88.800 C 66.980 88.800,66.800 89.261,66.800 89.824 C 66.800 90.495,66.641 90.749,66.338 90.562 C 66.082 90.404,65.984 90.450,66.118 90.667 C 66.250 90.882,66.106 91.545,65.796 92.142 C 65.487 92.738,65.419 93.112,65.646 92.971 C 65.924 92.800,65.934 92.959,65.676 93.458 C 65.466 93.866,65.071 94.740,64.800 95.400 C 64.529 96.060,64.148 96.913,63.953 97.295 C 63.759 97.677,63.600 98.442,63.600 98.995 C 63.600 99.548,63.458 100.000,63.285 100.000 C 63.112 100.000,62.941 100.389,62.905 100.864 C 62.869 101.339,62.696 101.834,62.520 101.964 C 62.344 102.094,62.138 102.830,62.061 103.600 C 61.985 104.370,61.783 105.090,61.613 105.200 C 61.443 105.310,61.199 106.030,61.071 106.800 C 60.558 109.883,60.284 111.020,59.951 111.440 C 59.759 111.682,59.663 112.411,59.739 113.060 C 59.815 113.710,59.693 114.682,59.469 115.220 C 58.982 116.390,58.884 117.099,58.557 121.800 C 58.420 123.780,58.148 125.703,57.954 126.074 C 57.759 126.444,57.600 128.559,57.600 130.774 C 57.600 132.988,57.463 134.800,57.296 134.800 C 57.128 134.800,56.969 135.340,56.942 136.000 C 56.916 136.660,57.097 137.203,57.347 137.206 C 57.596 137.209,57.530 137.387,57.200 137.600 C 56.800 137.858,56.767 137.990,57.100 137.994 C 57.375 137.997,57.600 138.270,57.600 138.600 C 57.600 138.930,57.408 139.200,57.172 139.200 C 56.877 139.200,56.821 141.023,56.993 145.100 C 57.130 148.345,57.326 153.430,57.428 156.400 C 57.530 159.370,57.777 162.160,57.978 162.600 C 58.296 163.300,58.838 169.783,58.888 173.491 C 58.898 174.201,59.033 174.703,59.188 174.607 C 59.460 174.439,59.663 175.947,59.739 178.700 C 59.759 179.415,59.916 180.000,60.088 180.000 C 60.259 180.000,60.400 180.774,60.400 181.720 C 60.400 182.666,60.625 183.682,60.900 183.979 C 61.300 184.410,61.300 184.461,60.900 184.235 C 60.625 184.080,60.400 184.143,60.400 184.376 C 60.400 184.609,60.580 184.800,60.800 184.800 C 61.020 184.800,61.200 185.372,61.200 186.072 C 61.200 187.653,62.019 189.994,62.580 190.019 C 62.811 190.029,64.050 192.144,65.333 194.719 C 79.944 224.033,106.220 249.938,134.560 262.970 C 135.792 263.536,137.748 264.436,138.907 264.969 C 173.182 280.735,216.505 282.122,252.400 268.604 C 260.992 265.368,269.425 261.267,278.000 256.157 C 301.536 242.130,322.205 219.720,334.667 194.719 C 335.950 192.144,337.189 190.029,337.420 190.019 C 338.014 189.992,338.800 187.617,338.800 185.848 C 338.800 185.026,338.963 184.454,339.163 184.577 C 339.363 184.700,339.627 183.766,339.751 182.501 C 339.876 181.235,340.067 179.252,340.178 178.094 C 340.288 176.936,340.543 175.676,340.745 175.294 C 340.947 174.912,341.086 173.295,341.056 171.700 C 341.025 170.105,341.135 168.800,341.300 168.800 C 341.465 168.800,341.600 167.450,341.600 165.800 C 341.600 163.670,341.745 162.798,342.100 162.794 C 342.468 162.789,342.457 162.697,342.057 162.444 C 341.679 162.204,341.649 162.017,341.957 161.826 C 342.245 161.648,342.400 159.681,342.400 156.200 C 342.400 153.018,342.564 150.746,342.805 150.597 C 343.287 150.299,343.206 137.651,342.720 137.350 C 342.544 137.242,342.400 134.812,342.400 131.950 C 342.400 129.089,342.241 126.444,342.047 126.074 C 341.747 125.500,341.374 122.177,341.074 117.400 C 341.032 116.740,340.833 115.943,340.631 115.628 C 340.429 115.313,340.230 114.323,340.189 113.428 C 340.148 112.533,340.000 111.530,339.862 111.200 C 339.723 110.870,339.562 110.150,339.505 109.600 C 339.447 109.050,339.277 108.507,339.126 108.393 C 338.975 108.278,338.787 107.700,338.708 107.108 C 338.629 106.515,338.437 105.903,338.282 105.748 C 338.127 105.593,338.000 105.057,338.000 104.557 C 338.000 104.057,337.811 103.531,337.581 103.388 C 337.294 103.211,337.309 102.950,337.630 102.564 C 337.887 102.254,337.940 102.000,337.746 102.000 C 337.373 102.000,336.400 99.242,336.400 98.183 C 336.400 97.836,336.220 97.664,336.000 97.800 C 335.762 97.947,335.600 97.471,335.600 96.624 C 335.600 95.841,335.420 95.200,335.200 95.200 C 334.980 95.200,334.800 94.840,334.800 94.400 C 334.800 93.960,334.620 93.600,334.400 93.600 C 334.180 93.600,334.000 93.409,334.000 93.176 C 334.000 92.943,334.225 92.880,334.500 93.035 C 334.900 93.261,334.900 93.210,334.500 92.779 C 334.225 92.482,334.000 91.826,334.000 91.320 C 334.000 90.814,333.820 90.400,333.600 90.400 C 333.380 90.400,333.200 90.029,333.200 89.576 C 333.200 89.123,333.020 88.864,332.800 89.000 C 332.575 89.139,332.400 88.822,332.400 88.278 C 332.400 87.744,332.039 86.849,331.598 86.288 C 331.011 85.542,330.930 85.214,331.298 85.066 C 331.697 84.905,331.698 84.857,331.300 84.832 C 331.025 84.814,330.800 84.440,330.800 84.000 C 330.800 83.560,330.620 83.200,330.400 83.200 C 330.180 83.200,330.000 82.750,330.000 82.200 C 330.000 81.650,329.820 81.200,329.600 81.200 C 329.380 81.200,329.200 80.930,329.200 80.600 C 329.200 80.270,328.990 80.000,328.733 80.000 C 328.477 80.000,328.380 79.886,328.519 79.747 C 328.658 79.609,328.508 79.119,328.186 78.658 C 327.864 78.198,327.600 77.502,327.600 77.111 C 327.600 76.720,327.442 76.400,327.249 76.400 C 327.055 76.400,326.673 75.860,326.400 75.200 C 326.127 74.540,325.766 74.000,325.598 74.000 C 325.292 74.000,324.676 72.462,324.757 71.900 C 324.781 71.735,324.641 71.600,324.447 71.600 C 324.156 71.600,323.770 70.727,323.643 69.783 C 323.629 69.674,323.249 69.189,322.799 68.706 C 322.349 68.223,322.073 67.587,322.186 67.293 C 322.298 66.999,322.243 66.850,322.063 66.961 C 321.883 67.073,321.491 66.542,321.193 65.782 C 320.895 65.022,320.504 64.400,320.325 64.400 C 320.146 64.400,320.000 64.155,320.000 63.855 C 320.000 63.555,319.525 62.835,318.945 62.255 C 318.365 61.675,318.050 61.194,318.245 61.186 C 318.440 61.178,318.150 60.914,317.600 60.600 C 317.050 60.286,316.780 60.022,317.000 60.014 C 317.220 60.006,316.877 59.549,316.238 59.000 C 315.599 58.450,315.203 58.000,315.358 58.000 C 315.676 58.000,313.567 55.074,313.100 54.867 C 312.935 54.793,312.800 54.560,312.800 54.348 C 312.800 54.137,312.347 53.510,311.792 52.956 C 311.238 52.402,310.906 51.752,311.054 51.512 C 311.215 51.251,311.138 51.191,310.862 51.362 C 310.592 51.529,310.400 51.400,310.400 51.051 C 310.400 50.722,310.040 50.340,309.600 50.200 C 309.160 50.060,308.800 49.765,308.800 49.544 C 308.800 49.324,308.534 48.877,308.209 48.552 C 307.884 48.227,307.389 47.650,307.109 47.269 C 306.829 46.889,306.060 46.150,305.400 45.626 C 304.606 44.997,304.471 44.770,305.000 44.955 C 306.000 45.305,304.279 43.592,302.877 42.841 C 302.395 42.583,302.000 42.180,302.000 41.946 C 302.000 41.308,299.575 39.168,299.149 39.431 C 298.946 39.557,298.806 39.511,298.837 39.330 C 298.978 38.520,298.767 37.973,298.400 38.200 C 298.180 38.336,298.000 38.269,298.000 38.051 C 298.000 37.832,297.640 37.540,297.200 37.400 C 296.760 37.260,296.400 36.871,296.400 36.536 C 296.400 36.200,296.040 35.831,295.600 35.716 C 295.160 35.601,294.800 35.348,294.800 35.153 C 294.800 34.959,294.542 34.800,294.227 34.800 C 293.912 34.800,293.540 34.440,293.400 34.000 C 293.166 33.263,292.714 33.016,291.870 33.163 C 291.689 33.194,291.648 33.046,291.779 32.834 C 292.068 32.366,290.468 30.800,289.701 30.800 C 289.399 30.800,289.264 30.620,289.400 30.400 C 289.536 30.180,289.356 30.000,289.000 30.000 C 288.613 30.000,288.467 29.815,288.638 29.538 C 288.817 29.249,288.748 29.185,288.452 29.368 C 288.173 29.540,287.402 29.082,286.571 28.251 C 285.796 27.476,284.765 26.717,284.281 26.564 C 283.796 26.410,283.165 25.951,282.877 25.543 C 282.590 25.134,282.140 24.800,281.877 24.799 C 281.615 24.799,280.770 24.259,280.000 23.600 C 279.230 22.941,278.184 22.401,277.676 22.401 C 277.163 22.400,276.863 22.222,277.000 22.000 C 277.136 21.780,277.059 21.600,276.828 21.600 C 276.436 21.600,275.405 20.859,274.184 19.700 C 273.894 19.425,273.374 19.200,273.029 19.200 C 272.683 19.200,272.400 19.043,272.400 18.852 C 272.400 18.660,270.780 17.727,268.800 16.778 C 266.820 15.829,265.200 14.876,265.200 14.660 C 265.200 14.444,265.083 14.383,264.941 14.526 C 264.669 14.797,260.698 12.822,260.467 12.300 C 260.393 12.135,259.898 12.000,259.367 12.000 C 258.835 12.000,258.400 11.864,258.400 11.698 C 258.400 11.357,256.300 10.421,254.600 10.004 C 254.380 9.950,253.864 9.670,253.454 9.383 C 253.044 9.095,252.477 8.949,252.195 9.057 C 251.912 9.166,251.562 9.062,251.417 8.827 C 251.272 8.592,250.803 8.400,250.376 8.400 C 249.949 8.400,249.600 8.220,249.600 8.000 C 249.600 7.780,249.060 7.600,248.400 7.600 C 247.740 7.600,247.200 7.420,247.200 7.200 C 247.200 6.980,246.660 6.800,246.000 6.800 C 245.340 6.800,244.800 6.620,244.800 6.400 C 244.800 6.180,244.260 6.000,243.600 6.000 C 242.940 6.000,242.400 5.820,242.400 5.600 C 242.400 5.380,241.680 5.200,240.800 5.200 C 239.920 5.200,239.200 5.059,239.200 4.887 C 239.200 4.715,238.705 4.534,238.100 4.484 C 237.495 4.434,236.940 4.215,236.867 3.997 C 236.793 3.778,236.118 3.600,235.367 3.600 C 234.615 3.600,234.000 3.444,234.000 3.252 C 234.000 3.061,233.094 2.884,231.987 2.859 C 230.879 2.834,229.631 2.631,229.213 2.407 C 228.795 2.183,227.911 2.000,227.250 2.000 C 226.588 2.000,225.936 1.820,225.800 1.600 C 225.664 1.380,224.663 1.200,223.576 1.200 C 222.489 1.200,221.600 1.031,221.600 0.825 C 221.600 0.369,223.618 0.441,202.800 0.154 C 193.230 0.022,185.306 0.013,185.190 0.134 M213.526 27.654 C 214.035 27.844,215.158 28.000,216.020 28.000 C 216.883 28.000,218.356 28.173,219.294 28.384 C 220.232 28.595,222.080 28.982,223.400 29.243 C 227.458 30.048,233.637 31.695,237.000 32.868 C 244.204 35.380,251.580 38.654,255.941 41.274 C 257.338 42.113,258.551 42.800,258.635 42.800 C 258.917 42.800,266.562 47.887,269.242 49.858 C 275.847 54.715,286.100 64.673,290.400 70.409 C 290.950 71.142,291.779 72.206,292.243 72.771 C 295.991 77.343,304.548 92.293,306.854 98.300 C 307.517 100.026,308.096 101.405,308.447 102.095 C 308.641 102.477,308.800 103.141,308.800 103.571 C 308.800 104.001,308.959 104.451,309.152 104.570 C 309.346 104.690,309.603 105.196,309.724 105.694 C 309.845 106.192,310.137 107.275,310.372 108.100 C 310.607 108.925,310.980 110.230,311.200 111.000 C 312.782 116.537,313.681 120.963,314.855 129.000 C 315.555 133.795,315.555 151.005,314.855 155.800 C 313.671 163.904,312.756 168.395,311.167 173.900 C 310.929 174.725,310.638 175.897,310.521 176.505 C 310.404 177.113,310.149 177.708,309.954 177.829 C 309.759 177.949,309.600 178.476,309.600 179.000 C 309.600 179.524,309.420 180.064,309.200 180.200 C 308.980 180.336,308.800 180.799,308.800 181.229 C 308.800 181.659,308.641 182.323,308.447 182.705 C 308.252 183.087,307.915 183.850,307.697 184.400 C 304.242 193.125,296.983 206.181,292.650 211.465 C 292.318 211.869,290.824 213.730,289.329 215.600 C 282.868 223.685,269.343 235.773,262.478 239.599 C 261.885 239.930,261.310 240.303,261.200 240.429 C 261.090 240.555,260.730 240.776,260.400 240.920 C 260.070 241.064,258.900 241.728,257.800 242.396 C 252.884 245.380,244.198 249.435,239.362 251.004 C 238.283 251.354,237.040 251.796,236.600 251.987 C 236.160 252.177,235.350 252.450,234.800 252.594 C 233.690 252.883,231.725 253.434,229.600 254.053 C 228.830 254.277,227.435 254.627,226.500 254.830 C 225.565 255.034,223.945 255.391,222.900 255.624 C 211.505 258.165,193.880 258.499,181.600 256.406 C 177.317 255.676,172.499 254.664,170.400 254.053 C 169.630 253.829,168.370 253.477,167.600 253.271 C 159.022 250.977,145.554 244.908,138.928 240.350 C 138.008 239.718,137.138 239.200,136.995 239.200 C 136.635 239.200,132.308 236.027,127.456 232.205 C 122.494 228.297,114.286 220.187,110.649 215.600 C 109.167 213.730,107.682 211.869,107.350 211.465 C 103.017 206.181,95.758 193.125,92.303 184.400 C 92.085 183.850,91.748 183.087,91.553 182.705 C 91.359 182.323,91.200 181.659,91.200 181.229 C 91.200 180.799,91.020 180.336,90.800 180.200 C 90.580 180.064,90.400 179.524,90.400 179.000 C 90.400 178.476,90.241 177.949,90.046 177.829 C 89.851 177.708,89.596 177.113,89.479 176.505 C 89.362 175.897,89.087 174.770,88.868 174.000 C 85.609 162.545,84.597 154.983,84.612 142.200 C 84.625 131.427,85.141 126.507,87.254 117.000 C 88.316 112.221,90.555 104.632,91.680 102.000 C 92.095 101.028,92.438 100.159,93.140 98.300 C 95.346 92.456,104.543 76.456,108.223 72.061 C 108.650 71.551,109.412 70.653,109.915 70.066 C 110.418 69.480,111.408 68.246,112.115 67.325 C 113.403 65.645,122.348 56.660,124.600 54.784 C 129.650 50.577,140.569 42.800,141.426 42.800 C 141.564 42.800,142.154 42.465,142.738 42.054 C 146.400 39.484,159.811 33.622,165.800 31.975 C 166.460 31.794,167.720 31.443,168.600 31.196 C 180.586 27.831,190.097 26.752,204.600 27.110 C 209.000 27.218,213.017 27.463,213.526 27.654 " stroke="none" fill="#933be3" fill-rule="evenodd"></path><path id="path1" d="M113.000 28.240 C 112.560 28.578,111.931 29.009,111.603 29.197 C 111.275 29.386,111.119 29.653,111.257 29.790 C 111.394 29.928,112.108 29.491,112.843 28.820 C 114.256 27.529,114.343 27.208,113.000 28.240 M286.800 28.554 C 286.800 28.639,287.295 29.027,287.900 29.416 L 289.000 30.124 288.238 29.262 C 287.564 28.499,286.800 28.123,286.800 28.554 M102.493 37.200 C 102.218 37.640,102.098 38.000,102.225 38.000 C 102.525 38.000,103.600 36.927,103.600 36.629 C 103.600 36.120,102.962 36.449,102.493 37.200 M100.900 38.623 C 100.311 39.263,100.262 39.600,100.757 39.600 C 101.098 39.600,101.737 38.396,101.509 38.183 C 101.449 38.127,101.175 38.325,100.900 38.623 M342.667 135.067 C 342.304 135.430,342.328 137.109,342.700 137.338 C 342.865 137.440,343.006 136.910,343.012 136.161 C 343.019 135.413,343.004 134.800,342.979 134.800 C 342.954 134.800,342.813 134.920,342.667 135.067 M62.000 191.200 C 62.000 191.860,62.180 192.400,62.400 192.400 C 62.620 192.400,62.800 192.994,62.800 193.720 C 62.800 194.446,62.971 195.211,63.181 195.421 C 63.390 195.630,63.607 196.476,63.663 197.301 C 63.718 198.125,63.907 198.800,64.082 198.800 C 64.257 198.800,64.400 199.419,64.400 200.176 C 64.400 200.933,64.580 201.664,64.800 201.800 C 65.020 201.936,65.200 202.656,65.200 203.400 C 65.200 204.144,65.380 204.864,65.600 205.000 C 65.820 205.136,66.000 205.676,66.000 206.200 C 66.000 206.724,66.180 207.264,66.400 207.400 C 66.620 207.536,66.800 208.277,66.800 209.047 C 66.800 209.879,66.962 210.347,67.200 210.200 C 67.438 210.053,67.600 210.529,67.600 211.376 C 67.600 212.159,67.780 212.800,68.000 212.800 C 68.220 212.800,68.400 213.340,68.400 214.000 C 68.400 214.660,68.580 215.200,68.800 215.200 C 69.020 215.200,69.200 215.639,69.200 216.176 C 69.200 216.713,69.380 217.264,69.600 217.400 C 69.820 217.536,70.000 218.187,70.000 218.847 C 70.000 219.545,70.167 219.944,70.400 219.800 C 70.633 219.656,70.800 220.063,70.800 220.776 C 70.800 221.449,70.980 222.000,71.200 222.000 C 71.420 222.000,71.600 222.551,71.600 223.224 C 71.600 223.937,71.767 224.344,72.000 224.200 C 72.227 224.060,72.400 224.396,72.400 224.976 C 72.400 225.539,72.580 226.000,72.800 226.000 C 73.020 226.000,73.200 226.439,73.200 226.976 C 73.200 227.513,73.380 228.064,73.600 228.200 C 73.820 228.336,74.000 228.769,74.000 229.162 C 74.000 229.555,74.287 230.453,74.638 231.156 C 74.989 231.859,75.316 232.652,75.365 232.917 C 75.590 234.129,77.019 237.600,77.294 237.600 C 77.462 237.600,77.600 237.949,77.600 238.376 C 77.600 238.803,77.780 239.264,78.000 239.400 C 78.220 239.536,78.400 240.087,78.400 240.624 C 78.400 241.161,78.536 241.600,78.702 241.600 C 78.869 241.600,79.240 242.185,79.529 242.900 C 79.817 243.615,80.221 244.513,80.426 244.895 C 80.632 245.277,80.800 245.862,80.800 246.195 C 80.800 246.528,80.980 246.800,81.200 246.800 C 81.420 246.800,81.600 247.261,81.600 247.824 C 81.600 248.404,81.773 248.740,82.000 248.600 C 82.220 248.464,82.400 248.723,82.400 249.176 C 82.400 249.629,82.551 250.000,82.736 250.000 C 82.921 250.000,83.318 250.765,83.619 251.700 C 83.920 252.635,84.264 253.490,84.384 253.600 C 84.503 253.710,84.871 254.340,85.200 255.000 C 85.529 255.660,85.889 256.290,85.999 256.400 C 86.477 256.876,87.200 258.439,87.200 258.995 C 87.200 259.328,87.380 259.600,87.600 259.600 C 87.820 259.600,88.000 259.960,88.000 260.400 C 88.000 260.840,88.180 261.200,88.400 261.200 C 88.620 261.200,88.800 261.545,88.800 261.967 C 88.800 262.388,88.935 262.793,89.100 262.867 C 89.265 262.940,89.833 263.855,90.363 264.900 C 90.892 265.945,91.477 266.800,91.663 266.800 C 91.848 266.800,92.000 267.023,92.000 267.296 C 92.000 268.085,94.830 273.600,95.235 273.600 C 95.436 273.600,95.600 273.960,95.600 274.400 C 95.600 274.840,95.780 275.200,96.000 275.200 C 96.220 275.200,96.400 275.470,96.400 275.800 C 96.400 276.130,96.580 276.400,96.800 276.400 C 97.020 276.400,97.200 276.670,97.200 277.000 C 97.200 277.330,97.380 277.600,97.600 277.600 C 97.820 277.600,98.000 277.945,98.000 278.367 C 98.000 278.788,98.166 279.193,98.370 279.267 C 98.573 279.340,98.798 279.662,98.870 279.982 C 98.941 280.302,99.408 280.988,99.908 281.508 C 100.407 282.027,100.731 282.587,100.629 282.753 C 100.527 282.919,100.793 283.307,101.221 283.615 C 101.650 283.924,102.000 284.414,102.000 284.705 C 102.000 284.996,102.360 285.620,102.800 286.092 C 103.240 286.564,103.600 287.198,103.600 287.499 C 103.600 287.801,103.780 287.936,104.000 287.800 C 104.220 287.664,104.400 287.923,104.400 288.376 C 104.400 288.829,104.580 289.200,104.800 289.200 C 105.020 289.200,105.200 289.470,105.200 289.800 C 105.200 290.130,105.380 290.400,105.600 290.400 C 105.820 290.400,106.000 290.630,106.000 290.912 C 106.000 291.193,106.360 291.683,106.800 292.000 C 107.240 292.317,107.600 292.897,107.600 293.288 C 107.600 293.680,107.753 294.000,107.939 294.000 C 108.126 294.000,108.603 294.720,109.000 295.600 C 109.397 296.480,109.829 297.203,109.961 297.208 C 110.092 297.212,110.740 298.120,111.400 299.227 C 112.060 300.333,113.005 301.724,113.500 302.319 C 113.994 302.914,114.399 303.582,114.400 303.804 C 114.400 304.026,114.760 304.432,115.200 304.707 C 115.640 304.982,116.000 305.474,116.000 305.800 C 116.000 306.126,116.360 306.618,116.800 306.893 C 117.240 307.168,117.600 307.592,117.600 307.837 C 117.600 308.081,118.140 308.846,118.800 309.537 C 119.460 310.228,120.000 310.992,120.000 311.236 C 120.000 311.480,120.540 312.183,121.200 312.800 C 121.860 313.417,122.400 314.219,122.400 314.584 C 122.400 314.949,122.580 315.136,122.800 315.000 C 123.020 314.864,123.200 314.961,123.200 315.216 C 123.200 315.471,123.695 316.158,124.300 316.743 C 124.905 317.329,125.451 318.050,125.514 318.347 C 125.577 318.643,125.847 319.122,126.114 319.411 C 126.381 319.700,126.960 320.412,127.400 320.994 C 127.840 321.575,128.785 322.707,129.500 323.509 C 130.215 324.311,130.800 325.120,130.800 325.307 C 130.800 325.494,131.008 325.519,131.262 325.362 C 131.539 325.190,131.615 325.252,131.452 325.515 C 131.303 325.757,131.815 326.589,132.591 327.364 C 133.366 328.139,134.000 328.953,134.000 329.173 C 134.000 329.392,134.360 329.765,134.800 330.000 C 135.240 330.235,135.600 330.616,135.600 330.845 C 135.600 331.075,136.291 331.927,137.136 332.738 C 137.980 333.550,138.745 334.411,138.836 334.652 C 138.978 335.032,142.854 339.558,144.300 341.033 C 144.575 341.313,144.800 341.638,144.800 341.754 C 144.800 341.870,146.505 343.708,148.588 345.840 C 150.672 347.971,152.304 349.831,152.216 349.973 C 152.129 350.115,152.584 350.585,153.227 351.016 C 153.871 351.447,154.398 351.923,154.399 352.073 C 154.400 352.290,172.759 370.732,175.740 373.510 C 176.147 373.890,176.642 374.155,176.840 374.100 C 177.038 374.045,177.200 374.270,177.200 374.600 C 177.200 374.930,177.364 375.200,177.565 375.200 C 177.766 375.200,178.986 376.235,180.277 377.500 C 181.568 378.765,183.609 380.608,184.812 381.596 C 186.015 382.584,187.451 383.844,188.003 384.396 C 190.300 386.695,190.821 386.800,199.982 386.800 C 209.387 386.800,209.758 386.718,212.391 384.047 C 213.176 383.251,214.020 382.562,214.266 382.515 C 214.512 382.468,216.238 380.938,218.102 379.115 C 222.684 374.634,226.060 371.600,226.465 371.600 C 226.649 371.600,226.800 371.330,226.800 371.000 C 226.800 370.670,226.980 370.400,227.200 370.400 C 227.757 370.400,239.573 358.506,239.294 358.227 C 239.169 358.102,239.322 357.993,239.633 357.983 C 239.945 357.974,241.550 356.504,243.200 354.716 C 244.850 352.929,246.785 350.923,247.500 350.259 C 248.215 349.596,248.800 348.898,248.800 348.709 C 248.800 348.520,250.240 346.941,252.000 345.200 C 253.760 343.459,255.200 341.866,255.200 341.660 C 255.200 341.454,255.481 341.178,255.825 341.046 C 256.169 340.914,256.339 340.624,256.202 340.403 C 256.065 340.181,256.142 340.000,256.374 340.000 C 256.605 340.000,257.336 339.253,257.997 338.340 C 258.659 337.427,259.200 336.839,259.200 337.033 C 259.200 337.227,259.679 336.680,260.265 335.818 C 260.851 334.956,262.381 333.164,263.665 331.835 C 264.949 330.506,266.000 329.256,266.000 329.056 C 266.000 328.857,266.317 328.403,266.704 328.047 C 267.092 327.691,267.877 326.770,268.449 326.000 C 269.022 325.230,270.010 324.043,270.645 323.362 C 271.280 322.681,272.160 321.626,272.600 321.018 C 273.040 320.409,273.619 319.681,273.886 319.399 C 274.153 319.116,274.423 318.646,274.486 318.352 C 274.549 318.059,275.230 317.180,276.000 316.400 C 276.770 315.620,277.454 314.735,277.519 314.433 C 277.585 314.132,278.170 313.389,278.819 312.782 C 279.469 312.175,280.000 311.480,280.000 311.236 C 280.000 310.992,280.540 310.228,281.200 309.537 C 281.860 308.846,282.400 308.081,282.400 307.837 C 282.400 307.592,282.760 307.168,283.200 306.893 C 283.640 306.618,284.000 306.126,284.000 305.800 C 284.000 305.474,284.360 304.982,284.800 304.707 C 285.240 304.432,285.600 303.974,285.600 303.689 C 285.600 303.405,285.969 302.773,286.419 302.286 C 286.870 301.799,287.797 300.500,288.479 299.400 C 290.730 295.771,291.796 294.202,292.100 294.067 C 292.265 293.993,292.400 293.628,292.400 293.255 C 292.400 292.882,292.760 292.317,293.200 292.000 C 293.640 291.683,294.000 291.193,294.000 290.912 C 294.000 290.630,294.180 290.400,294.400 290.400 C 294.620 290.400,294.800 290.130,294.800 289.800 C 294.800 289.470,294.980 289.200,295.200 289.200 C 295.420 289.200,295.600 288.930,295.600 288.600 C 295.600 288.270,295.780 288.000,296.000 288.000 C 296.220 288.000,296.400 287.764,296.400 287.475 C 296.400 287.187,296.760 286.564,297.200 286.092 C 297.640 285.620,298.000 284.996,298.000 284.705 C 298.000 284.414,298.360 283.917,298.800 283.600 C 299.240 283.283,299.600 282.703,299.600 282.312 C 299.600 281.920,299.780 281.600,300.000 281.600 C 300.220 281.600,300.400 281.319,300.400 280.976 C 300.400 280.633,300.584 280.467,300.810 280.606 C 301.035 280.745,301.170 280.703,301.110 280.511 C 300.956 280.022,302.853 276.400,303.263 276.400 C 303.448 276.400,303.600 276.130,303.600 275.800 C 303.600 275.470,303.791 275.200,304.024 275.200 C 304.257 275.200,304.345 275.035,304.221 274.834 C 304.096 274.632,304.421 273.957,304.943 273.334 C 305.818 272.287,308.000 268.084,308.000 267.445 C 308.000 267.292,308.360 266.780,308.800 266.308 C 309.501 265.556,309.676 265.070,309.574 264.170 C 309.559 264.043,309.919 263.617,310.374 263.223 C 310.828 262.829,311.200 262.212,311.200 261.853 C 311.200 261.494,311.380 261.200,311.600 261.200 C 311.820 261.200,312.000 260.840,312.000 260.400 C 312.000 259.960,312.180 259.600,312.400 259.600 C 312.620 259.600,312.800 259.240,312.800 258.800 C 312.800 258.360,312.980 258.000,313.200 258.000 C 313.420 258.000,313.600 257.640,313.600 257.200 C 313.600 256.760,313.746 256.400,313.925 256.400 C 314.104 256.400,314.498 255.770,314.800 255.000 C 315.102 254.230,315.496 253.600,315.675 253.600 C 315.854 253.600,316.000 253.240,316.000 252.800 C 316.000 252.360,316.142 252.000,316.315 252.000 C 316.488 252.000,316.659 251.611,316.695 251.136 C 316.731 250.661,316.904 250.166,317.080 250.036 C 317.662 249.607,318.400 248.024,318.400 247.205 C 318.400 246.762,318.536 246.400,318.702 246.400 C 318.869 246.400,319.229 245.860,319.502 245.200 C 319.776 244.540,320.224 243.460,320.498 242.800 C 320.771 242.140,321.131 241.600,321.298 241.600 C 321.464 241.600,321.600 241.150,321.600 240.600 C 321.600 240.050,321.780 239.600,322.000 239.600 C 322.220 239.600,322.400 239.150,322.400 238.600 C 322.400 238.050,322.538 237.600,322.706 237.600 C 322.940 237.600,324.159 234.786,324.612 233.200 C 324.790 232.578,325.307 231.308,325.629 230.705 C 325.833 230.323,326.000 229.648,326.000 229.205 C 326.000 228.762,326.180 228.400,326.400 228.400 C 326.620 228.400,326.800 227.860,326.800 227.200 C 326.800 226.540,326.980 226.000,327.200 226.000 C 327.420 226.000,327.600 225.539,327.600 224.976 C 327.600 224.396,327.773 224.060,328.000 224.200 C 328.233 224.344,328.400 223.937,328.400 223.224 C 328.400 222.551,328.560 222.000,328.755 222.000 C 328.950 222.000,329.226 221.415,329.369 220.700 C 329.994 217.576,330.110 217.200,330.445 217.200 C 330.640 217.200,330.800 216.761,330.800 216.224 C 330.800 215.687,330.980 215.136,331.200 215.000 C 331.420 214.864,331.600 214.313,331.600 213.776 C 331.600 213.239,331.780 212.800,332.000 212.800 C 332.220 212.800,332.403 212.035,332.406 211.100 C 332.411 209.855,332.516 209.561,332.800 210.000 C 333.094 210.455,333.189 210.285,333.194 209.295 C 333.197 208.577,333.358 207.677,333.551 207.295 C 334.135 206.139,334.800 203.796,334.800 202.895 C 334.800 202.429,334.980 201.936,335.200 201.800 C 335.420 201.664,335.600 200.933,335.600 200.176 C 335.600 199.419,335.780 198.800,336.000 198.800 C 336.220 198.800,336.400 198.080,336.400 197.200 C 336.400 196.320,336.580 195.600,336.800 195.600 C 337.020 195.600,337.200 194.880,337.200 194.000 C 337.200 193.120,337.380 192.400,337.600 192.400 C 337.820 192.400,338.000 191.860,338.000 191.200 C 338.000 188.964,337.018 190.001,334.667 194.719 C 323.901 216.318,306.994 236.040,287.000 250.320 C 277.366 257.202,264.194 264.162,252.400 268.604 C 216.505 282.122,173.182 280.735,138.907 264.969 C 137.748 264.436,135.792 263.536,134.560 262.970 C 106.220 249.938,79.944 224.033,65.333 194.719 C 62.982 190.001,62.000 188.964,62.000 191.200 M138.292 392.242 C 138.131 392.402,138.000 392.809,138.000 393.147 C 138.000 393.597,138.118 393.642,138.445 393.315 C 138.690 393.070,138.821 392.663,138.737 392.410 C 138.652 392.157,138.452 392.081,138.292 392.242 " stroke="none" fill="#742cc3" fill-rule="evenodd"></path><path id="path2" d="M159.800 68.462 C 141.928 74.398,140.885 106.325,158.179 118.115 C 174.693 129.374,191.387 110.604,185.197 87.736 C 181.566 74.320,169.571 65.217,159.800 68.462 M232.193 68.587 C 221.094 72.097,214.028 83.305,214.028 97.400 C 214.028 126.328,243.799 130.605,253.000 103.000 C 259.238 84.287,246.928 63.928,232.193 68.587 M124.000 129.372 C 112.431 132.591,108.339 148.041,115.957 159.734 C 126.210 175.472,146.133 169.574,146.134 150.800 C 146.135 147.000,145.876 145.455,144.745 142.500 C 141.101 132.983,131.915 127.170,124.000 129.372 M269.600 129.348 C 256.831 132.138,249.666 149.604,256.505 161.274 C 265.246 176.189,286.552 167.441,287.858 148.400 C 288.703 136.094,280.049 127.065,269.600 129.348 M193.400 136.581 C 185.197 139.022,178.485 145.528,171.712 157.600 C 171.033 158.810,170.100 160.475,169.639 161.300 C 169.177 162.125,168.440 163.430,168.000 164.200 C 167.560 164.970,166.825 166.261,166.368 167.070 C 164.847 169.755,162.709 172.965,160.420 176.000 C 154.794 183.460,153.085 188.321,153.037 197.000 C 152.964 210.077,159.100 216.544,171.600 216.564 C 176.985 216.573,180.446 215.744,187.400 212.781 C 195.602 209.287,202.398 209.176,211.400 212.390 C 223.905 216.855,222.529 216.514,228.200 216.559 C 233.512 216.601,234.255 216.458,237.904 214.694 C 249.670 209.006,250.474 190.446,239.580 176.000 C 237.291 172.965,235.153 169.755,233.632 167.070 C 233.175 166.261,232.440 164.970,232.000 164.200 C 231.560 163.430,230.840 162.170,230.400 161.400 C 229.960 160.630,229.240 159.370,228.800 158.600 C 228.360 157.830,227.635 156.556,227.189 155.769 C 222.742 147.917,215.429 139.938,211.206 138.327 C 210.659 138.119,209.669 137.713,209.006 137.424 C 205.620 135.953,197.062 135.491,193.400 136.581 M143.600 386.000 C 143.600 386.220,143.240 386.400,142.800 386.400 C 142.360 386.400,142.000 386.580,142.000 386.800 C 142.000 387.020,141.820 387.200,141.600 387.200 C 141.081 387.200,139.600 388.681,139.600 389.200 C 139.600 389.420,139.420 389.600,139.200 389.600 C 138.980 389.600,138.800 390.374,138.800 391.320 C 138.800 392.266,138.604 393.236,138.365 393.475 C 138.052 393.788,138.052 393.985,138.365 394.178 C 138.604 394.326,138.800 394.799,138.800 395.229 C 138.800 396.195,139.494 397.437,140.782 398.778 L 141.764 399.800 200.028 399.800 L 258.292 399.800 259.550 398.453 C 260.242 397.713,260.909 396.633,261.032 396.053 C 261.155 395.474,261.416 394.601,261.613 394.114 C 261.831 393.572,261.821 393.136,261.585 392.991 C 261.373 392.860,261.200 392.125,261.200 391.358 C 261.200 390.404,260.884 389.648,260.200 388.964 C 259.650 388.414,259.200 387.792,259.200 387.582 C 259.200 387.372,258.930 387.200,258.600 387.200 C 258.270 387.200,257.999 387.065,257.997 386.900 C 257.982 385.467,212.044 384.803,209.600 386.200 C 208.118 387.047,191.694 387.058,190.576 386.213 C 189.626 385.494,143.600 385.285,143.600 386.000 " stroke="none" fill="#41566f" fill-rule="evenodd"></path><path id="path3" d="M187.800 28.020 C 175.160 29.719,163.279 32.710,157.505 35.647 C 157.123 35.841,156.636 36.000,156.423 36.000 C 156.042 36.000,151.367 38.054,149.800 38.910 C 149.360 39.150,147.740 40.004,146.200 40.808 C 132.677 47.869,118.815 59.355,110.006 70.800 C 109.244 71.790,108.510 72.690,108.374 72.800 C 105.087 75.466,94.226 95.870,91.342 104.796 C 91.022 105.788,90.609 106.960,90.425 107.400 C 90.242 107.840,89.870 109.010,89.599 110.000 C 89.329 110.990,88.970 112.250,88.803 112.800 C 88.636 113.350,88.288 114.790,88.030 116.000 C 87.772 117.210,87.403 118.920,87.211 119.800 C 86.840 121.497,86.310 124.954,85.617 130.200 C 85.071 134.337,85.071 150.463,85.617 154.600 C 86.619 162.183,87.683 167.660,89.173 172.900 C 89.408 173.725,89.758 174.985,89.952 175.700 C 95.198 195.084,110.130 217.508,126.800 231.034 C 130.108 233.718,137.060 238.800,137.425 238.800 C 137.552 238.800,138.408 239.318,139.328 239.950 C 142.451 242.099,148.461 245.265,154.935 248.172 C 160.486 250.665,172.615 254.354,178.200 255.248 C 179.520 255.459,181.590 255.804,182.800 256.014 C 206.419 260.116,236.613 254.435,257.400 241.980 C 258.500 241.321,259.670 240.660,260.000 240.511 C 260.330 240.362,260.780 240.089,261.000 239.903 C 261.220 239.718,262.303 238.988,263.407 238.283 C 271.758 232.943,282.667 223.082,288.940 215.200 C 290.429 213.330,291.894 211.497,292.196 211.127 C 298.816 203.023,306.907 186.697,310.397 174.400 C 314.024 161.621,314.973 154.025,314.667 140.200 C 314.401 128.138,313.872 123.748,311.618 114.900 C 311.408 114.075,311.124 112.860,310.988 112.200 C 310.851 111.540,310.597 110.640,310.422 110.200 C 310.248 109.760,309.711 108.140,309.229 106.600 C 305.949 96.121,296.000 77.157,291.321 72.465 C 291.028 72.171,290.296 71.271,289.694 70.465 C 283.088 61.617,268.657 49.106,258.300 43.248 C 257.475 42.782,256.125 42.016,255.300 41.547 C 245.062 35.724,232.750 31.406,220.000 29.168 C 211.481 27.672,194.810 27.078,187.800 28.020 M169.280 68.392 C 176.446 70.606,182.896 78.169,185.487 87.400 C 186.661 91.581,186.800 92.616,186.800 97.200 C 186.800 99.899,186.606 102.848,186.368 103.754 C 186.131 104.659,185.741 106.120,185.502 107.000 C 182.759 117.099,173.204 123.655,164.520 121.397 C 149.531 117.499,140.698 95.875,147.652 80.104 C 148.064 79.172,148.400 78.307,148.400 78.182 C 148.400 77.664,151.621 73.305,152.860 72.147 C 157.340 67.960,163.397 66.575,169.280 68.392 M243.053 69.412 C 248.619 72.114,252.260 77.271,254.374 85.446 C 257.503 97.543,250.387 115.044,240.389 119.843 C 233.873 122.971,226.538 122.595,222.888 118.946 C 222.585 118.643,222.001 118.215,221.590 117.995 C 220.488 117.405,217.520 113.344,216.224 110.652 C 213.329 104.636,212.505 95.028,214.385 89.200 C 214.562 88.650,214.938 87.390,215.221 86.400 C 219.198 72.456,232.543 64.311,243.053 69.412 M134.173 130.149 C 151.394 138.106,150.373 166.962,132.800 168.961 C 122.055 170.184,111.600 159.284,111.600 146.859 C 111.600 143.689,112.140 141.342,113.732 137.600 C 116.959 130.015,126.419 126.567,134.173 130.149 M277.215 129.300 C 282.212 130.859,285.697 134.993,287.944 142.028 C 288.484 143.719,288.550 149.788,288.047 151.440 C 287.852 152.078,287.456 153.410,287.165 154.400 C 282.741 169.468,264.809 174.194,256.802 162.403 C 252.020 155.361,252.582 143.115,257.977 136.800 C 259.953 134.487,261.899 132.635,263.400 131.638 C 264.906 130.638,265.561 130.302,268.000 129.275 C 269.403 128.685,275.294 128.701,277.215 129.300 M207.471 136.451 C 212.849 138.112,219.090 142.976,222.803 148.400 C 223.330 149.170,223.861 149.890,223.982 150.000 C 224.387 150.367,226.898 154.536,230.608 161.000 C 236.099 170.568,236.733 171.606,238.538 174.000 C 239.451 175.210,240.300 176.290,240.425 176.400 C 242.713 178.412,246.320 186.580,247.231 191.810 C 250.618 211.257,236.784 221.888,217.200 214.888 C 215.110 214.141,212.176 213.091,210.679 212.555 C 203.022 209.811,197.010 209.774,189.714 212.424 C 175.944 217.425,171.899 218.129,165.882 216.569 C 150.546 212.595,147.557 192.406,159.891 176.106 C 162.938 172.079,164.957 168.869,169.393 161.000 C 172.269 155.899,175.088 151.221,175.903 150.200 C 176.078 149.980,176.657 149.170,177.188 148.400 C 182.182 141.168,188.853 136.845,197.200 135.432 C 199.187 135.095,204.925 135.665,207.471 136.451 " stroke="none" fill="#ebf3f3" fill-rule="evenodd"></path><path id="path4" d="M191.600 27.237 C 183.334 27.774,176.755 28.907,168.600 31.196 C 167.720 31.443,166.460 31.794,165.800 31.975 C 159.811 33.622,146.400 39.484,142.738 42.054 C 142.154 42.465,141.564 42.800,141.426 42.800 C 140.569 42.800,129.650 50.577,124.600 54.784 C 122.348 56.660,113.403 65.645,112.115 67.325 C 111.408 68.246,110.418 69.480,109.915 70.066 C 109.412 70.653,108.650 71.551,108.223 72.061 C 104.543 76.456,95.346 92.456,93.140 98.300 C 92.438 100.159,92.095 101.028,91.680 102.000 C 90.555 104.632,88.316 112.221,87.254 117.000 C 85.141 126.507,84.625 131.427,84.612 142.200 C 84.597 154.983,85.609 162.545,88.868 174.000 C 89.087 174.770,89.362 175.897,89.479 176.505 C 89.596 177.113,89.851 177.708,90.046 177.829 C 90.241 177.949,90.400 178.476,90.400 179.000 C 90.400 179.524,90.580 180.064,90.800 180.200 C 91.020 180.336,91.200 180.799,91.200 181.229 C 91.200 181.659,91.359 182.323,91.553 182.705 C 91.748 183.087,92.085 183.850,92.303 184.400 C 95.758 193.125,103.017 206.181,107.350 211.465 C 107.682 211.869,109.167 213.730,110.649 215.600 C 114.286 220.187,122.494 228.297,127.456 232.205 C 132.308 236.027,136.635 239.200,136.995 239.200 C 137.138 239.200,138.008 239.718,138.928 240.350 C 145.554 244.908,159.022 250.977,167.600 253.271 C 168.370 253.477,169.630 253.829,170.400 254.053 C 172.499 254.664,177.317 255.676,181.600 256.406 C 193.880 258.499,211.505 258.165,222.900 255.624 C 223.945 255.391,225.565 255.034,226.500 254.830 C 227.435 254.627,228.830 254.277,229.600 254.053 C 231.725 253.434,233.690 252.883,234.800 252.594 C 235.350 252.450,236.160 252.177,236.600 251.987 C 237.040 251.796,238.283 251.354,239.362 251.004 C 244.198 249.435,252.884 245.380,257.800 242.396 C 258.900 241.728,260.070 241.064,260.400 240.920 C 260.730 240.776,261.090 240.555,261.200 240.429 C 261.310 240.303,261.885 239.930,262.478 239.599 C 269.343 235.773,282.868 223.685,289.329 215.600 C 290.824 213.730,292.318 211.869,292.650 211.465 C 296.983 206.181,304.242 193.125,307.697 184.400 C 307.915 183.850,308.252 183.087,308.447 182.705 C 308.641 182.323,308.800 181.659,308.800 181.229 C 308.800 180.799,308.980 180.336,309.200 180.200 C 309.420 180.064,309.600 179.524,309.600 179.000 C 309.600 178.476,309.759 177.949,309.954 177.829 C 310.149 177.708,310.404 177.113,310.521 176.505 C 310.638 175.897,310.929 174.725,311.167 173.900 C 312.756 168.395,313.671 163.904,314.855 155.800 C 315.555 151.005,315.555 133.795,314.855 129.000 C 313.681 120.963,312.782 116.537,311.200 111.000 C 310.980 110.230,310.607 108.925,310.372 108.100 C 310.137 107.275,309.845 106.192,309.724 105.694 C 309.603 105.196,309.346 104.690,309.152 104.570 C 308.959 104.451,308.800 104.001,308.800 103.571 C 308.800 103.141,308.641 102.477,308.447 102.095 C 308.096 101.405,307.517 100.026,306.854 98.300 C 304.548 92.293,295.991 77.343,292.243 72.771 C 291.779 72.206,290.950 71.142,290.400 70.409 C 286.100 64.673,275.847 54.715,269.242 49.858 C 266.562 47.887,258.917 42.800,258.635 42.800 C 258.551 42.800,257.338 42.113,255.941 41.274 C 251.580 38.654,244.204 35.380,237.000 32.868 C 233.637 31.695,227.458 30.048,223.400 29.243 C 222.080 28.982,220.232 28.595,219.294 28.384 C 218.356 28.173,216.883 28.000,216.020 28.000 C 215.158 28.000,214.035 27.844,213.526 27.654 C 212.160 27.143,197.376 26.862,191.600 27.237 M213.200 28.194 C 229.460 30.271,243.060 34.585,255.300 41.547 C 256.125 42.016,257.475 42.782,258.300 43.248 C 268.657 49.106,283.088 61.617,289.694 70.465 C 290.296 71.271,291.028 72.171,291.321 72.465 C 296.000 77.157,305.949 96.121,309.229 106.600 C 309.711 108.140,310.248 109.760,310.422 110.200 C 310.597 110.640,310.851 111.540,310.988 112.200 C 311.124 112.860,311.408 114.075,311.618 114.900 C 313.872 123.748,314.401 128.138,314.667 140.200 C 314.973 154.025,314.024 161.621,310.397 174.400 C 306.907 186.697,298.816 203.023,292.196 211.127 C 291.894 211.497,290.429 213.330,288.940 215.200 C 282.667 223.082,271.758 232.943,263.407 238.283 C 262.303 238.988,261.220 239.718,261.000 239.903 C 260.780 240.089,260.330 240.362,260.000 240.511 C 259.670 240.660,258.500 241.321,257.400 241.980 C 236.613 254.435,206.419 260.116,182.800 256.014 C 181.590 255.804,179.520 255.459,178.200 255.248 C 172.615 254.354,160.486 250.665,154.935 248.172 C 148.461 245.265,142.451 242.099,139.328 239.950 C 138.408 239.318,137.552 238.800,137.425 238.800 C 137.060 238.800,130.108 233.718,126.800 231.034 C 110.130 217.508,95.198 195.084,89.952 175.700 C 89.758 174.985,89.408 173.725,89.173 172.900 C 87.683 167.660,86.619 162.183,85.617 154.600 C 85.071 150.463,85.071 134.337,85.617 130.200 C 86.310 124.954,86.840 121.497,87.211 119.800 C 87.403 118.920,87.772 117.210,88.030 116.000 C 88.288 114.790,88.636 113.350,88.803 112.800 C 88.970 112.250,89.329 110.990,89.599 110.000 C 89.870 109.010,90.242 107.840,90.425 107.400 C 90.609 106.960,91.022 105.788,91.342 104.796 C 94.226 95.870,105.087 75.466,108.374 72.800 C 108.510 72.690,109.244 71.790,110.006 70.800 C 118.815 59.355,132.677 47.869,146.200 40.808 C 147.740 40.004,149.360 39.150,149.800 38.910 C 151.367 38.054,156.042 36.000,156.423 36.000 C 156.636 36.000,157.123 35.841,157.505 35.647 C 163.279 32.710,175.160 29.719,187.800 28.020 C 192.061 27.448,208.223 27.558,213.200 28.194 M162.711 67.893 C 163.651 67.978,165.091 67.977,165.911 67.891 C 166.730 67.805,165.960 67.736,164.200 67.737 C 162.440 67.739,161.770 67.809,162.711 67.893 M235.100 67.882 C 235.595 67.978,236.405 67.978,236.900 67.882 C 237.395 67.787,236.990 67.709,236.000 67.709 C 235.010 67.709,234.605 67.787,235.100 67.882 M159.000 68.400 C 158.496 68.617,158.422 68.744,158.800 68.744 C 159.130 68.744,159.760 68.589,160.200 68.400 C 160.704 68.183,160.778 68.056,160.400 68.056 C 160.070 68.056,159.440 68.211,159.000 68.400 M168.200 68.400 C 168.640 68.589,169.270 68.744,169.600 68.744 C 169.978 68.744,169.904 68.617,169.400 68.400 C 168.960 68.211,168.330 68.056,168.000 68.056 C 167.622 68.056,167.696 68.183,168.200 68.400 M229.990 68.928 C 226.887 70.205,224.513 71.934,221.755 74.928 C 219.719 77.138,216.764 81.600,217.337 81.600 C 217.440 81.600,218.099 80.580,218.802 79.334 C 221.434 74.671,226.923 70.241,232.080 68.620 C 233.026 68.322,233.440 68.066,233.000 68.049 C 232.560 68.033,231.206 68.428,229.990 68.928 M240.793 68.802 C 241.999 69.212,243.041 69.492,243.109 69.424 C 243.325 69.209,240.015 67.999,239.292 68.028 C 238.911 68.043,239.587 68.392,240.793 68.802 M170.600 69.200 C 170.736 69.420,171.026 69.600,171.246 69.600 C 173.512 69.600,181.367 77.689,182.855 81.555 C 183.057 82.081,183.329 82.404,183.460 82.274 C 184.015 81.719,180.234 76.196,177.405 73.430 C 174.966 71.045,169.728 67.789,170.600 69.200 M155.189 70.260 C 152.795 71.859,147.930 77.664,148.504 78.237 C 148.600 78.333,149.367 77.375,150.208 76.109 C 151.738 73.805,153.838 71.563,155.641 70.309 C 156.889 69.441,156.481 69.397,155.189 70.260 M244.400 70.288 C 246.507 71.788,248.805 74.139,250.029 76.046 C 250.730 77.137,251.387 77.946,251.490 77.843 C 252.111 77.222,246.480 71.048,244.375 70.043 L 243.400 69.577 244.400 70.288 M251.798 79.000 C 251.971 79.440,252.528 80.880,253.036 82.200 C 253.543 83.520,253.968 84.309,253.979 83.953 C 254.004 83.176,252.427 79.164,251.874 78.600 C 251.617 78.338,251.591 78.476,251.798 79.000 M147.067 81.067 C 146.920 81.213,146.811 81.708,146.825 82.167 C 146.849 82.933,146.882 82.923,147.234 82.042 C 147.626 81.063,147.544 80.589,147.067 81.067 M216.272 83.419 C 215.902 84.193,215.613 85.046,215.628 85.314 C 215.644 85.581,216.008 85.009,216.437 84.042 C 217.371 81.937,217.231 81.408,216.272 83.419 M146.249 83.815 C 146.112 84.173,146.016 84.856,146.036 85.333 C 146.062 85.947,146.185 85.808,146.459 84.856 C 146.857 83.472,146.694 82.658,146.249 83.815 M254.276 87.400 C 254.405 88.720,254.576 89.875,254.656 89.967 C 254.963 90.321,254.725 86.557,254.392 85.800 C 254.169 85.292,254.126 85.876,254.276 87.400 M215.000 86.800 C 214.850 87.273,214.817 87.750,214.927 87.860 C 215.037 87.970,215.250 87.673,215.400 87.200 C 215.550 86.727,215.583 86.250,215.473 86.140 C 215.363 86.030,215.150 86.327,215.000 86.800 M145.450 88.050 C 145.131 89.647,145.196 95.102,145.550 96.367 C 145.699 96.900,145.821 94.965,145.821 92.067 C 145.821 86.306,145.814 86.231,145.450 88.050 M185.246 87.600 C 185.265 87.930,185.424 88.650,185.600 89.200 L 185.920 90.200 185.954 89.200 C 185.973 88.650,185.813 87.930,185.600 87.600 C 185.255 87.067,185.216 87.067,185.246 87.600 M214.249 89.415 C 214.112 89.773,214.016 90.456,214.036 90.933 C 214.062 91.547,214.185 91.408,214.459 90.456 C 214.857 89.072,214.694 88.258,214.249 89.415 M186.272 93.000 C 186.402 94.540,186.575 95.875,186.655 95.967 C 186.967 96.325,186.723 91.753,186.389 91.000 C 186.165 90.495,186.122 91.234,186.272 93.000 M213.386 95.395 C 213.233 96.823,213.285 99.028,213.503 100.295 C 213.873 102.458,213.900 102.297,213.949 97.700 C 214.006 92.268,213.807 91.457,213.386 95.395 M254.468 95.400 C 254.426 96.060,254.299 97.320,254.185 98.200 C 254.006 99.593,254.035 99.673,254.408 98.815 C 254.644 98.274,254.771 97.014,254.691 96.015 C 254.599 94.885,254.515 94.653,254.468 95.400 M186.471 99.400 C 186.427 100.280,186.299 101.720,186.185 102.600 C 186.006 103.990,186.035 104.071,186.407 103.218 C 186.642 102.678,186.771 101.238,186.693 100.018 C 186.583 98.288,186.534 98.152,186.471 99.400 M146.046 99.200 C 146.027 99.750,146.187 100.470,146.400 100.800 C 146.894 101.564,146.894 100.742,146.400 99.200 L 146.080 98.200 146.046 99.200 M253.649 100.400 C 253.616 100.730,253.489 101.450,253.367 102.000 C 253.175 102.864,253.207 102.903,253.599 102.288 C 253.848 101.897,253.975 101.177,253.881 100.688 C 253.786 100.200,253.682 100.070,253.649 100.400 M146.834 102.200 C 146.822 102.640,146.987 103.270,147.200 103.600 C 147.714 104.395,147.714 103.396,147.200 102.200 L 146.856 101.400 146.834 102.200 M214.046 104.000 C 214.027 104.550,214.187 105.270,214.400 105.600 C 214.894 106.364,214.894 105.542,214.400 104.000 L 214.080 103.000 214.046 104.000 M252.228 105.036 C 250.203 110.485,246.441 115.506,242.292 118.301 C 241.462 118.860,240.873 119.406,240.982 119.515 C 242.509 121.042,253.937 106.012,253.118 103.554 C 253.030 103.289,252.629 103.956,252.228 105.036 M185.429 105.829 C 185.281 106.415,185.251 106.984,185.361 107.094 C 185.471 107.204,185.681 106.815,185.829 106.229 C 185.976 105.642,186.006 105.073,185.896 104.963 C 185.786 104.853,185.576 105.242,185.429 105.829 M148.400 106.695 C 148.400 109.454,158.714 120.400,161.313 120.400 C 161.527 120.400,160.375 119.527,158.751 118.459 C 154.713 115.803,149.200 109.322,149.200 107.231 C 149.200 107.020,149.020 106.736,148.800 106.600 C 148.580 106.464,148.400 106.507,148.400 106.695 M214.812 107.200 C 214.812 107.530,214.987 108.070,215.200 108.400 C 215.545 108.933,215.588 108.933,215.588 108.400 C 215.588 108.070,215.413 107.530,215.200 107.200 C 214.855 106.667,214.812 106.667,214.812 107.200 M183.892 110.086 C 182.399 113.501,179.667 116.822,176.741 118.776 C 174.004 120.604,174.071 121.017,176.822 119.271 C 180.028 117.237,185.658 109.574,185.124 107.972 C 185.051 107.752,184.496 108.703,183.892 110.086 M217.221 112.530 C 217.182 113.138,220.737 117.467,221.876 118.199 C 222.606 118.669,222.226 118.094,220.794 116.561 C 219.581 115.262,218.286 113.750,217.915 113.200 C 217.545 112.650,217.233 112.349,217.221 112.530 M223.200 119.207 C 223.200 119.536,227.143 121.391,227.366 121.167 C 227.459 121.074,226.559 120.538,225.367 119.975 C 224.175 119.412,223.200 119.067,223.200 119.207 M172.600 120.800 C 171.829 121.131,171.831 121.145,172.676 121.172 C 173.158 121.187,173.664 121.020,173.800 120.800 C 174.092 120.327,173.701 120.327,172.600 120.800 M237.400 120.800 C 236.629 121.131,236.631 121.145,237.476 121.172 C 237.958 121.187,238.464 121.020,238.600 120.800 C 238.892 120.327,238.501 120.327,237.400 120.800 M165.458 121.652 C 165.866 121.812,167.100 121.944,168.200 121.944 C 169.300 121.944,170.534 121.812,170.942 121.652 C 171.350 121.491,170.116 121.360,168.200 121.360 C 166.284 121.360,165.050 121.491,165.458 121.652 M228.538 121.694 C 228.792 121.856,230.440 121.988,232.200 121.988 C 233.960 121.988,235.608 121.856,235.862 121.694 C 236.116 121.532,234.468 121.400,232.200 121.400 C 229.932 121.400,228.284 121.532,228.538 121.694 M123.200 129.200 C 122.436 129.694,123.258 129.694,124.800 129.200 L 125.800 128.880 124.800 128.846 C 124.250 128.827,123.530 128.987,123.200 129.200 M131.158 129.433 C 137.138 131.041,142.234 135.942,144.745 142.500 C 148.348 151.913,145.035 163.540,137.765 166.990 C 136.979 167.363,136.432 167.765,136.549 167.883 C 136.937 168.271,140.170 166.114,141.728 164.427 C 150.845 154.562,146.745 135.958,134.173 130.149 C 132.567 129.407,130.746 128.812,130.126 128.826 C 129.317 128.845,129.608 129.016,131.158 129.433 M268.400 129.212 C 267.981 129.491,268.342 129.533,269.600 129.350 C 271.841 129.025,272.160 128.798,270.367 128.806 C 269.615 128.809,268.730 128.992,268.400 129.212 M274.033 128.947 C 274.125 129.028,274.920 129.214,275.800 129.362 C 276.946 129.554,277.230 129.514,276.800 129.221 C 276.260 128.853,273.632 128.593,274.033 128.947 M119.263 131.082 C 117.261 132.441,113.649 136.582,114.085 137.019 C 114.194 137.127,114.740 136.525,115.299 135.680 C 116.670 133.608,118.861 131.594,120.909 130.522 C 121.839 130.035,122.330 129.635,122.000 129.634 C 121.670 129.634,120.438 130.285,119.263 131.082 M279.200 130.578 C 281.545 131.805,284.024 134.269,285.556 136.896 C 286.231 138.053,286.786 138.803,286.791 138.562 C 286.834 136.442,279.987 129.544,277.914 129.619 C 277.631 129.629,278.210 130.061,279.200 130.578 M263.684 131.369 C 251.001 140.339,249.849 160.102,261.600 167.157 C 263.804 168.480,263.977 168.140,261.802 166.760 C 249.886 159.203,251.687 139.246,265.036 130.924 C 265.456 130.661,265.620 130.445,265.400 130.443 C 265.180 130.441,264.408 130.858,263.684 131.369 M197.200 135.432 C 188.854 136.845,182.117 141.213,177.197 148.400 C 176.670 149.170,176.132 149.890,176.001 150.000 C 175.871 150.110,175.392 150.830,174.936 151.600 C 174.481 152.370,173.394 154.170,172.520 155.600 C 170.108 159.549,167.817 163.927,168.752 162.800 C 169.209 162.250,169.586 161.679,169.591 161.532 C 169.608 161.035,173.445 154.599,175.915 150.926 C 181.398 142.771,187.135 138.174,194.036 136.403 C 195.850 135.937,204.439 136.032,207.000 136.546 C 207.660 136.678,207.425 136.528,206.478 136.212 C 204.695 135.618,198.953 135.135,197.200 135.432 M208.556 137.129 C 208.668 137.311,209.467 137.692,210.330 137.977 C 215.018 139.524,222.401 147.315,227.189 155.769 C 227.635 156.556,228.360 157.830,228.800 158.600 C 229.240 159.370,229.960 160.630,230.400 161.400 C 230.840 162.170,231.577 163.475,232.038 164.300 C 233.076 166.159,233.914 167.040,233.085 165.400 C 231.641 162.545,224.507 150.476,223.982 150.000 C 223.861 149.890,223.330 149.170,222.803 148.400 C 221.192 146.046,216.325 141.199,214.000 139.632 C 210.997 137.609,208.001 136.231,208.556 137.129 M112.667 139.867 C 112.520 140.013,112.411 140.508,112.425 140.967 C 112.449 141.733,112.482 141.723,112.834 140.842 C 113.226 139.863,113.144 139.389,112.667 139.867 M287.800 147.024 C 287.800 149.745,287.922 151.663,288.072 151.285 C 288.442 150.353,288.460 143.114,288.094 142.539 C 287.932 142.285,287.800 144.304,287.800 147.024 M111.852 143.300 C 111.531 144.498,111.585 149.621,111.928 150.485 C 112.078 150.862,112.200 149.197,112.200 146.785 C 112.200 141.990,112.201 141.999,111.852 143.300 M112.434 152.600 C 112.422 153.040,112.587 153.670,112.800 154.000 C 113.314 154.795,113.314 153.796,112.800 152.600 L 112.456 151.800 112.434 152.600 M287.029 153.429 C 286.881 154.015,286.851 154.584,286.961 154.694 C 287.071 154.804,287.281 154.415,287.429 153.829 C 287.576 153.242,287.606 152.673,287.496 152.563 C 287.386 152.453,287.176 152.842,287.029 153.429 M285.105 158.122 C 283.330 161.573,280.173 164.879,276.920 166.695 C 274.533 168.028,274.237 168.510,276.520 167.348 C 278.981 166.095,281.670 163.873,283.179 161.845 C 284.988 159.414,286.883 156.047,286.718 155.560 C 286.653 155.370,285.927 156.522,285.105 158.122 M114.800 158.628 C 114.800 160.138,122.681 167.852,123.444 167.089 C 123.553 166.980,122.958 166.469,122.121 165.953 C 119.801 164.521,117.790 162.566,116.386 160.379 C 115.195 158.522,114.800 158.086,114.800 158.628 M166.986 165.300 L 166.352 166.600 167.167 165.600 C 167.952 164.637,168.208 164.000,167.810 164.000 C 167.706 164.000,167.335 164.585,166.986 165.300 M164.775 168.984 C 164.072 170.229,162.079 173.149,160.347 175.472 C 151.461 187.387,149.749 200.590,155.891 209.854 C 157.967 212.987,163.673 216.882,165.305 216.281 C 165.577 216.181,165.260 215.965,164.600 215.802 C 150.919 212.420,148.723 191.518,160.419 176.000 C 163.287 172.195,166.509 167.176,166.251 166.917 C 166.142 166.808,165.477 167.738,164.775 168.984 M233.600 166.996 C 233.600 167.389,237.380 173.080,239.581 176.000 C 245.288 183.572,246.923 188.303,246.970 197.377 C 246.986 200.665,247.114 202.825,247.253 202.177 C 248.030 198.555,247.355 190.379,245.966 186.600 C 244.784 183.385,241.506 177.350,240.425 176.400 C 239.732 175.790,236.675 171.455,235.419 169.300 C 234.112 167.057,233.600 166.409,233.600 166.996 M126.200 168.400 C 126.640 168.589,127.360 168.738,127.800 168.732 C 128.443 168.723,128.404 168.657,127.600 168.400 C 126.232 167.962,125.181 167.962,126.200 168.400 M134.200 168.400 L 133.400 168.744 134.200 168.766 C 134.640 168.778,135.270 168.613,135.600 168.400 C 136.395 167.886,135.396 167.886,134.200 168.400 M264.400 168.400 C 264.730 168.613,265.360 168.778,265.800 168.766 L 266.600 168.744 265.800 168.400 C 264.604 167.886,263.605 167.886,264.400 168.400 M272.600 168.400 L 271.800 168.744 272.600 168.766 C 273.040 168.778,273.670 168.613,274.000 168.400 C 274.795 167.886,273.796 167.886,272.600 168.400 M130.305 169.083 C 130.802 169.179,131.522 169.175,131.905 169.075 C 132.287 168.975,131.880 168.896,131.000 168.901 C 130.120 168.905,129.807 168.987,130.305 169.083 M268.100 169.087 C 268.705 169.178,269.695 169.178,270.300 169.087 C 270.905 168.995,270.410 168.920,269.200 168.920 C 267.990 168.920,267.495 168.995,268.100 169.087 M245.818 205.660 C 244.295 210.318,239.964 214.485,235.270 215.810 C 234.758 215.955,234.431 216.165,234.543 216.276 C 235.542 217.275,241.896 213.102,243.900 210.133 C 245.490 207.776,247.089 204.156,246.709 203.776 C 246.595 203.662,246.194 204.510,245.818 205.660 M194.400 210.604 C 192.237 211.096,188.974 212.111,187.400 212.781 C 186.960 212.969,185.520 213.516,184.200 213.997 C 180.864 215.213,180.127 215.542,180.664 215.573 C 180.919 215.588,183.265 214.796,185.876 213.814 C 197.750 209.349,202.288 209.357,214.310 213.870 C 217.011 214.883,219.309 215.624,219.418 215.516 C 219.526 215.408,218.576 214.947,217.307 214.492 C 209.290 211.620,207.535 211.048,205.200 210.552 C 202.094 209.892,197.433 209.915,194.400 210.604 M178.200 216.000 L 177.400 216.344 178.200 216.366 C 178.640 216.378,179.270 216.213,179.600 216.000 C 180.395 215.486,179.396 215.486,178.200 216.000 M220.400 216.000 C 220.730 216.213,221.360 216.378,221.800 216.366 L 222.600 216.344 221.800 216.000 C 220.604 215.486,219.605 215.486,220.400 216.000 M166.834 216.850 C 168.068 217.195,174.708 217.203,175.923 216.860 C 176.431 216.717,174.376 216.595,171.356 216.590 C 168.337 216.584,166.302 216.701,166.834 216.850 M224.077 216.860 C 225.292 217.203,231.932 217.195,233.166 216.850 C 233.698 216.701,231.663 216.584,228.644 216.590 C 225.624 216.595,223.569 216.717,224.077 216.860 " stroke="none" fill="#bb8dec" fill-rule="evenodd"></path></g></svg>