<!-- Source: https://www.flaticon.com/free-icon/location_2934709?related_id=2954534&origin=search -->
<svg id="svg" version="1.1" xmlns="http://www.w3.org/2000/svg" xmlns:xlink="http://www.w3.org/1999/xlink" width="48" height="48" viewBox="0, 0, 400,400"><g id="svgg"><path id="path0" d="M192.800 27.617 C 148.967 30.017,107.495 60.211,92.830 100.400 C 92.549 101.170,92.169 102.160,91.986 102.600 C 91.340 104.150,89.799 109.137,88.773 113.000 C 87.183 118.984,86.868 120.636,85.603 129.600 C 85.055 133.487,85.054 151.318,85.603 155.200 C 86.712 163.053,87.737 168.248,89.173 173.300 C 89.408 174.125,89.759 175.385,89.953 176.100 C 90.402 177.759,91.528 181.133,92.020 182.300 C 92.229 182.795,92.560 183.605,92.755 184.100 C 94.878 189.477,98.449 196.792,100.895 200.776 C 101.781 202.219,103.042 204.300,103.699 205.400 C 104.355 206.500,105.012 207.490,105.159 207.600 C 105.307 207.710,106.315 209.057,107.401 210.594 C 114.974 221.315,128.606 233.797,140.410 240.817 C 144.302 243.132,149.410 245.810,152.600 247.208 C 156.847 249.069,157.939 249.498,163.700 251.564 C 186.403 259.707,221.471 258.844,241.800 249.642 C 244.703 248.328,246.423 247.600,246.625 247.600 C 247.287 247.600,255.805 243.099,260.247 240.402 C 274.167 231.950,290.414 215.963,297.037 204.200 C 297.284 203.760,298.264 202.140,299.214 200.600 C 301.213 197.358,305.974 187.615,307.131 184.400 C 309.045 179.081,309.929 176.480,310.394 174.800 C 310.669 173.810,311.030 172.550,311.197 172.000 C 311.504 170.988,312.051 168.534,312.823 164.700 C 313.055 163.545,313.415 161.832,313.623 160.894 C 313.830 159.956,314.004 158.516,314.010 157.694 C 314.015 156.872,314.192 155.480,314.404 154.600 C 314.924 152.433,314.919 133.169,314.396 129.524 C 313.449 122.907,312.718 118.786,311.982 115.900 C 311.250 113.025,310.705 110.993,310.402 110.000 C 308.641 104.232,308.211 102.947,307.928 102.620 C 307.748 102.411,307.600 101.999,307.600 101.705 C 307.600 100.809,303.171 91.248,300.788 87.000 C 296.871 80.017,295.419 77.670,293.740 75.609 C 293.468 75.274,292.409 73.875,291.388 72.500 C 287.571 67.358,281.104 60.468,275.432 55.500 C 267.251 48.333,254.684 40.347,246.399 37.050 C 245.410 36.656,244.060 36.099,243.400 35.811 C 229.282 29.653,210.666 26.639,192.800 27.617 M171.684 69.304 C 177.988 72.419,183.518 79.650,185.523 87.400 C 185.750 88.280,186.131 89.741,186.368 90.646 C 186.606 91.552,186.800 94.501,186.800 97.200 C 186.800 99.899,186.606 102.848,186.368 103.754 C 186.131 104.659,185.741 106.120,185.502 107.000 C 183.266 115.233,175.469 122.000,168.218 122.000 C 159.665 122.000,150.274 113.762,147.244 103.600 C 146.949 102.610,146.566 101.350,146.394 100.800 C 144.332 94.210,145.184 84.660,148.405 78.250 C 153.186 68.736,162.946 64.985,171.684 69.304 M241.705 68.680 C 247.034 70.782,251.820 76.329,253.543 82.400 C 253.824 83.390,254.222 84.753,254.427 85.428 C 254.954 87.164,254.891 97.212,254.339 99.494 C 247.473 127.889,218.648 130.109,213.784 102.617 C 210.303 82.942,226.855 62.823,241.705 68.680 M134.126 130.141 C 149.247 137.200,151.213 160.938,137.236 167.695 C 124.006 174.090,108.408 157.969,112.180 141.800 C 113.299 137.003,117.176 131.718,120.697 130.187 C 121.524 129.827,122.470 129.379,122.800 129.190 C 124.523 128.205,131.173 128.763,134.126 130.141 M277.081 129.256 C 280.328 130.580,281.138 131.087,283.002 132.959 C 297.170 147.189,280.819 176.038,263.179 167.934 C 250.184 161.964,250.209 140.435,263.221 131.762 C 264.894 130.646,265.538 130.311,268.000 129.275 C 269.357 128.704,275.695 128.691,277.081 129.256 M206.617 136.141 C 212.470 137.717,218.540 142.315,222.798 148.400 C 223.337 149.170,224.098 150.149,224.489 150.575 C 224.880 151.002,225.200 151.587,225.200 151.875 C 225.200 152.164,225.380 152.400,225.600 152.400 C 225.820 152.400,226.000 152.597,226.000 152.838 C 226.000 153.079,226.339 153.754,226.753 154.338 C 227.576 155.499,228.478 157.061,232.094 163.600 C 235.033 168.912,239.203 175.320,240.426 176.400 C 241.128 177.019,243.329 180.647,244.340 182.849 C 250.548 196.374,247.916 210.151,238.176 215.112 C 231.972 218.271,225.213 217.941,214.400 213.949 C 207.629 211.449,208.416 211.697,205.059 210.997 C 200.814 210.111,195.627 210.410,191.541 211.774 C 191.244 211.874,188.570 212.852,185.600 213.949 C 169.452 219.910,159.330 217.614,154.094 206.800 C 152.400 203.301,151.898 195.847,153.004 190.600 C 153.619 187.680,153.992 186.533,155.247 183.704 C 155.661 182.772,156.000 181.907,156.000 181.782 C 156.000 181.521,159.215 176.700,159.589 176.400 C 159.726 176.290,160.271 175.570,160.800 174.800 C 161.329 174.030,161.861 173.310,161.982 173.200 C 162.103 173.090,162.668 172.280,163.237 171.400 C 165.099 168.521,165.373 168.054,168.988 161.600 C 171.851 156.489,172.469 155.435,173.247 154.338 C 173.661 153.754,174.000 153.079,174.000 152.838 C 174.000 152.597,174.180 152.400,174.400 152.400 C 174.620 152.400,174.800 152.164,174.800 151.875 C 174.800 151.587,175.120 151.002,175.511 150.575 C 175.902 150.149,176.663 149.170,177.202 148.400 C 181.655 142.037,188.205 137.223,194.000 136.052 C 195.210 135.808,196.560 135.525,197.000 135.424 C 198.358 135.111,204.491 135.568,206.617 136.141 " stroke="none" fill="#ebf3f3" fill-rule="evenodd"></path><path id="path1" d="M160.200 68.467 C 145.306 73.485,140.871 97.534,152.136 112.200 C 165.908 130.129,187.486 119.644,186.278 95.609 C 185.417 78.483,171.980 64.499,160.200 68.467 M232.731 68.548 C 231.703 68.796,230.728 69.135,230.564 69.300 C 230.401 69.465,230.017 69.600,229.711 69.600 C 226.889 69.600,219.582 77.260,217.065 82.857 C 205.868 107.750,226.502 132.871,244.577 116.352 C 262.712 99.777,253.715 63.468,232.731 68.548 M122.800 129.813 C 108.399 134.574,109.017 159.585,123.714 166.781 C 139.143 174.335,152.067 156.694,143.406 139.904 C 139.198 131.749,130.230 127.357,122.800 129.813 M267.765 129.906 C 251.769 135.618,248.893 160.810,263.475 167.486 C 278.169 174.213,293.750 153.288,285.771 137.543 C 282.381 130.852,274.489 127.505,267.765 129.906 M193.507 136.617 C 191.692 137.113,187.217 139.104,186.800 139.600 C 186.690 139.731,185.970 140.277,185.200 140.812 C 182.913 142.402,181.630 143.645,179.222 146.600 C 176.882 149.472,173.600 154.152,173.600 154.616 C 173.600 154.759,173.238 155.385,172.795 156.007 C 172.353 156.628,171.480 158.096,170.857 159.268 C 170.234 160.441,169.336 162.075,168.862 162.900 C 168.388 163.725,167.657 165.006,167.237 165.747 C 165.259 169.237,163.082 172.619,161.100 175.283 C 158.393 178.920,156.735 181.447,156.034 183.000 C 150.599 195.049,152.366 208.234,160.125 213.542 C 166.081 217.615,175.202 217.671,184.800 213.693 C 187.954 212.385,191.077 211.349,194.646 210.426 C 198.447 209.443,204.287 209.929,209.800 211.687 C 212.147 212.436,212.653 212.620,214.900 213.546 C 217.321 214.544,217.913 214.753,220.800 215.622 C 240.483 221.551,253.338 204.348,244.353 184.104 C 243.939 183.172,243.593 182.272,243.584 182.104 C 243.575 181.937,242.600 180.450,241.418 178.800 C 237.847 173.816,234.153 168.307,233.104 166.400 C 232.559 165.410,231.700 163.880,231.195 163.000 C 230.690 162.120,229.766 160.441,229.143 159.268 C 228.520 158.096,227.647 156.628,227.205 156.007 C 226.762 155.385,226.400 154.759,226.400 154.616 C 226.400 153.674,219.439 144.607,217.329 142.800 C 210.225 136.716,201.462 134.442,193.507 136.617 " stroke="none" fill="#3c5c6c" fill-rule="evenodd"></path><path id="path2" d="M181.900 0.273 C 180.195 0.361,178.800 0.606,178.800 0.817 C 178.800 1.028,177.720 1.200,176.400 1.200 C 175.067 1.200,174.000 1.378,174.000 1.600 C 174.000 1.820,173.100 2.000,172.000 2.000 C 170.900 2.000,170.000 2.162,170.000 2.360 C 170.000 2.558,169.145 2.831,168.100 2.968 C 163.358 3.587,162.816 3.702,163.025 4.040 C 163.147 4.238,162.707 4.400,162.047 4.400 C 161.387 4.400,160.736 4.580,160.600 4.800 C 160.464 5.020,159.733 5.200,158.976 5.200 C 158.219 5.200,157.600 5.380,157.600 5.600 C 157.600 5.820,157.060 6.000,156.400 6.000 C 155.740 6.000,155.200 6.180,155.200 6.400 C 155.200 6.620,154.660 6.800,154.000 6.800 C 153.340 6.800,152.800 6.980,152.800 7.200 C 152.800 7.420,152.361 7.600,151.824 7.600 C 151.287 7.600,150.750 7.757,150.632 7.948 C 150.514 8.140,149.828 8.435,149.108 8.604 C 147.514 8.979,147.729 8.905,145.851 9.724 C 144.999 10.096,143.964 10.400,143.551 10.400 C 143.138 10.400,142.800 10.580,142.800 10.800 C 142.800 11.020,142.440 11.200,142.000 11.200 C 141.560 11.200,141.200 11.380,141.200 11.600 C 141.200 11.820,140.840 12.000,140.400 12.000 C 139.960 12.000,139.600 12.158,139.600 12.350 C 139.600 12.542,139.082 12.804,138.448 12.930 C 137.815 13.057,137.018 13.440,136.677 13.780 C 136.336 14.121,135.774 14.400,135.429 14.400 C 135.083 14.400,134.800 14.580,134.800 14.800 C 134.800 15.020,134.440 15.200,134.000 15.200 C 133.560 15.200,133.200 15.380,133.200 15.600 C 133.200 15.820,132.840 16.000,132.400 16.000 C 131.960 16.000,131.600 16.180,131.600 16.400 C 131.600 16.620,131.240 16.800,130.800 16.800 C 130.360 16.800,130.000 16.959,130.000 17.153 C 130.000 17.348,129.685 17.607,129.300 17.729 C 128.364 18.025,126.234 19.324,126.067 19.700 C 125.993 19.865,125.718 20.000,125.455 20.000 C 125.192 20.000,124.717 20.360,124.400 20.800 C 124.083 21.240,123.503 21.600,123.112 21.600 C 122.720 21.600,122.400 21.780,122.400 22.000 C 122.400 22.220,122.164 22.400,121.875 22.400 C 121.587 22.400,120.964 22.760,120.492 23.200 C 120.020 23.640,119.484 24.000,119.302 24.000 C 119.119 24.000,118.347 24.533,117.585 25.184 C 116.823 25.835,115.995 26.375,115.744 26.384 C 115.493 26.393,114.593 27.026,113.744 27.791 C 112.895 28.556,112.068 29.186,111.907 29.191 C 111.564 29.202,110.072 30.506,106.742 33.706 C 105.423 34.974,104.148 35.891,103.910 35.744 C 103.651 35.585,103.592 35.663,103.762 35.938 C 103.919 36.192,103.896 36.400,103.710 36.400 C 103.239 36.400,94.374 45.109,93.181 46.745 C 92.641 47.484,91.435 48.875,90.500 49.834 C 89.565 50.794,88.800 51.763,88.800 51.989 C 88.800 52.215,88.080 53.141,87.200 54.048 C 86.320 54.955,85.600 55.905,85.600 56.160 C 85.600 56.415,85.240 56.883,84.800 57.200 C 84.360 57.517,84.000 58.107,84.000 58.512 C 84.000 58.916,83.847 59.153,83.660 59.037 C 83.473 58.922,83.083 59.271,82.793 59.814 C 82.502 60.356,82.115 60.800,81.932 60.800 C 81.750 60.800,81.600 60.988,81.600 61.217 C 81.600 61.446,81.240 62.020,80.800 62.492 C 80.360 62.964,80.000 63.587,80.000 63.875 C 80.000 64.164,79.820 64.400,79.600 64.400 C 79.380 64.400,79.200 64.636,79.200 64.925 C 79.200 65.213,78.840 65.836,78.400 66.308 C 77.960 66.780,77.600 67.433,77.600 67.760 C 77.600 68.086,77.417 68.466,77.194 68.604 C 76.587 68.979,75.196 71.863,75.484 72.150 C 75.621 72.288,75.523 72.400,75.267 72.400 C 75.010 72.400,74.800 72.720,74.800 73.112 C 74.800 73.503,74.440 74.083,74.000 74.400 C 73.560 74.717,73.200 75.199,73.200 75.471 C 73.200 75.742,72.660 76.881,72.000 78.000 C 71.340 79.119,70.800 80.297,70.800 80.618 C 70.800 80.938,70.620 81.200,70.400 81.200 C 70.180 81.200,70.000 81.650,70.000 82.200 C 70.000 82.750,69.820 83.200,69.600 83.200 C 69.380 83.200,69.200 83.560,69.200 84.000 C 69.200 84.440,69.020 84.800,68.800 84.800 C 68.580 84.800,68.400 85.160,68.400 85.600 C 68.400 86.040,68.220 86.400,68.000 86.400 C 67.780 86.400,67.600 86.940,67.600 87.600 C 67.600 88.260,67.420 88.800,67.200 88.800 C 66.980 88.800,66.800 89.160,66.800 89.600 C 66.800 90.040,66.620 90.400,66.400 90.400 C 66.180 90.400,66.000 90.839,66.000 91.376 C 66.000 91.913,65.820 92.464,65.600 92.600 C 65.380 92.736,65.200 93.276,65.200 93.800 C 65.200 94.324,65.020 94.864,64.800 95.000 C 64.580 95.136,64.400 95.687,64.400 96.224 C 64.400 96.761,64.220 97.200,64.000 97.200 C 63.780 97.200,63.600 97.740,63.600 98.400 C 63.600 99.060,63.420 99.600,63.200 99.600 C 62.980 99.600,62.800 100.140,62.800 100.800 C 62.800 101.460,62.620 102.000,62.400 102.000 C 62.180 102.000,62.000 102.720,62.000 103.600 C 62.000 104.480,61.840 105.200,61.644 105.200 C 61.448 105.200,61.186 105.785,61.063 106.500 C 60.939 107.215,60.727 108.430,60.592 109.200 C 60.456 109.970,60.188 110.960,59.995 111.400 C 59.803 111.840,59.554 112.920,59.443 113.800 C 59.332 114.680,59.065 116.390,58.850 117.600 C 58.634 118.810,58.445 121.105,58.429 122.700 C 58.413 124.347,58.227 125.600,58.000 125.600 C 57.757 125.600,57.600 127.400,57.600 130.200 C 57.600 133.118,57.448 134.800,57.184 134.800 C 56.903 134.800,56.836 137.362,56.978 142.700 C 57.366 157.224,57.638 162.800,57.959 162.800 C 58.134 162.800,58.400 165.521,58.550 168.848 C 58.700 172.174,58.998 175.222,59.211 175.621 C 59.425 176.021,59.600 177.249,59.600 178.350 C 59.600 179.452,59.780 180.464,60.000 180.600 C 60.220 180.736,60.400 181.726,60.400 182.800 C 60.400 183.874,60.580 184.864,60.800 185.000 C 61.020 185.136,61.200 186.011,61.200 186.944 C 61.200 187.877,61.371 188.811,61.581 189.021 C 61.790 189.230,62.007 190.076,62.063 190.901 C 62.118 191.725,62.307 192.400,62.482 192.400 C 62.657 192.400,62.800 193.120,62.800 194.000 C 62.800 194.880,62.980 195.600,63.200 195.600 C 63.420 195.600,63.600 196.219,63.600 196.976 C 63.600 197.733,63.780 198.464,64.000 198.600 C 64.220 198.736,64.400 199.557,64.400 200.424 C 64.400 201.291,64.580 202.000,64.800 202.000 C 65.020 202.000,65.200 202.392,65.200 202.872 C 65.200 203.672,65.660 205.393,66.410 207.400 C 66.574 207.840,66.927 209.010,67.193 210.000 C 67.460 210.990,67.840 212.113,68.039 212.495 C 68.238 212.877,68.400 213.537,68.400 213.961 C 68.400 214.386,68.574 214.793,68.787 214.867 C 69.000 214.940,69.219 215.585,69.272 216.300 C 69.326 217.015,69.512 217.600,69.685 217.600 C 69.858 217.600,70.000 218.140,70.000 218.800 C 70.000 219.460,70.180 220.000,70.400 220.000 C 70.620 220.000,70.800 220.439,70.800 220.976 C 70.800 221.513,70.980 222.064,71.200 222.200 C 71.420 222.336,71.600 222.897,71.600 223.447 C 71.600 224.012,71.774 224.340,72.000 224.200 C 72.227 224.060,72.400 224.396,72.400 224.976 C 72.400 225.539,72.580 226.000,72.800 226.000 C 73.020 226.000,73.200 226.540,73.200 227.200 C 73.200 227.860,73.380 228.400,73.600 228.400 C 73.820 228.400,74.000 228.749,74.000 229.176 C 74.000 229.603,74.180 230.064,74.400 230.200 C 74.620 230.336,74.800 230.887,74.800 231.424 C 74.800 231.961,74.942 232.400,75.115 232.400 C 75.288 232.400,75.456 232.745,75.488 233.167 C 75.519 233.589,76.008 234.911,76.573 236.106 C 77.138 237.300,77.600 238.449,77.600 238.659 C 77.600 239.287,78.577 241.194,78.900 241.197 C 79.065 241.199,79.200 241.650,79.200 242.200 C 79.200 242.750,79.380 243.200,79.600 243.200 C 79.820 243.200,80.000 243.438,80.000 243.729 C 80.000 244.020,80.540 245.373,81.200 246.735 C 81.860 248.098,82.400 249.480,82.400 249.806 C 82.400 250.133,82.580 250.400,82.800 250.400 C 83.020 250.400,83.200 250.760,83.200 251.200 C 83.200 251.640,83.335 252.001,83.500 252.003 C 83.859 252.007,84.800 253.944,84.800 254.680 C 84.800 254.966,84.968 255.200,85.174 255.200 C 85.380 255.200,85.776 255.830,86.054 256.600 C 86.333 257.370,86.705 258.000,86.880 258.000 C 87.056 258.000,87.200 258.360,87.200 258.800 C 87.200 259.240,87.380 259.600,87.600 259.600 C 87.820 259.600,88.000 259.960,88.000 260.400 C 88.000 260.840,88.180 261.200,88.400 261.200 C 88.620 261.200,88.800 261.560,88.800 262.000 C 88.800 262.440,88.980 262.800,89.200 262.800 C 89.420 262.800,89.600 263.078,89.600 263.417 C 89.600 263.756,89.960 264.420,90.400 264.892 C 90.840 265.364,91.200 265.987,91.200 266.275 C 91.200 266.564,91.380 266.800,91.600 266.800 C 91.820 266.800,92.000 267.073,92.000 267.407 C 92.000 268.110,93.678 271.477,95.186 273.800 C 95.757 274.680,96.474 275.895,96.780 276.500 C 97.085 277.105,97.485 277.600,97.668 277.600 C 97.850 277.600,98.000 277.960,98.000 278.400 C 98.000 278.840,98.180 279.200,98.400 279.200 C 98.620 279.200,98.800 279.494,98.800 279.853 C 98.800 280.212,99.115 280.798,99.500 281.154 C 100.296 281.891,101.541 283.858,101.871 284.900 C 101.993 285.285,102.252 285.600,102.447 285.600 C 102.641 285.600,102.800 285.836,102.800 286.125 C 102.800 286.413,103.160 287.036,103.600 287.508 C 104.040 287.980,104.400 288.553,104.400 288.780 C 104.400 289.007,104.760 289.418,105.200 289.693 C 105.640 289.968,106.000 290.443,106.000 290.749 C 106.000 291.056,106.315 291.599,106.700 291.957 C 107.085 292.316,107.625 293.012,107.900 293.504 C 108.175 293.997,108.625 294.805,108.900 295.300 C 109.175 295.795,109.508 296.290,109.641 296.400 C 109.773 296.510,110.199 297.275,110.586 298.100 C 110.974 298.925,111.451 299.600,111.646 299.600 C 111.841 299.600,112.000 299.778,112.000 299.995 C 112.000 300.367,112.760 301.415,113.900 302.616 C 114.175 302.906,114.400 303.386,114.400 303.683 C 114.400 303.980,114.760 304.483,115.200 304.800 C 115.640 305.117,116.000 305.540,116.000 305.740 C 116.000 306.067,116.636 306.858,119.831 310.507 C 120.364 311.116,120.800 311.808,120.800 312.046 C 120.800 312.284,121.349 312.992,122.020 313.618 C 122.691 314.245,123.186 314.843,123.120 314.947 C 123.054 315.051,123.360 315.555,123.800 316.068 C 124.240 316.581,124.938 317.540,125.352 318.200 C 125.766 318.860,126.559 319.805,127.114 320.300 C 127.670 320.795,127.991 321.200,127.829 321.200 C 127.524 321.200,129.087 323.251,131.071 325.453 C 133.415 328.054,135.405 330.469,135.555 330.892 C 135.641 331.134,136.496 332.117,137.455 333.076 C 138.415 334.036,139.200 334.989,139.200 335.193 C 139.200 335.398,140.145 336.536,141.300 337.722 C 143.411 339.890,145.244 342.000,145.018 342.000 C 144.951 342.000,146.231 343.395,147.863 345.100 C 152.114 349.542,152.830 350.345,152.786 350.618 C 152.739 350.913,154.414 352.400,154.794 352.400 C 154.943 352.400,155.302 352.844,155.593 353.386 C 155.883 353.929,156.273 354.278,156.460 354.163 C 156.647 354.047,156.800 354.130,156.800 354.346 C 156.800 354.850,173.119 371.200,173.622 371.200 C 173.830 371.200,174.000 371.500,174.000 371.867 C 174.000 372.233,174.091 372.442,174.203 372.331 C 174.399 372.135,176.007 373.519,180.671 377.900 C 181.901 379.055,183.074 380.000,183.277 380.000 C 183.481 380.000,183.536 380.180,183.400 380.400 C 183.264 380.620,183.355 380.800,183.602 380.800 C 184.028 380.800,184.654 381.321,187.756 384.254 C 189.588 385.987,191.945 386.400,200.000 386.400 C 209.106 386.400,210.234 386.126,213.334 383.162 C 214.691 381.865,215.921 380.803,216.069 380.802 C 216.217 380.801,217.626 379.540,219.200 378.000 C 220.774 376.460,222.239 375.200,222.454 375.200 C 222.670 375.200,222.736 375.020,222.600 374.800 C 222.464 374.580,222.588 374.397,222.876 374.393 C 223.164 374.389,223.824 373.939,224.342 373.393 C 224.860 372.847,225.445 372.400,225.642 372.400 C 225.839 372.400,226.000 372.130,226.000 371.800 C 226.000 371.470,226.152 371.200,226.339 371.200 C 226.871 371.200,228.400 369.756,228.400 369.253 C 228.400 369.004,228.578 368.800,228.795 368.800 C 229.296 368.800,240.800 357.325,240.800 356.825 C 240.800 356.621,241.160 356.340,241.600 356.200 C 242.040 356.060,242.400 355.658,242.400 355.306 C 242.400 354.955,242.499 354.766,242.620 354.887 C 242.831 355.098,247.200 350.959,247.200 350.548 C 247.200 350.328,248.025 349.413,251.591 345.677 C 252.916 344.290,254.000 342.985,254.000 342.777 C 254.000 342.570,254.300 342.400,254.667 342.400 C 255.033 342.400,255.228 342.295,255.100 342.166 C 254.796 341.862,255.635 340.817,258.700 337.683 C 260.075 336.277,261.200 334.951,261.200 334.737 C 261.200 334.523,262.100 333.471,263.200 332.400 C 264.300 331.329,265.200 330.282,265.200 330.074 C 265.200 329.866,265.875 328.994,266.700 328.136 C 268.250 326.524,269.850 324.545,271.624 322.044 C 272.187 321.250,273.132 320.079,273.724 319.442 C 274.316 318.804,274.800 318.154,274.800 317.997 C 274.800 317.453,277.093 314.826,277.346 315.079 C 277.486 315.219,277.600 314.943,277.600 314.467 C 277.600 313.990,277.750 313.600,277.932 313.600 C 278.115 313.600,278.519 313.105,278.830 312.500 C 279.140 311.895,279.669 311.130,280.005 310.800 C 281.123 309.700,284.000 306.093,284.000 305.791 C 284.000 305.628,284.316 305.203,284.703 304.847 C 285.089 304.491,285.658 303.708,285.967 303.107 C 286.275 302.505,286.866 301.650,287.280 301.207 C 287.693 300.763,287.910 300.400,287.761 300.400 C 287.612 300.400,287.965 299.925,288.545 299.345 C 289.125 298.765,289.600 298.045,289.600 297.745 C 289.600 297.445,289.745 297.200,289.923 297.200 C 290.101 297.200,290.564 296.480,290.952 295.600 C 291.340 294.720,291.825 294.000,292.029 294.000 C 292.233 294.000,292.400 293.680,292.400 293.288 C 292.400 292.897,292.760 292.317,293.200 292.000 C 293.640 291.683,294.000 291.146,294.000 290.808 C 294.000 290.469,294.360 289.968,294.800 289.693 C 295.240 289.418,295.600 288.925,295.600 288.597 C 295.600 288.268,295.750 288.000,295.932 288.000 C 296.115 288.000,296.520 287.505,296.832 286.900 C 297.144 286.295,297.489 285.710,297.599 285.600 C 297.995 285.206,299.254 282.987,299.471 282.300 C 299.593 281.915,299.852 281.600,300.047 281.600 C 300.241 281.600,300.400 281.330,300.400 281.000 C 300.400 280.670,300.580 280.400,300.800 280.400 C 301.020 280.400,301.200 280.130,301.200 279.800 C 301.200 279.470,301.380 279.200,301.600 279.200 C 301.820 279.200,302.000 278.840,302.000 278.400 C 302.000 277.960,302.159 277.600,302.354 277.600 C 302.549 277.600,302.993 277.015,303.341 276.300 C 303.688 275.585,304.518 274.190,305.185 273.200 C 305.851 272.210,306.397 271.085,306.398 270.700 C 306.399 270.315,306.558 270.000,306.751 270.000 C 306.945 270.000,307.323 269.415,307.592 268.700 C 308.383 266.597,308.882 265.663,309.664 264.823 C 310.069 264.389,310.400 263.756,310.400 263.417 C 310.400 263.078,310.558 262.800,310.750 262.800 C 310.943 262.800,311.204 262.282,311.330 261.648 C 311.457 261.015,311.840 260.218,312.180 259.877 C 312.521 259.536,312.800 258.974,312.800 258.629 C 312.800 258.283,312.946 258.000,313.125 258.000 C 313.304 258.000,313.698 257.370,314.000 256.600 C 314.302 255.830,314.696 255.200,314.875 255.200 C 315.054 255.200,315.200 254.851,315.200 254.424 C 315.200 253.997,315.380 253.536,315.600 253.400 C 315.820 253.264,316.000 252.803,316.000 252.376 C 316.000 251.949,316.180 251.600,316.400 251.600 C 316.620 251.600,316.800 251.330,316.800 251.000 C 316.800 250.670,316.980 250.400,317.200 250.400 C 317.420 250.400,317.600 250.034,317.600 249.586 C 317.600 249.138,317.891 248.328,318.246 247.786 C 318.601 247.244,318.736 246.797,318.546 246.794 C 318.356 246.791,318.380 246.656,318.600 246.494 C 319.188 246.062,320.000 244.503,320.000 243.805 C 320.000 243.472,320.180 243.200,320.400 243.200 C 320.620 243.200,320.800 242.750,320.800 242.200 C 320.800 241.650,320.935 241.199,321.100 241.197 C 321.423 241.194,322.400 239.287,322.400 238.659 C 322.400 238.449,322.862 237.300,323.427 236.106 C 323.992 234.911,324.481 233.589,324.512 233.167 C 324.544 232.745,324.712 232.400,324.885 232.400 C 325.058 232.400,325.200 232.051,325.200 231.624 C 325.200 231.197,325.380 230.736,325.600 230.600 C 325.820 230.464,326.000 229.913,326.000 229.376 C 326.000 228.839,326.180 228.400,326.400 228.400 C 326.620 228.400,326.800 227.860,326.800 227.200 C 326.800 226.540,326.980 226.000,327.200 226.000 C 327.420 226.000,327.600 225.539,327.600 224.976 C 327.600 224.396,327.773 224.060,328.000 224.200 C 328.226 224.340,328.400 224.012,328.400 223.447 C 328.400 222.897,328.580 222.336,328.800 222.200 C 329.020 222.064,329.200 221.513,329.200 220.976 C 329.200 220.439,329.380 220.000,329.600 220.000 C 329.820 220.000,330.000 219.460,330.000 218.800 C 330.000 218.140,330.180 217.600,330.400 217.600 C 330.620 217.600,330.800 217.060,330.800 216.400 C 330.800 215.740,330.980 215.200,331.200 215.200 C 331.420 215.200,331.600 214.748,331.600 214.195 C 331.600 213.642,331.762 212.877,331.961 212.495 C 332.160 212.113,332.537 210.990,332.800 210.000 C 333.063 209.010,333.440 207.887,333.639 207.505 C 333.838 207.123,334.000 206.459,334.000 206.029 C 334.000 205.599,334.180 205.136,334.400 205.000 C 334.620 204.864,334.800 204.033,334.800 203.153 C 334.800 202.273,334.944 201.642,335.120 201.751 C 335.296 201.859,335.484 201.294,335.538 200.493 C 335.592 199.693,335.787 198.850,335.971 198.619 C 336.283 198.228,336.491 197.249,337.057 193.502 C 337.182 192.678,337.409 192.082,337.562 192.176 C 337.715 192.271,337.885 191.685,337.939 190.875 C 337.994 190.065,338.210 189.230,338.419 189.021 C 338.629 188.811,338.800 187.877,338.800 186.944 C 338.800 186.011,338.980 185.136,339.200 185.000 C 339.420 184.864,339.600 183.874,339.600 182.800 C 339.600 181.726,339.780 180.736,340.000 180.600 C 340.220 180.464,340.400 179.294,340.400 178.000 C 340.400 176.706,340.577 175.538,340.794 175.404 C 341.011 175.270,341.175 174.764,341.159 174.280 C 341.073 171.690,341.772 162.800,342.062 162.800 C 342.248 162.800,342.400 160.100,342.400 156.800 C 342.400 152.934,342.547 150.800,342.814 150.800 C 343.086 150.800,343.212 148.071,343.183 142.795 C 343.157 138.012,342.990 134.882,342.770 135.019 C 342.551 135.154,342.400 133.272,342.400 130.424 C 342.400 127.771,342.244 125.600,342.053 125.600 C 341.863 125.600,341.602 123.845,341.474 121.700 C 341.347 119.555,341.129 117.260,340.990 116.600 C 340.852 115.940,340.645 114.590,340.530 113.600 C 340.416 112.610,340.160 111.629,339.961 111.420 C 339.763 111.211,339.600 110.446,339.600 109.720 C 339.600 108.994,339.420 108.400,339.200 108.400 C 338.980 108.400,338.800 107.695,338.800 106.833 C 338.800 105.972,338.628 105.207,338.418 105.133 C 338.207 105.060,337.990 104.325,337.936 103.500 C 337.881 102.675,337.693 102.000,337.518 102.000 C 337.343 102.000,337.200 101.460,337.200 100.800 C 337.200 100.140,337.020 99.600,336.800 99.600 C 336.580 99.600,336.400 99.161,336.400 98.624 C 336.400 98.087,336.220 97.536,336.000 97.400 C 335.780 97.264,335.600 96.724,335.600 96.200 C 335.600 95.676,335.420 95.136,335.200 95.000 C 334.980 94.864,334.800 94.324,334.800 93.800 C 334.800 93.276,334.620 92.736,334.400 92.600 C 334.180 92.464,334.000 91.913,334.000 91.376 C 334.000 90.839,333.820 90.400,333.600 90.400 C 333.380 90.400,333.200 90.040,333.200 89.600 C 333.200 89.160,333.020 88.800,332.800 88.800 C 332.580 88.800,332.400 88.361,332.400 87.824 C 332.400 87.287,332.220 86.736,332.000 86.600 C 331.780 86.464,331.600 86.003,331.600 85.576 C 331.600 85.149,331.420 84.800,331.200 84.800 C 330.980 84.800,330.800 84.440,330.800 84.000 C 330.800 83.560,330.620 83.200,330.400 83.200 C 330.180 83.200,330.000 82.750,330.000 82.200 C 330.000 81.650,329.820 81.200,329.600 81.200 C 329.380 81.200,329.200 80.975,329.201 80.700 C 329.203 80.070,327.503 76.646,327.100 76.467 C 326.935 76.393,326.800 76.028,326.800 75.655 C 326.800 75.282,326.440 74.717,326.000 74.400 C 325.560 74.083,325.200 73.503,325.200 73.112 C 325.200 72.720,324.990 72.400,324.733 72.400 C 324.477 72.400,324.382 72.285,324.523 72.144 C 324.774 71.892,323.868 69.982,322.936 68.800 C 322.676 68.470,322.404 67.937,322.332 67.616 C 322.259 67.294,321.885 66.675,321.500 66.240 C 321.115 65.805,320.800 65.213,320.800 64.925 C 320.800 64.636,320.620 64.400,320.400 64.400 C 320.180 64.400,320.000 64.164,320.000 63.875 C 320.000 63.587,319.640 62.964,319.200 62.492 C 318.760 62.020,318.400 61.446,318.400 61.217 C 318.400 60.988,318.220 60.800,318.000 60.800 C 317.780 60.800,317.600 60.607,317.600 60.371 C 317.600 59.779,316.551 58.782,316.248 59.086 C 316.111 59.222,316.000 58.983,316.000 58.555 C 316.000 58.127,315.640 57.517,315.200 57.200 C 314.760 56.883,314.400 56.415,314.400 56.160 C 314.400 55.905,313.680 54.955,312.800 54.048 C 311.920 53.141,311.200 52.119,311.200 51.776 C 311.200 51.433,311.020 51.264,310.800 51.400 C 310.580 51.536,310.400 51.451,310.400 51.210 C 310.400 50.970,309.815 50.152,309.100 49.394 C 306.643 46.786,306.000 46.028,306.000 45.741 C 306.000 45.337,295.940 35.600,295.524 35.600 C 295.336 35.600,294.213 34.655,293.027 33.500 C 289.968 30.519,288.439 29.200,288.043 29.200 C 287.855 29.200,287.013 28.570,286.172 27.800 C 285.331 27.030,284.454 26.393,284.222 26.384 C 283.990 26.375,283.177 25.835,282.415 25.184 C 281.653 24.533,280.838 24.000,280.603 24.000 C 280.369 24.000,279.917 23.640,279.600 23.200 C 279.283 22.760,278.703 22.400,278.312 22.400 C 277.920 22.400,277.600 22.220,277.600 22.000 C 277.600 21.780,277.280 21.600,276.888 21.600 C 276.497 21.600,275.917 21.240,275.600 20.800 C 275.283 20.360,274.793 20.000,274.512 20.000 C 274.230 20.000,274.000 19.820,274.000 19.600 C 274.000 19.380,273.764 19.200,273.475 19.200 C 273.187 19.200,272.564 18.840,272.092 18.400 C 271.620 17.960,271.082 17.600,270.896 17.600 C 270.303 17.600,268.406 16.611,268.403 16.300 C 268.401 16.135,268.040 16.000,267.600 16.000 C 267.160 16.000,266.800 15.820,266.800 15.600 C 266.800 15.380,266.440 15.200,266.000 15.200 C 265.560 15.200,265.200 15.020,265.200 14.800 C 265.200 14.580,264.840 14.400,264.400 14.400 C 263.960 14.400,263.600 14.220,263.600 14.000 C 263.600 13.780,263.240 13.600,262.800 13.600 C 262.360 13.600,262.000 13.420,262.000 13.200 C 262.000 12.980,261.640 12.800,261.200 12.800 C 260.760 12.800,260.400 12.620,260.400 12.400 C 260.400 12.180,260.128 12.000,259.795 12.000 C 259.239 12.000,257.678 11.278,257.200 10.800 C 256.876 10.476,253.141 9.136,251.300 8.683 C 250.365 8.453,249.600 8.116,249.600 7.933 C 249.600 7.750,249.060 7.600,248.400 7.600 C 247.740 7.600,247.200 7.420,247.200 7.200 C 247.200 6.980,246.660 6.800,246.000 6.800 C 245.340 6.800,244.800 6.620,244.800 6.400 C 244.800 6.180,244.260 6.000,243.600 6.000 C 242.940 6.000,242.400 5.820,242.400 5.600 C 242.400 5.380,241.781 5.200,241.024 5.200 C 240.267 5.200,239.536 5.020,239.400 4.800 C 239.264 4.580,238.613 4.400,237.953 4.400 C 237.255 4.400,236.856 4.233,237.000 4.000 C 237.149 3.758,236.604 3.600,235.624 3.600 C 234.731 3.600,234.000 3.420,234.000 3.200 C 234.000 2.980,233.100 2.800,232.000 2.800 C 230.900 2.800,230.000 2.620,230.000 2.400 C 230.000 2.180,229.100 2.000,228.000 2.000 C 226.900 2.000,226.000 1.820,226.000 1.600 C 226.000 1.380,225.025 1.200,223.833 1.200 C 222.498 1.200,221.605 1.015,221.506 0.718 C 221.346 0.238,189.481 -0.120,181.900 0.273 M213.200 27.630 C 213.970 27.831,215.272 27.997,216.094 27.998 C 216.916 27.999,218.356 28.173,219.294 28.384 C 220.232 28.595,222.080 28.982,223.400 29.243 C 225.636 29.687,228.240 30.326,231.600 31.257 C 232.370 31.471,233.540 31.794,234.200 31.975 C 239.787 33.511,250.921 38.273,255.800 41.213 C 256.900 41.876,258.070 42.536,258.400 42.681 C 260.612 43.648,270.146 50.431,275.400 54.777 C 287.417 64.716,300.525 82.866,306.832 98.300 C 307.034 98.795,307.401 99.695,307.647 100.300 C 307.892 100.905,308.252 101.713,308.447 102.095 C 308.641 102.477,308.800 103.141,308.800 103.571 C 308.800 104.001,308.959 104.451,309.152 104.570 C 309.346 104.690,309.603 105.196,309.724 105.694 C 309.845 106.192,310.137 107.275,310.372 108.100 C 312.240 114.650,312.674 116.419,313.532 121.000 C 316.791 138.395,315.964 157.050,311.190 173.800 C 310.939 174.680,310.638 175.897,310.521 176.505 C 310.404 177.113,310.149 177.708,309.954 177.829 C 309.759 177.949,309.600 178.451,309.600 178.944 C 309.600 179.437,309.457 180.011,309.282 180.220 C 309.107 180.429,308.735 181.320,308.455 182.200 C 306.217 189.249,297.261 205.850,292.696 211.412 C 292.340 211.845,291.188 213.280,290.136 214.600 C 285.152 220.852,278.861 227.089,271.174 233.400 C 269.382 234.872,262.109 240.000,261.814 240.000 C 261.654 240.000,261.046 240.339,260.462 240.753 C 254.796 244.770,240.637 251.087,232.400 253.274 C 231.630 253.478,230.370 253.829,229.600 254.053 C 227.381 254.699,222.011 255.843,218.600 256.397 C 207.143 258.258,192.494 258.262,181.600 256.406 C 177.322 255.677,172.500 254.664,170.400 254.053 C 169.630 253.829,168.370 253.477,167.600 253.271 C 159.065 250.989,145.521 244.885,138.928 240.350 C 138.008 239.718,137.063 239.200,136.828 239.200 C 136.593 239.200,136.400 239.020,136.400 238.800 C 136.400 238.580,136.229 238.400,136.020 238.400 C 133.493 238.400,116.540 222.975,109.864 214.600 C 108.812 213.280,107.660 211.845,107.304 211.412 C 103.308 206.543,95.513 192.507,92.303 184.400 C 92.085 183.850,91.748 183.087,91.553 182.705 C 91.359 182.323,91.200 181.659,91.200 181.229 C 91.200 180.799,91.020 180.336,90.800 180.200 C 90.580 180.064,90.400 179.524,90.400 179.000 C 90.400 178.476,90.241 177.949,90.046 177.829 C 89.851 177.708,89.596 177.113,89.479 176.505 C 89.362 175.897,89.081 174.770,88.855 174.000 C 85.818 163.638,84.623 154.715,84.623 142.400 C 84.623 132.727,85.378 124.957,86.973 118.200 C 87.077 117.760,87.459 116.140,87.822 114.600 C 88.185 113.060,88.708 111.080,88.984 110.200 C 89.259 109.320,89.722 107.790,90.012 106.800 C 90.302 105.810,90.688 104.829,90.870 104.620 C 91.051 104.411,91.200 103.914,91.200 103.515 C 91.200 103.116,91.359 102.477,91.553 102.095 C 91.899 101.415,92.450 100.105,93.148 98.300 C 95.880 91.244,106.162 73.807,109.600 70.400 C 109.711 70.290,111.091 68.670,112.667 66.800 C 115.303 63.671,121.733 57.201,124.600 54.792 C 129.402 50.757,137.293 45.120,141.381 42.804 C 142.161 42.362,143.391 41.665,144.112 41.256 C 150.283 37.758,159.863 33.662,165.800 31.984 C 170.278 30.718,171.110 30.500,174.900 29.593 C 179.581 28.474,185.745 27.606,191.800 27.215 C 197.505 26.847,211.215 27.113,213.200 27.630 " stroke="none" fill="#d534b5" fill-rule="evenodd"></path><path id="path3" d="M214.779 381.822 C 214.251 382.384,214.088 382.741,214.418 382.614 C 214.939 382.415,216.234 380.800,215.873 380.800 C 215.800 380.800,215.307 381.260,214.779 381.822 M142.900 386.136 C 142.405 386.386,142.000 386.727,142.000 386.895 C 142.000 387.063,141.640 387.200,141.200 387.200 C 140.742 387.200,140.400 387.467,140.400 387.824 C 140.400 388.167,140.220 388.336,140.000 388.200 C 139.780 388.064,139.600 388.323,139.600 388.776 C 139.600 389.229,139.420 389.600,139.200 389.600 C 138.980 389.600,138.800 390.129,138.800 390.776 C 138.800 391.423,138.620 392.064,138.400 392.200 C 138.180 392.336,138.000 392.797,138.000 393.224 C 138.000 393.651,138.180 394.000,138.400 394.000 C 138.620 394.000,138.800 394.644,138.800 395.431 C 138.800 396.583,139.119 397.169,140.433 398.431 L 142.065 400.000 200.000 400.000 L 257.935 400.000 259.567 398.431 C 260.881 397.169,261.200 396.583,261.200 395.431 C 261.200 394.644,261.380 394.000,261.600 394.000 C 261.820 394.000,262.000 393.651,262.000 393.224 C 262.000 392.797,261.820 392.336,261.600 392.200 C 261.380 392.064,261.200 391.506,261.200 390.960 C 261.200 390.413,260.840 389.580,260.400 389.108 C 259.960 388.636,259.600 388.013,259.600 387.725 C 259.600 387.436,259.240 387.200,258.800 387.200 C 258.360 387.200,258.000 387.020,258.000 386.800 C 258.000 386.580,257.640 386.400,257.200 386.400 C 256.760 386.400,256.400 386.213,256.400 385.985 C 256.400 385.701,248.752 385.640,232.100 385.791 C 202.996 386.056,199.106 386.059,168.000 385.847 C 150.458 385.728,143.552 385.807,142.900 386.136 " stroke="none" fill="#842c74" fill-rule="evenodd"></path><path id="path4" d="M191.800 27.215 C 186.367 27.566,180.420 28.341,176.600 29.197 C 175.720 29.394,174.484 29.664,173.853 29.797 C 173.222 29.930,172.795 30.128,172.904 30.237 C 173.013 30.346,174.879 30.076,177.051 29.637 C 184.843 28.063,190.655 27.529,200.000 27.529 C 211.336 27.529,215.443 28.023,229.600 31.093 C 230.150 31.212,230.492 31.192,230.361 31.049 C 230.093 30.757,227.036 29.964,223.400 29.243 C 222.080 28.982,220.232 28.595,219.294 28.384 C 218.356 28.173,216.916 27.999,216.094 27.998 C 215.272 27.997,213.970 27.831,213.200 27.630 C 211.215 27.113,197.505 26.847,191.800 27.215 M169.800 30.799 C 169.360 30.988,168.460 31.275,167.800 31.435 C 167.140 31.596,166.870 31.789,167.200 31.864 C 167.530 31.938,168.880 31.656,170.200 31.236 C 171.630 30.781,172.196 30.469,171.600 30.464 C 171.050 30.458,170.240 30.609,169.800 30.799 M231.400 31.600 C 232.596 32.114,233.595 32.114,232.800 31.600 C 232.470 31.387,231.840 31.222,231.400 31.234 L 230.600 31.256 231.400 31.600 M164.200 32.413 C 163.760 32.610,161.600 33.431,159.400 34.238 C 154.947 35.871,151.394 37.418,147.800 39.290 C 145.508 40.484,144.580 40.992,141.381 42.804 C 137.293 45.120,129.402 50.757,124.600 54.792 C 121.733 57.201,115.303 63.671,112.667 66.800 C 111.091 68.670,109.711 70.290,109.600 70.400 C 106.980 72.996,96.306 90.040,96.918 90.651 C 97.017 90.751,97.591 89.892,98.192 88.743 C 111.724 62.864,136.651 41.761,163.900 33.118 C 165.275 32.682,166.400 32.252,166.400 32.163 C 166.400 31.883,165.037 32.038,164.200 32.413 M233.600 32.154 C 233.600 32.239,234.545 32.607,235.700 32.972 C 238.018 33.705,241.544 35.006,243.400 35.813 C 244.060 36.100,245.410 36.656,246.399 37.050 C 254.684 40.347,267.251 48.333,275.432 55.500 C 281.104 60.468,287.571 67.358,291.388 72.500 C 292.409 73.875,293.468 75.274,293.740 75.609 C 295.463 77.724,297.464 80.966,300.847 87.121 C 303.189 91.383,303.963 91.913,301.772 87.755 C 295.839 76.494,284.472 62.280,275.400 54.777 C 270.146 50.431,260.612 43.648,258.400 42.681 C 258.070 42.536,256.900 41.876,255.800 41.213 C 249.825 37.613,233.600 30.992,233.600 32.154 M158.932 68.351 C 154.596 69.959,150.757 73.569,148.405 78.250 C 145.184 84.660,144.332 94.210,146.394 100.800 C 146.566 101.350,146.949 102.610,147.244 103.600 C 150.274 113.762,159.665 122.000,168.218 122.000 C 175.469 122.000,183.266 115.233,185.502 107.000 C 185.741 106.120,186.131 104.659,186.368 103.754 C 186.606 102.848,186.800 99.899,186.800 97.200 C 186.800 94.501,186.606 91.552,186.368 90.646 C 186.131 89.741,185.750 88.280,185.523 87.400 C 181.967 73.655,169.231 64.531,158.932 68.351 M232.042 68.207 C 219.955 71.602,211.212 88.080,213.784 102.617 C 218.648 130.109,247.473 127.889,254.339 99.494 C 254.891 97.212,254.954 87.164,254.427 85.428 C 254.222 84.753,253.824 83.390,253.543 82.400 C 250.640 72.172,240.875 65.727,232.042 68.207 M168.040 68.431 C 192.494 76.173,192.442 121.000,167.979 121.000 C 148.828 121.000,138.445 90.030,152.077 73.569 C 155.566 69.356,163.202 66.899,168.040 68.431 M239.465 68.559 C 261.125 74.326,258.628 114.497,236.204 121.016 C 217.921 126.331,206.637 97.475,219.562 78.457 C 222.177 74.610,227.918 69.600,229.711 69.600 C 230.017 69.600,230.401 69.465,230.564 69.300 C 231.647 68.208,236.599 67.796,239.465 68.559 M95.003 94.279 C 94.185 95.995,93.354 97.805,93.158 98.300 C 92.288 100.488,91.883 101.446,91.553 102.095 C 91.359 102.477,91.200 103.116,91.200 103.515 C 91.200 103.914,91.051 104.411,90.870 104.620 C 90.688 104.829,90.302 105.810,90.012 106.800 C 89.722 107.790,89.259 109.320,88.984 110.200 C 88.708 111.080,88.185 113.060,87.822 114.600 C 87.459 116.140,87.077 117.760,86.973 118.200 C 85.378 124.957,84.623 132.727,84.623 142.400 C 84.623 154.746,85.760 163.252,88.833 173.900 C 89.071 174.725,89.362 175.897,89.479 176.505 C 89.596 177.113,89.851 177.708,90.046 177.829 C 90.241 177.949,90.400 178.476,90.400 179.000 C 90.400 179.524,90.580 180.064,90.800 180.200 C 91.020 180.336,91.200 180.799,91.200 181.229 C 91.200 181.659,91.359 182.323,91.553 182.705 C 91.748 183.087,92.085 183.850,92.303 184.400 C 95.513 192.507,103.308 206.543,107.304 211.412 C 107.660 211.845,108.812 213.280,109.864 214.600 C 116.540 222.975,133.493 238.400,136.020 238.400 C 136.229 238.400,136.400 238.580,136.400 238.800 C 136.400 239.020,136.593 239.200,136.828 239.200 C 137.063 239.200,138.008 239.718,138.928 240.350 C 145.441 244.830,158.771 250.858,167.400 253.226 C 168.060 253.407,169.320 253.759,170.200 254.008 C 184.185 257.965,203.177 258.902,218.600 256.397 C 222.028 255.841,227.290 254.718,229.800 254.008 C 230.680 253.759,231.940 253.408,232.600 253.228 C 240.912 250.967,254.870 244.717,260.462 240.753 C 261.046 240.339,261.654 240.000,261.814 240.000 C 262.109 240.000,269.382 234.872,271.174 233.400 C 278.861 227.089,285.152 220.852,290.136 214.600 C 291.188 213.280,292.340 211.845,292.696 211.412 C 297.261 205.850,306.217 189.249,308.455 182.200 C 308.735 181.320,309.107 180.429,309.282 180.220 C 309.457 180.011,309.600 179.437,309.600 178.944 C 309.600 178.451,309.759 177.949,309.954 177.829 C 310.149 177.708,310.404 177.113,310.521 176.505 C 310.638 175.897,310.939 174.680,311.190 173.800 C 315.964 157.050,316.791 138.395,313.532 121.000 C 312.674 116.419,312.240 114.650,310.372 108.100 C 310.137 107.275,309.845 106.192,309.724 105.694 C 309.603 105.196,309.346 104.690,309.152 104.570 C 308.959 104.451,308.800 104.001,308.800 103.571 C 308.800 103.141,308.641 102.477,308.447 102.095 C 308.252 101.713,307.911 100.950,307.687 100.400 C 305.953 96.126,303.569 91.098,303.371 91.296 C 303.284 91.383,304.200 93.638,305.406 96.307 C 306.613 98.976,307.600 101.402,307.600 101.700 C 307.600 101.997,307.748 102.411,307.928 102.620 C 308.211 102.947,308.641 104.232,310.402 110.000 C 310.705 110.993,311.250 113.025,311.982 115.900 C 312.718 118.786,313.449 122.907,314.396 129.524 C 314.919 133.169,314.924 152.433,314.404 154.600 C 314.192 155.480,314.015 156.872,314.010 157.694 C 314.004 158.516,313.830 159.956,313.623 160.894 C 313.415 161.832,313.055 163.545,312.823 164.700 C 312.051 168.534,311.504 170.988,311.197 172.000 C 311.030 172.550,310.669 173.810,310.394 174.800 C 309.929 176.480,309.045 179.081,307.131 184.400 C 305.974 187.615,301.213 197.358,299.214 200.600 C 298.264 202.140,297.284 203.760,297.037 204.200 C 290.414 215.963,274.167 231.950,260.247 240.402 C 255.805 243.099,247.287 247.600,246.625 247.600 C 246.423 247.600,244.703 248.328,241.800 249.642 C 221.471 258.844,186.403 259.707,163.700 251.564 C 157.939 249.498,156.847 249.069,152.600 247.208 C 135.738 239.819,117.754 225.251,107.401 210.594 C 106.315 209.057,105.312 207.710,105.171 207.600 C 104.932 207.413,103.047 204.396,100.312 199.823 C 98.186 196.268,94.676 188.965,92.755 184.100 C 92.560 183.605,92.229 182.795,92.020 182.300 C 91.528 181.133,90.402 177.759,89.953 176.100 C 89.759 175.385,89.408 174.125,89.173 173.300 C 87.737 168.248,86.712 163.053,85.603 155.200 C 85.054 151.318,85.055 133.487,85.603 129.600 C 86.868 120.636,87.183 118.984,88.773 113.000 C 89.799 109.137,91.340 104.150,91.986 102.600 C 92.169 102.160,92.546 101.170,92.824 100.400 C 93.102 99.630,94.113 97.308,95.071 95.240 C 96.030 93.172,96.741 91.408,96.652 91.319 C 96.563 91.230,95.821 92.562,95.003 94.279 M122.800 129.190 C 122.470 129.379,121.524 129.827,120.697 130.187 C 117.176 131.718,113.299 137.003,112.180 141.800 C 108.408 157.969,124.006 174.090,137.236 167.695 C 151.213 160.938,149.247 137.200,134.126 130.141 C 131.173 128.763,124.523 128.205,122.800 129.190 M268.000 129.275 C 265.538 130.311,264.894 130.646,263.221 131.762 C 247.793 142.045,251.431 168.225,268.398 169.016 L 271.400 169.156 268.531 168.822 C 246.859 166.295,250.659 129.400,272.592 129.400 C 292.282 129.400,293.225 161.265,273.733 167.971 C 272.450 168.412,271.760 168.777,272.200 168.781 C 275.235 168.809,280.637 165.311,283.478 161.477 C 290.275 152.307,290.070 140.058,283.002 132.959 C 281.138 131.087,280.328 130.580,277.081 129.256 C 275.695 128.691,269.357 128.704,268.000 129.275 M134.431 130.877 C 148.260 137.715,150.289 160.076,137.701 166.902 C 127.550 172.407,114.893 164.210,112.546 150.610 C 109.967 135.666,122.061 124.760,134.431 130.877 M197.000 135.424 C 196.560 135.525,195.210 135.808,194.000 136.052 C 188.205 137.223,181.655 142.037,177.202 148.400 C 176.663 149.170,175.902 150.149,175.511 150.575 C 175.120 151.002,174.800 151.587,174.800 151.875 C 174.800 152.164,174.620 152.400,174.400 152.400 C 174.180 152.400,174.000 152.597,174.000 152.838 C 174.000 153.079,173.661 153.754,173.247 154.338 C 172.469 155.435,171.851 156.489,168.988 161.600 C 165.373 168.054,165.099 168.521,163.237 171.400 C 162.668 172.280,162.103 173.090,161.982 173.200 C 161.861 173.310,161.329 174.030,160.800 174.800 C 160.271 175.570,159.726 176.290,159.589 176.400 C 159.215 176.700,156.000 181.521,156.000 181.782 C 156.000 181.907,155.661 182.772,155.247 183.704 C 149.514 196.620,152.379 210.302,161.824 215.112 C 168.028 218.271,174.787 217.941,185.600 213.949 C 192.371 211.449,191.584 211.697,194.941 210.997 C 199.186 210.111,204.373 210.410,208.459 211.774 C 208.756 211.874,211.430 212.852,214.400 213.949 C 230.548 219.910,240.670 217.614,245.906 206.800 C 248.093 202.282,248.119 192.387,245.959 186.600 C 244.609 182.984,241.600 177.437,240.426 176.400 C 239.203 175.320,235.033 168.912,232.094 163.600 C 228.478 157.061,227.576 155.499,226.753 154.338 C 226.339 153.754,226.000 153.079,226.000 152.838 C 226.000 152.597,225.820 152.400,225.600 152.400 C 225.380 152.400,225.200 152.164,225.200 151.875 C 225.200 151.587,224.880 151.002,224.489 150.575 C 224.098 150.149,223.337 149.170,222.798 148.400 C 216.409 139.271,205.067 133.566,197.000 135.424 M206.213 136.587 C 211.746 138.028,216.402 141.228,220.778 146.600 C 223.118 149.472,226.400 154.152,226.400 154.616 C 226.400 154.759,226.762 155.385,227.205 156.007 C 227.647 156.628,228.520 158.096,229.143 159.268 C 229.766 160.441,230.690 162.120,231.195 163.000 C 231.700 163.880,232.559 165.410,233.104 166.400 C 234.153 168.307,237.847 173.816,241.418 178.800 C 242.600 180.450,243.575 181.937,243.584 182.104 C 243.593 182.272,243.939 183.172,244.353 184.104 C 253.338 204.348,240.483 221.551,220.800 215.622 C 217.913 214.753,217.321 214.544,214.900 213.546 C 212.653 212.620,212.147 212.436,209.800 211.687 C 204.287 209.929,198.447 209.443,194.646 210.426 C 191.077 211.349,187.954 212.385,184.800 213.693 C 169.491 220.038,157.476 216.235,153.553 203.800 C 152.871 201.639,152.866 192.754,153.545 190.200 C 155.223 183.889,156.345 181.674,161.100 175.283 C 163.082 172.619,165.259 169.237,167.237 165.747 C 167.657 165.006,168.388 163.725,168.862 162.900 C 169.336 162.075,170.234 160.441,170.857 159.268 C 171.480 158.096,172.353 156.628,172.795 156.007 C 173.238 155.385,173.600 154.759,173.600 154.616 C 173.600 154.152,176.882 149.472,179.222 146.600 C 181.630 143.645,182.913 142.402,185.200 140.812 C 185.970 140.277,186.690 139.731,186.800 139.600 C 187.217 139.104,191.692 137.113,193.507 136.617 C 196.180 135.886,203.457 135.869,206.213 136.587 " stroke="none" fill="#bc90be" fill-rule="evenodd"></path></g></svg>